<?xml version="1.0" encoding="UTF-8"?>
<!DOCTYPE svg PUBLIC "-//W3C//DTD SVG 1.1//EN" "http://www.w3.org/Graphics/SVG/1.1/DTD/svg11.dtd">
<!-- Creator: CorelDRAW (Versão OEM) -->
<svg xmlns="http://www.w3.org/2000/svg" xml:space="preserve" width="192.262mm" height="68.093mm" version="1.1" style="shape-rendering:geometricPrecision; text-rendering:geometricPrecision; image-rendering:optimizeQuality; fill-rule:evenodd; clip-rule:evenodd"
viewBox="0 0 19226.2 6809.3"
 xmlns:xlink="http://www.w3.org/1999/xlink"
 xmlns:xodm="http://www.corel.com/coreldraw/odm/2003">
 <defs>
  <style type="text/css">
   <![CDATA[
    .fil1 {fill:#FEFEFE;fill-rule:nonzero}
    .fil2 {fill:#00B8AC;fill-rule:nonzero}
    .fil0 {fill:url(#id0)}
   ]]>
  </style>
  <linearGradient id="id0" gradientUnits="userSpaceOnUse" x1="4362.71" y1="4214.65" x2="-44.88" y2="2595.71">
   <stop offset="0" style="stop-opacity:1; stop-color:#0F1F50"/>
   <stop offset="1" style="stop-opacity:1; stop-color:#00B8AC"/>
  </linearGradient>
 </defs>
 <g id="Camada_x0020_1">
  <metadata id="CorelCorpID_0Corel-Layer"/>
  <path class="fil0" d="M524.18 3377.71l1786.17 -1016.92c54.46,-31.01 149.32,-26.02 210.81,11.09l1516.68 915.2c61.5,37.1 67.25,92.83 12.79,123.83l-1786.17 1016.93c-54.45,31 -149.32,26.02 -210.82,-11.09l-1516.68 -915.2c-61.49,-37.11 -67.24,-92.83 -12.78,-123.84zm3726.18 190.5c-46.42,76.03 -107.4,130.53 -179.24,168.92l-3602.32 2116.93c-252.73,132.09 -161.41,203.34 -40.2,280.31l1087.35 601.86c237.17,143.59 351.76,51.13 564.41,-56.73l1854.16 -1136.94c259.02,-186.7 348.73,-301.04 359.24,-740.34l27.02 -1068.35 4.17 -115.24c-0.46,-204.48 -62.84,-67.7 -74.59,-50.42zm-4230.49 -525.67l-25.82 -1041.1c-12.89,-284.93 77.91,-406.42 456.93,-670.25l2011.84 -1222.07c247.76,-126.21 343.7,-168.53 575.48,16.9l1025.58 625.57c43.48,33.95 101.83,157.89 -3.22,217.19l-3776.59 2251.23c-256.85,166.77 -256.7,-63.19 -264.2,-177.47z"/>
  <path class="fil1" d="M5135.27 2443.7l403.31 -85.85c48.4,228.16 233.93,342.24 557.16,342.24 146.92,0 260.42,-28.81 339.93,-87.58 79.51,-58.19 118.69,-130.79 118.69,-217.79 0,-62.8 -17.86,-120.99 -53.58,-174.58 -36.3,-53.58 -113.5,-95.64 -231.62,-125.6l-440.19 -115.23c-150.95,-39.18 -262.15,-84.12 -334.17,-133.67 -72.02,-50.13 -130.22,-121 -173.43,-212.03 -43.21,-91.04 -65.11,-188.41 -65.11,-292.12 0,-205.69 76.63,-371.05 229.89,-495.5 153.26,-124.45 348.58,-186.68 587.12,-186.68 198.2,0 375.08,43.79 531.22,130.22 155.56,86.42 255.24,209.15 297.88,368.17l-395.25 97.94c-60.5,-174.57 -202.24,-261.57 -425.21,-261.57 -129.64,0 -228.16,26.5 -296.15,80.66 -67.99,54.16 -101.98,122.72 -101.98,206.27 0,131.36 106.59,223.55 320.35,276.56l391.79 97.94c237.38,59.35 396.4,147.5 477.64,263.89 81.24,116.96 121.57,245.44 121.57,386.03 0,225.85 -85.27,404.47 -255.82,534.1 -170.54,130.22 -391.21,194.75 -662.59,195.32 -228.16,-0.57 -428.09,-48.4 -599.78,-144.04 -171.7,-95.64 -285.78,-244.29 -341.67,-447.1z"/>
  <path id="_1" class="fil1" d="M8413.07 2455.8l348 47.24c-44.94,153.84 -133.09,281.17 -263.31,381.42 -130.78,100.26 -294.42,149.81 -491.46,150.38 -236.23,-0.57 -426.37,-79.51 -570.41,-238.53 -144.04,-158.45 -216.06,-373.36 -216.06,-644.73 0,-257.54 72.6,-470.73 217.79,-639.54 145.19,-168.82 342.24,-253.51 590.57,-253.51 243.14,0 430.97,83.54 564.07,250.05 132.51,166.51 199.35,380.27 199.35,641.27l-1.73 44.37 -1170.19 0c0,115.81 10.95,208.57 32.84,278.29 21.9,69.71 65.68,130.21 130.79,182.06 65.68,51.86 146.92,77.79 244.87,77.79 190.13,0 318.62,-92.19 384.88,-276.56zm-23.62 -509.91c-1.16,-122.72 -38.03,-222.98 -110.63,-300.76 -72.59,-77.2 -161.9,-116.38 -269.07,-116.38 -106.01,0 -194.16,36.3 -265.03,108.89 -70.87,72.6 -112.36,175.16 -125.03,308.25l769.76 0z"/>
  <path id="_2" class="fil1" d="M9526.8 2999.12l-384.88 0 0 -1704.87 348.01 0 0 406.77c49.55,-158.45 117.53,-274.83 203.96,-347.43 87,-73.17 175.73,-110.04 266.76,-110.04 12.68,0 29.39,0.57 50.71,1.72l0 413.69c-195.9,0 -325.54,62.23 -388.92,187.25 -63.37,125.03 -95.64,246.03 -95.64,362.99l0 789.92z"/>
  <path id="_3" class="fil1" d="M10672.79 2999.12l-384.88 0 0 -1704.87 348.01 0 0 406.77c49.55,-158.45 117.53,-274.83 203.96,-347.43 87,-73.17 175.73,-110.04 266.76,-110.04 12.68,0 29.39,0.57 50.71,1.72l0 413.69c-195.9,0 -325.54,62.23 -388.92,187.25 -63.37,125.03 -95.64,246.03 -95.64,362.99l0 789.92z"/>
  <path id="_4" class="fil1" d="M12892.75 2999.12l-366.44 0c-32.84,-103.71 -52.43,-218.37 -59.34,-344.55 -101.99,253.52 -294.42,379.7 -577.32,380.27 -169.97,-0.57 -305.94,-50.12 -409.08,-149.8 -103.13,-99.68 -154.41,-224.71 -154.41,-375.66 0,-391.22 343.97,-587.11 1031.33,-587.11 27.08,0 63.38,0.57 109.48,1.73l0 -128.49c0,-176.88 -120.42,-265.03 -361.26,-265.03 -233.92,0 -366.44,88.15 -398.13,265.03l-327.26 -48.97c17.86,-141.74 91.03,-258.7 218.94,-350.31 128.49,-91.61 314.01,-137.7 557.15,-137.7 131.94,0 239.11,11.52 322.66,33.41 82.96,21.9 153.26,58.77 210.87,111.2 57.62,52.43 97.37,108.9 119.27,170.55 21.89,61.07 32.84,164.78 32.84,311.13l0 769.75c0,111.78 16.71,226.44 50.7,344.55zm-425.78 -867.7c-497.23,0 -746.14,118.69 -746.14,356.07 0,70.86 25.35,131.36 75.48,181.49 50.13,50.12 125.6,75.48 227.01,75.48 146.34,0 256.97,-46.67 331.87,-139.44 74.33,-92.76 111.78,-198.2 111.78,-316.31l0 -157.29z"/>
  <path id="_5" class="fil1" d="M14092.32 2698.36l0 300.76c-114.65,24.78 -203.38,36.87 -266.18,36.87 -103.71,0 -192.44,-20.16 -266.77,-61.65 -74.32,-40.9 -128.48,-96.79 -163.05,-168.24 -34.57,-72.02 -51.28,-181.49 -51.28,-330.14l0 -882.68 -213.18 0 0 -299.03 235.07 0 35.15 -443.65 315.74 -28.81 0 472.46 342.82 0 0 299.03 -342.82 0 0 831.98c0,106.59 19.59,179.76 58.19,218.37 39.18,39.18 112.35,58.19 220.09,58.19 30.54,0 62.81,-1.15 96.22,-3.46z"/>
  <path id="_6" class="fil1" d="M15451.5 2455.8l348 47.24c-44.94,153.84 -133.09,281.17 -263.31,381.42 -130.78,100.26 -294.42,149.81 -491.46,150.38 -236.23,-0.57 -426.37,-79.51 -570.41,-238.53 -144.04,-158.45 -216.06,-373.36 -216.06,-644.73 0,-257.54 72.6,-470.73 217.79,-639.54 145.19,-168.82 342.24,-253.51 590.57,-253.51 243.14,0 430.97,83.54 564.07,250.05 132.51,166.51 199.35,380.27 199.35,641.27l-1.73 44.37 -1170.19 0c0,115.81 10.95,208.57 32.84,278.29 21.9,69.71 65.68,130.21 130.79,182.06 65.68,51.86 146.92,77.79 244.87,77.79 190.13,0 318.62,-92.19 384.88,-276.56zm-23.62 -509.91c-1.16,-122.72 -38.03,-222.98 -110.63,-300.76 -72.59,-77.2 -161.9,-116.38 -269.07,-116.38 -106.01,0 -194.16,36.3 -265.03,108.89 -70.87,72.6 -112.36,175.16 -125.03,308.25l769.76 0z"/>
  <path id="_7" class="fil1" d="M17164.44 2372.83l331.3 33.99c-43.22,213.76 -125.61,371.63 -248.33,474.19 -122.72,102.55 -270.8,153.26 -444.22,153.83 -235.08,-0.57 -415.99,-85.85 -542.17,-257.54 -126.76,-171.7 -190.14,-382 -190.14,-630.33 0,-256.97 69.14,-469 207.42,-636.66 138.86,-167.66 323.23,-251.78 553.69,-251.78 371.63,0 592.88,195.89 663.75,587.68l-331.3 45.52c-28.81,-211.45 -133.09,-317.47 -312.28,-317.47 -130.21,0 -225.28,57.04 -284.05,171.7 -59.34,114.08 -88.73,252.36 -88.73,414.26 0,172.28 30.54,304.8 92.19,398.13 61.07,93.34 146.92,140.01 256.97,140.01 168.81,0 281.17,-108.32 335.9,-325.53z"/>
  <path id="_8" class="fil1" d="M19219.05 2999.12l-384.88 0 0 -1116.03c0,-120.42 -25.93,-204.54 -77.21,-253.51 -51.28,-48.98 -111.2,-73.75 -179.76,-73.75 -108.9,0 -200.51,43.21 -274.83,130.21 -74.33,86.42 -111.78,229.31 -111.78,428.67l0 884.41 -384.88 0 0 -2304.08 384.88 0 0 898.24c95.65,-245.45 263.31,-368.17 503.57,-368.17 349.73,0 524.89,200.5 524.89,602.67l0 1171.34z"/>
  <path class="fil2" d="M6945.28 4372.18c0,37.35 -6.91,69.85 -20.73,98.06 -14.01,28.01 -32.69,51.36 -56.41,70.22 -23.9,18.68 -51.55,32.88 -83.3,42.4 -31.75,9.53 -65.74,14.2 -101.98,14.2 -24.47,0 -47.07,-2.06 -68.17,-6.17 -20.92,-4.11 -39.41,-8.96 -55.47,-14.75 -16.07,-5.61 -29.52,-11.58 -40.35,-17.93 -10.83,-6.35 -18.49,-11.96 -23.35,-16.63 -4.66,-4.85 -8.03,-11.76 -10.08,-20.73 -2.06,-8.96 -2.99,-21.66 -2.99,-38.47 0,-11.4 0.37,-20.74 1.12,-28.39 0.75,-7.66 1.87,-13.83 3.55,-18.68 1.68,-4.67 3.92,-8.03 6.54,-10.09 2.8,-2.05 5.97,-2.99 9.71,-2.99 5.04,0 12.33,2.99 21.67,9.16 9.33,5.97 21.29,12.7 35.86,19.98 14.57,7.29 32.12,14.01 52.48,19.99 20.17,6.16 43.71,9.15 70.42,9.15 17.55,0 33.24,-2.06 47.06,-6.17 14.01,-4.29 25.78,-10.08 35.49,-17.74 9.71,-7.66 17,-17 22.23,-28.2 5.04,-11.21 7.66,-23.72 7.66,-37.54 0,-16.07 -4.3,-29.89 -13.08,-41.28 -8.78,-11.58 -20.17,-21.67 -34.37,-30.63 -14,-8.97 -30.07,-17.37 -48,-25.22 -17.74,-7.84 -36.23,-16.06 -55.28,-24.84 -19.05,-8.78 -37.55,-18.68 -55.29,-29.88 -17.93,-11.02 -33.99,-24.28 -48,-39.79 -14.2,-15.5 -25.59,-33.8 -34.37,-55.1 -8.78,-21.1 -13.07,-46.5 -13.07,-76.01 0,-33.81 6.35,-63.7 18.86,-89.47 12.52,-25.59 29.51,-46.88 50.81,-63.88 21.47,-16.99 46.5,-29.7 75.45,-38.1 28.95,-8.41 59.77,-12.51 92.27,-12.51 16.62,0 33.43,1.3 50.24,3.92 16.81,2.43 32.5,5.97 47.07,10.27 14.57,4.48 27.46,9.34 38.85,14.76 11.21,5.6 18.68,10.08 22.41,13.82 3.55,3.55 5.98,6.72 7.29,9.15 1.31,2.61 2.43,5.98 3.36,10.27 0.93,4.11 1.49,9.34 1.87,15.88 0.37,6.35 0.56,14.19 0.56,23.72 0,10.46 -0.19,19.42 -0.75,26.71 -0.56,7.28 -1.49,13.26 -2.8,18.12 -1.31,4.66 -3.18,8.21 -5.42,10.27 -2.42,2.24 -5.6,3.36 -9.71,3.36 -3.92,0 -10.27,-2.61 -19.05,-7.66 -8.78,-5.04 -19.61,-10.64 -32.31,-16.81 -12.89,-5.97 -27.65,-11.39 -44.46,-16.25 -16.81,-5.04 -35.11,-7.47 -55.28,-7.47 -15.69,0 -29.33,1.87 -41.09,5.79 -11.58,3.74 -21.29,9.15 -29.14,15.88 -7.84,6.72 -13.82,14.75 -17.56,24.28 -3.92,9.52 -5.79,19.61 -5.79,30.07 0,15.69 4.3,29.32 12.89,40.72 8.59,11.58 20.17,21.85 34.55,30.82 14.39,8.77 30.82,17.18 49.13,25.02 18.11,7.85 36.79,16.25 55.84,24.84 19.05,8.78 37.73,18.68 55.85,29.89 18.3,11.21 34.55,24.47 48.93,39.97 14.2,15.5 25.78,33.62 34.56,54.72 8.78,20.92 13.07,45.58 13.07,73.97z"/>
  <path id="_1_0" class="fil2" d="M7539.98 4317.08c0,41.46 -5.42,79.38 -16.44,113.75 -11.01,34.18 -27.45,63.69 -49.86,88.53 -22.23,24.84 -50.06,43.89 -83.68,57.53 -33.62,13.44 -72.84,20.17 -117.67,20.17 -43.52,0 -81.25,-5.98 -113.37,-18.12 -32.13,-11.95 -58.84,-29.51 -79.94,-52.48 -21.11,-22.98 -36.8,-51.18 -47.07,-84.8 -10.27,-33.43 -15.32,-71.72 -15.32,-114.87 0,-41.46 5.61,-79.57 16.63,-113.93 11.2,-34.56 27.83,-64.07 50.24,-88.72 22.23,-24.47 50.06,-43.52 83.49,-57.15 33.24,-13.45 72.47,-20.18 117.29,-20.18 43.9,0 81.81,5.98 113.94,17.75 32.12,11.95 58.65,29.32 79.56,52.29 21.11,22.98 36.61,51.18 46.89,84.8 10.27,33.43 15.31,71.91 15.31,115.43zm-141.2 5.42c0,-24.1 -1.87,-46.33 -5.79,-66.5 -3.92,-20.36 -10.27,-37.91 -19.61,-52.85 -9.16,-14.95 -21.3,-26.71 -36.42,-35.12 -15.32,-8.4 -34.37,-12.51 -57.53,-12.51 -20.55,0 -38.48,3.73 -53.98,11.2 -15.32,7.47 -28.02,18.49 -37.92,32.88 -9.9,14.38 -17.37,31.75 -22.22,51.92 -5.05,20.36 -7.47,43.33 -7.47,69.29 0,24.1 2.05,46.33 5.97,66.5 4.11,20.36 10.65,37.91 19.61,52.85 8.97,14.95 21.11,26.53 36.61,34.75 15.32,8.21 34.37,12.32 57.16,12.32 20.92,0 39.03,-3.73 54.54,-11.2 15.31,-7.48 28.01,-18.31 37.91,-32.5 9.9,-14.38 17.18,-31.57 22.04,-51.74 4.67,-20.36 7.1,-43.33 7.1,-69.29z"/>
  <path id="_2_1" class="fil2" d="M7787.27 4566.24c0,3.55 -1.12,6.72 -3.36,9.52 -2.05,2.81 -5.79,5.05 -11.21,6.92 -5.23,1.68 -12.32,3.17 -20.92,4.1 -8.77,0.94 -19.98,1.31 -33.43,1.31 -13.45,0 -24.65,-0.37 -33.43,-1.31 -8.59,-0.93 -15.69,-2.42 -20.92,-4.1 -5.42,-1.87 -9.15,-4.11 -11.21,-6.92 -2.24,-2.8 -3.36,-5.97 -3.36,-9.52l0 -720.02c0,-3.74 1.12,-6.92 3.36,-9.9 2.06,-2.81 5.79,-5.42 11.21,-7.29 5.23,-2.05 12.33,-3.55 20.92,-4.67 8.78,-1.12 19.98,-1.68 33.43,-1.68 13.45,0 24.66,0.56 33.43,1.68 8.6,1.12 15.69,2.62 20.92,4.67 5.42,1.87 9.16,4.48 11.21,7.29 2.24,2.98 3.36,6.16 3.36,9.9l0 720.02z"/>
  <path id="_3_2" class="fil2" d="M8387.57 4566.24c0,3.55 -0.93,6.72 -2.8,9.52 -1.68,2.81 -4.85,5.05 -9.52,6.92 -4.49,1.68 -10.46,3.17 -18.12,4.1 -7.47,0.94 -16.81,1.31 -28.02,1.31 -12.14,0 -21.85,-0.37 -29.32,-1.31 -7.47,-0.93 -13.45,-2.42 -17.75,-4.1 -4.48,-1.87 -7.47,-4.11 -9.33,-6.92 -1.87,-2.8 -2.81,-5.97 -2.81,-9.52l0 -56.41c-26.89,28.95 -54.35,50.81 -82.36,65.37 -28.02,14.57 -56.97,21.86 -86.86,21.86 -33.62,0 -62.01,-5.42 -84.79,-16.44 -22.79,-10.83 -41.28,-25.96 -55.29,-44.83 -14.01,-19.05 -24.09,-40.9 -30.26,-65.93 -5.97,-25.03 -8.96,-56.22 -8.96,-93.39l0 -298.84c0,-3.55 0.93,-6.72 2.99,-9.52 2.05,-2.81 5.79,-5.05 11.02,-6.91 5.23,-1.69 12.51,-3.18 21.48,-4.11 8.96,-0.94 19.98,-1.31 33.24,-1.31 13.45,0 24.66,0.37 33.44,1.31 8.77,0.93 15.87,2.42 21.1,4.11 5.42,1.86 9.15,4.1 11.21,6.91 2.24,2.8 3.36,5.97 3.36,9.52l0 275.87c0,25.59 1.68,45.01 4.86,58.46 3.36,13.64 8.4,25.22 15.13,34.74 6.72,9.71 15.31,17.19 25.77,22.6 10.27,5.23 22.41,7.85 36.42,7.85 17.56,0 35.12,-6.35 52.86,-19.05 17.56,-12.71 36.61,-31.38 56.59,-55.66l0 -324.81c0,-3.55 0.94,-6.72 2.99,-9.52 2.06,-2.81 5.6,-5.05 11.02,-6.91 5.23,-1.69 12.33,-3.18 20.92,-4.11 8.78,-0.94 19.99,-1.31 33.43,-1.31 13.45,0 24.66,0.37 33.44,1.31 8.59,0.93 15.69,2.42 20.73,4.11 5.04,1.86 8.78,4.1 10.83,6.91 2.24,2.8 3.36,5.97 3.36,9.52l0 488.61z"/>
  <path id="_4_3" class="fil2" d="M8894.86 4487.79c0,9.53 -0.19,17.56 -0.75,23.91 -0.56,6.35 -1.31,11.58 -2.24,16.06 -0.93,4.3 -2.05,7.85 -3.36,10.65 -1.31,2.8 -4.11,6.35 -8.41,10.65 -4.48,4.29 -12.14,9.52 -22.97,15.68 -11.02,6.36 -24.1,12.15 -39.22,17.56 -15.13,5.42 -31.2,9.15 -48.57,11.4l12.33 27.26c6.73,14.2 11.58,26.53 14.57,37.17 2.99,10.46 4.48,20.74 4.48,30.63 0,16.63 -2.99,31.01 -8.96,42.96 -6.17,12.14 -14.38,21.86 -25.22,29.51 -10.83,7.66 -23.16,13.45 -37.17,17.19 -14,3.92 -29.32,5.79 -45.76,5.79 -15.87,0 -30.81,-1.12 -44.45,-3.36 -13.63,-2.06 -25.03,-4.49 -34.18,-7.1 -9.15,-2.43 -15.69,-4.67 -19.42,-6.54 -3.93,-1.87 -6.54,-4.11 -8.04,-7.1 -1.3,-2.99 -2.42,-6.72 -3.17,-11.2 -0.75,-4.49 -1.12,-10.84 -1.12,-18.87 0,-14.57 1.31,-24.65 4.11,-30.44 2.61,-5.61 7.66,-8.41 14.94,-8.41l63.13 0c10.46,0 18.3,-2.24 23.35,-6.72 5.04,-4.67 7.66,-10.83 7.66,-18.87 0,-4.29 -0.75,-9.33 -2.43,-14.75 -1.68,-5.42 -3.74,-11.02 -6.35,-16.81l-21.48 -46.32c-35.68,-9.15 -65.37,-25.22 -89.09,-48 -23.73,-22.79 -41.47,-51.74 -53.42,-86.67 -11.77,-34.74 -17.75,-75.46 -17.75,-121.78 0,-48.93 6.17,-91.33 18.31,-126.82 12.32,-35.67 29.32,-65.18 51.17,-88.53 21.86,-23.53 47.82,-40.72 77.7,-52.11 29.89,-11.39 62.76,-17 98.62,-17 14.57,0 28.76,1.31 42.96,3.93 14.01,2.42 27.08,5.97 39.41,10.27 12.14,4.48 23.16,9.34 32.69,14.75 9.71,5.61 16.62,10.28 20.54,14.39 4.11,3.92 6.91,7.28 8.59,10.08 1.5,2.8 2.8,6.35 3.74,10.65 0.93,4.48 1.68,9.9 2.24,16.25 0.56,6.53 0.75,14.19 0.75,23.34 0,21.3 -1.68,36.24 -5.42,44.83 -3.74,8.59 -8.4,12.89 -14.19,12.89 -6.17,0 -12.89,-2.62 -19.8,-7.66 -6.91,-5.04 -15.13,-10.83 -24.66,-17 -9.34,-6.16 -20.73,-11.95 -33.8,-16.99 -13.08,-5.05 -28.77,-7.66 -47.07,-7.66 -35.86,0 -63.13,13.82 -82.18,41.28 -18.87,27.64 -28.39,67.98 -28.39,121.21 0,26.15 2.42,49.31 7.09,69.49 4.86,19.98 11.77,36.79 21.11,50.24 9.34,13.45 20.92,23.72 34.93,30.44 14.19,6.73 30.44,10.09 49.12,10.09 18.86,0 35.3,-2.8 48.93,-8.59 13.64,-5.61 25.59,-11.96 35.87,-18.87 10.08,-6.91 18.67,-13.26 25.77,-18.86 6.91,-5.79 12.7,-8.59 17.37,-8.59 3.36,0 5.98,0.93 8.22,2.8 2.24,1.68 3.92,5.04 5.23,10.08 1.31,4.86 2.24,11.21 2.99,18.87 0.74,7.66 1.12,17.37 1.12,29.32z"/>
  <path id="_5_4" class="fil2" d="M9482.64 4317.08c0,41.46 -5.42,79.38 -16.44,113.75 -11.01,34.18 -27.45,63.69 -49.86,88.53 -22.23,24.84 -50.06,43.89 -83.68,57.53 -33.62,13.44 -72.84,20.17 -117.67,20.17 -43.52,0 -81.25,-5.98 -113.37,-18.12 -32.13,-11.95 -58.84,-29.51 -79.94,-52.48 -21.11,-22.98 -36.8,-51.18 -47.07,-84.8 -10.27,-33.43 -15.32,-71.72 -15.32,-114.87 0,-41.46 5.61,-79.57 16.63,-113.93 11.2,-34.56 27.83,-64.07 50.24,-88.72 22.23,-24.47 50.06,-43.52 83.49,-57.15 33.24,-13.45 72.47,-20.18 117.29,-20.18 43.9,0 81.81,5.98 113.94,17.75 32.12,11.95 58.65,29.32 79.56,52.29 21.11,22.98 36.61,51.18 46.89,84.8 10.27,33.43 15.31,71.91 15.31,115.43zm-141.2 5.42c0,-24.1 -1.87,-46.33 -5.79,-66.5 -3.92,-20.36 -10.27,-37.91 -19.61,-52.85 -9.16,-14.95 -21.3,-26.71 -36.42,-35.12 -15.32,-8.4 -34.37,-12.51 -57.53,-12.51 -20.55,0 -38.48,3.73 -53.98,11.2 -15.32,7.47 -28.02,18.49 -37.92,32.88 -9.9,14.38 -17.37,31.75 -22.22,51.92 -5.05,20.36 -7.47,43.33 -7.47,69.29 0,24.1 2.05,46.33 5.97,66.5 4.11,20.36 10.65,37.91 19.61,52.85 8.97,14.95 21.11,26.53 36.61,34.75 15.32,8.21 34.37,12.32 57.16,12.32 20.92,0 39.03,-3.73 54.54,-11.2 15.31,-7.48 28.01,-18.31 37.91,-32.5 9.9,-14.38 17.18,-31.57 22.04,-51.74 4.67,-20.36 7.1,-43.33 7.1,-69.29zm73.96 -469c0,43.89 -10.46,77.51 -31.38,101.05 -21.1,23.34 -50.05,35.11 -87.22,35.11 -14.38,0 -26.9,-1.49 -37.73,-4.3 -11.02,-2.98 -20.92,-6.72 -29.7,-11.58 -8.59,-4.67 -16.62,-9.71 -23.72,-14.94 -7.1,-5.23 -14.01,-10.27 -20.54,-14.75 -6.54,-4.49 -12.89,-8.41 -19.43,-11.4 -6.35,-3.17 -13.07,-4.67 -20.36,-4.67 -12.14,0 -20.73,4.3 -25.96,12.89 -5.04,8.41 -7.66,19.61 -7.66,33.43 0,3.37 -0.56,5.98 -1.86,8.04 -1.31,1.86 -3.55,3.54 -6.54,4.48 -3.18,1.12 -7.47,1.87 -13.08,2.24 -5.79,0.37 -12.88,0.56 -21.66,0.56 -7.66,0 -14.01,-0.19 -19.43,-0.75 -5.23,-0.56 -9.34,-1.68 -12.51,-3.36 -2.99,-1.68 -5.42,-3.92 -6.73,-6.72 -1.49,-2.99 -2.24,-6.73 -2.24,-11.58 0,-42.03 10.28,-75.27 30.63,-99.37 20.36,-24.09 49.5,-36.23 87.42,-36.23 20.92,0 38.47,3.17 52.85,9.52 14.39,6.35 27.09,13.45 38.29,21.29 11.21,7.85 21.48,14.95 30.82,21.3 9.53,6.35 19.43,9.52 29.7,9.52 10.83,0 19.42,-3.92 25.21,-11.76 5.79,-7.85 8.78,-19.24 8.78,-34.56 0,-6.16 2.8,-10.27 8.22,-12.33 5.42,-2.05 16.44,-2.98 33.25,-2.98 16.43,0 27.64,1.3 33.62,4.11 5.97,2.61 8.96,8.59 8.96,17.74z"/>
  <path id="_6_5" class="fil2" d="M10042.6 4307.93c0,16.81 -3.74,29.13 -11.21,37.17 -7.47,8.03 -17.74,12.14 -31.01,12.14l-297.34 0c0,20.73 2.42,39.41 7.47,56.4 4.85,16.81 12.7,31.19 23.34,42.96 10.84,11.77 24.66,20.73 41.66,26.9 16.99,6.16 37.16,9.34 60.88,9.34 24.1,0 45.2,-1.69 63.51,-5.23 18.12,-3.55 33.99,-7.29 47.25,-11.58 13.26,-4.3 24.28,-8.04 33.06,-11.58 8.78,-3.55 15.88,-5.23 21.3,-5.23 3.36,0 6.16,0.56 8.21,1.86 2.24,1.31 4.11,3.55 5.61,6.91 1.3,3.18 2.42,7.85 2.99,13.83 0.56,5.97 0.74,13.63 0.74,22.6 0,8.03 -0.18,14.94 -0.56,20.54 -0.37,5.6 -0.93,10.46 -1.68,14.38 -0.75,4.11 -1.68,7.47 -3.17,10.09 -1.5,2.8 -3.37,5.42 -5.79,8.03 -2.43,2.43 -8.78,5.98 -19.43,10.46 -10.65,4.48 -24.09,8.78 -40.53,13.07 -16.44,4.3 -35.11,8.04 -56.22,11.21 -21.11,3.18 -43.71,4.86 -67.8,4.86 -43.52,0 -81.43,-5.42 -114.12,-16.44 -32.5,-10.83 -59.77,-27.46 -81.81,-49.68 -21.85,-22.23 -38.1,-50.43 -48.93,-84.24 -10.65,-33.99 -16.07,-73.77 -16.07,-119.35 0,-43.33 5.61,-82.37 17,-117.29 11.21,-34.74 27.64,-64.26 49.31,-88.54 21.48,-24.28 47.63,-42.77 78.45,-55.47 31,-12.89 65.74,-19.24 104.4,-19.24 40.91,0 75.84,5.98 104.79,18.12 29.13,11.95 52.85,28.76 71.53,50.06 18.49,21.29 32.31,46.69 41.09,75.83 8.78,29.14 13.08,60.89 13.08,95.25l0 21.86zm-133.36 -39.23c1.12,-38.66 -6.73,-69.1 -23.35,-91.14 -16.62,-22.23 -42.21,-33.25 -76.95,-33.25 -17.56,0 -32.87,3.36 -45.76,9.9 -13.08,6.54 -23.91,15.32 -32.5,26.52 -8.59,11.21 -15.13,24.28 -19.61,39.41 -4.67,15.32 -7.29,31.38 -8.03,48.56l206.2 0z"/>
  <path id="_7_6" class="fil2" d="M10500.38 4428.02c0,27.65 -5.23,52.12 -15.69,73.41 -10.27,21.1 -25.02,38.66 -44.08,53.04 -19.05,14.2 -41.46,24.84 -67.42,31.94 -25.96,7.1 -53.98,10.65 -84.24,10.65 -18.3,0 -35.86,-1.31 -52.48,-4.11 -16.63,-2.8 -31.38,-6.35 -44.64,-10.65 -13.08,-4.11 -24.1,-8.4 -32.87,-12.89 -8.78,-4.48 -15.13,-8.59 -19.06,-12.51 -4.1,-3.92 -7.28,-9.9 -9.33,-18.12 -2.25,-8.03 -3.37,-20.17 -3.37,-36.23 0,-10.46 0.38,-18.87 1.12,-25.22 0.75,-6.35 1.87,-11.58 3.18,-15.31 1.49,-3.74 3.36,-6.35 5.6,-7.66 2.06,-1.31 4.86,-1.87 8.22,-1.87 3.92,0 9.9,2.24 17.74,6.91 7.85,4.67 17.56,9.72 29.33,15.13 11.58,5.61 25.21,10.83 40.72,15.5 15.5,4.86 33.24,7.29 52.85,7.29 12.33,0 23.54,-1.31 33.06,-3.92 9.72,-2.43 18.12,-6.17 25.22,-11.02 7.1,-4.67 12.51,-10.65 16.25,-18.12 3.55,-7.29 5.41,-15.69 5.41,-25.22 0,-11.02 -3.36,-20.35 -10.08,-28.2 -6.91,-7.84 -15.88,-14.75 -26.9,-20.54 -11.2,-5.79 -23.9,-11.21 -37.91,-16.44 -14.01,-5.04 -28.58,-10.65 -43.34,-17 -14.75,-6.16 -29.32,-13.26 -43.33,-21.29 -14.01,-8.03 -26.71,-17.74 -37.91,-29.51 -11.02,-11.58 -19.99,-25.78 -26.9,-42.03 -6.72,-16.43 -10.08,-36.23 -10.08,-59.2 0,-23.35 4.66,-44.64 13.82,-64.25 9.15,-19.43 22.22,-36.24 39.41,-50.06 17.37,-13.82 38.29,-24.66 62.94,-32.31 24.84,-7.66 52.48,-11.4 83.3,-11.4 15.51,0 30.26,1.12 44.83,3.18 14.38,2.24 27.64,5.04 39.22,8.22 11.77,3.36 21.67,6.72 29.7,10.64 8.03,3.74 13.82,7.1 17.37,9.72 3.55,2.8 5.98,5.41 7.47,8.21 1.31,2.81 2.43,5.98 3.18,9.9 0.74,3.74 1.49,8.59 2.05,14.2 0.56,5.6 0.75,12.7 0.75,21.1 0,9.9 -0.19,17.93 -0.75,24.1 -0.56,6.16 -1.49,11.2 -2.8,14.75 -1.31,3.74 -2.99,6.17 -5.23,7.47 -2.24,1.31 -4.86,1.87 -7.66,1.87 -3.36,0 -8.59,-1.87 -15.5,-5.79 -6.91,-3.73 -15.69,-7.84 -26.15,-12.14 -10.46,-4.29 -22.6,-8.4 -36.23,-12.14 -13.83,-3.92 -29.52,-5.79 -47.07,-5.79 -12.52,0 -23.35,1.31 -32.5,3.74 -9.15,2.61 -16.62,6.35 -22.6,11.02 -5.79,4.67 -10.27,10.27 -13.08,16.62 -2.98,6.35 -4.48,13.26 -4.48,20.36 0,11.39 3.55,20.92 10.46,28.57 6.91,7.66 16.06,14.39 27.46,20.18 11.2,5.79 24.28,11.39 38.66,16.43 14.38,5.05 29.14,10.65 43.89,16.63 14.76,5.97 29.51,13.07 43.9,21.1 14.38,8.03 27.45,17.93 38.66,29.51 11.39,11.77 20.54,25.59 27.45,41.84 6.91,16.25 10.46,35.49 10.46,57.71z"/>
  <path id="_8_7" class="fil2" d="M11307.26 4307.93c0,16.81 -3.74,29.13 -11.21,37.17 -7.47,8.03 -17.74,12.14 -31.01,12.14l-297.34 0c0,20.73 2.42,39.41 7.47,56.4 4.85,16.81 12.7,31.19 23.34,42.96 10.84,11.77 24.66,20.73 41.66,26.9 16.99,6.16 37.16,9.34 60.88,9.34 24.1,0 45.2,-1.69 63.51,-5.23 18.12,-3.55 33.99,-7.29 47.25,-11.58 13.26,-4.3 24.28,-8.04 33.06,-11.58 8.78,-3.55 15.88,-5.23 21.3,-5.23 3.36,0 6.16,0.56 8.21,1.86 2.24,1.31 4.11,3.55 5.61,6.91 1.3,3.18 2.42,7.85 2.99,13.83 0.56,5.97 0.74,13.63 0.74,22.6 0,8.03 -0.18,14.94 -0.56,20.54 -0.37,5.6 -0.93,10.46 -1.68,14.38 -0.75,4.11 -1.68,7.47 -3.17,10.09 -1.5,2.8 -3.37,5.42 -5.79,8.03 -2.43,2.43 -8.78,5.98 -19.43,10.46 -10.65,4.48 -24.09,8.78 -40.53,13.07 -16.44,4.3 -35.11,8.04 -56.22,11.21 -21.11,3.18 -43.71,4.86 -67.8,4.86 -43.52,0 -81.43,-5.42 -114.12,-16.44 -32.5,-10.83 -59.77,-27.46 -81.81,-49.68 -21.85,-22.23 -38.1,-50.43 -48.93,-84.24 -10.65,-33.99 -16.07,-73.77 -16.07,-119.35 0,-43.33 5.61,-82.37 17,-117.29 11.21,-34.74 27.64,-64.26 49.31,-88.54 21.48,-24.28 47.63,-42.77 78.45,-55.47 31,-12.89 65.74,-19.24 104.4,-19.24 40.91,0 75.84,5.98 104.79,18.12 29.13,11.95 52.85,28.76 71.53,50.06 18.49,21.29 32.31,46.69 41.09,75.83 8.78,29.14 13.08,60.89 13.08,95.25l0 21.86zm-133.36 -39.23c1.12,-38.66 -6.73,-69.1 -23.35,-91.14 -16.62,-22.23 -42.21,-33.25 -76.95,-33.25 -17.56,0 -32.87,3.36 -45.76,9.9 -13.08,6.54 -23.91,15.32 -32.5,26.52 -8.59,11.21 -15.13,24.28 -19.61,39.41 -4.67,15.32 -7.29,31.38 -8.03,48.56l206.2 0z"/>
  <path id="_9" class="fil2" d="M12197.62 4566.24c0,3.55 -1.12,6.72 -3.36,9.52 -2.06,2.81 -5.79,5.05 -10.84,6.92 -5.23,1.68 -12.14,3.17 -20.92,4.1 -8.77,0.94 -19.98,1.31 -33.43,1.31 -14.01,0 -25.4,-0.37 -34.18,-1.31 -8.78,-0.93 -15.87,-2.42 -21.1,-4.1 -5.23,-1.87 -8.97,-4.11 -11.02,-6.92 -2.06,-2.8 -2.99,-5.97 -2.99,-9.52l0 -289.5c0,-16.44 -1.5,-31.38 -4.67,-44.83 -2.99,-13.64 -7.85,-25.22 -14.2,-34.74 -6.35,-9.71 -14.38,-17.19 -23.9,-22.6 -9.72,-5.23 -21.11,-7.85 -34.56,-7.85 -16.43,0 -33.06,6.35 -49.68,19.24 -16.81,12.7 -34.93,31.38 -54.54,55.66l0 324.62c0,3.55 -1.12,6.72 -3.36,9.52 -2.06,2.81 -5.79,5.05 -11.21,6.92 -5.23,1.68 -12.33,3.17 -21.1,4.1 -8.78,0.94 -19.8,1.31 -32.88,1.31 -13.63,0 -24.84,-0.37 -33.62,-1.31 -8.78,-0.93 -15.87,-2.42 -21.1,-4.1 -5.42,-1.87 -9.15,-4.11 -11.21,-6.92 -2.24,-2.8 -3.36,-5.97 -3.36,-9.52l0 -289.5c0,-16.44 -1.5,-31.38 -4.67,-44.83 -2.99,-13.64 -7.66,-25.22 -14.01,-34.74 -6.16,-9.71 -14.19,-17.19 -23.91,-22.6 -9.9,-5.23 -21.48,-7.85 -34.55,-7.85 -16.81,0 -33.43,6.35 -50.24,19.24 -16.81,12.7 -34.93,31.38 -54.17,55.66l0 324.62c0,3.55 -1.12,6.72 -3.36,9.52 -2.05,2.81 -5.79,5.05 -11.21,6.92 -5.23,1.68 -12.32,3.17 -20.92,4.1 -8.77,0.94 -19.98,1.31 -33.43,1.31 -13.45,0 -24.65,-0.37 -33.43,-1.31 -8.59,-0.93 -15.69,-2.42 -20.92,-4.1 -5.42,-1.87 -9.15,-4.11 -11.21,-6.92 -2.24,-2.8 -3.36,-5.97 -3.36,-9.52l0 -488.61c0,-3.55 0.93,-6.72 2.8,-9.52 1.68,-2.81 5.05,-5.05 9.71,-6.91 4.86,-1.69 10.84,-3.18 18.31,-4.11 7.47,-0.94 17,-1.31 28.2,-1.31 11.77,0 21.29,0.37 28.95,1.31 7.66,0.93 13.64,2.42 17.93,4.11 4.11,1.86 7.1,4.1 8.97,6.91 1.87,2.8 2.8,5.97 2.8,9.52l0 56.41c26.9,-29.14 53.79,-50.81 80.69,-65.37 26.89,-14.57 54.91,-21.86 84.05,-21.86 20.17,0 38.29,2.06 54.35,6.35 16.06,4.11 30.26,10.09 42.96,17.93 12.51,7.85 23.34,17.19 32.5,28.02 9.15,11.02 16.81,23.16 22.97,36.61 14.57,-15.69 28.95,-29.14 42.96,-40.34 14.01,-11.21 28.02,-20.55 41.65,-27.65 13.64,-7.1 27.27,-12.33 41.09,-15.69 13.64,-3.55 27.46,-5.23 41.84,-5.23 32.31,0 59.77,5.42 81.99,16.44 22.23,10.83 40.16,25.77 53.8,44.64 13.82,18.68 23.53,40.72 29.32,65.93 5.79,25.22 8.78,51.74 8.78,79.94l0 312.48z"/>
  <path id="_10" class="fil2" d="M13064.45 3935.49c0,10.65 -0.37,19.62 -1.3,27.27 -0.94,7.47 -2.25,13.45 -4.11,17.93 -1.87,4.67 -4.11,8.04 -6.91,10.09 -2.62,2.24 -5.79,3.36 -8.97,3.36l-177.06 0 0 570.98c0,3.55 -1.12,6.91 -3.55,9.9 -2.43,2.8 -6.35,5.23 -11.77,7.1 -5.42,1.68 -12.89,3.17 -22.23,4.29 -9.34,1.12 -20.92,1.68 -34.74,1.68 -13.82,0 -25.4,-0.56 -34.74,-1.68 -9.34,-1.12 -16.81,-2.61 -22.22,-4.29 -5.42,-1.87 -9.34,-4.3 -11.77,-7.1 -2.43,-2.99 -3.55,-6.35 -3.55,-9.9l0 -570.98 -177.06 0c-3.55,0 -6.73,-1.12 -9.34,-3.36 -2.43,-2.05 -4.67,-5.42 -6.54,-10.09 -1.68,-4.48 -3.17,-10.46 -4.11,-17.93 -0.93,-7.65 -1.31,-16.62 -1.31,-27.27 0,-10.83 0.38,-20.17 1.31,-27.83 0.94,-7.65 2.43,-13.82 4.11,-18.3 1.87,-4.67 4.11,-7.84 6.54,-9.9 2.61,-2.05 5.79,-2.99 9.34,-2.99l498.69 0c3.18,0 6.16,0.94 8.97,2.99 2.8,2.06 5.04,5.23 6.91,9.9 1.86,4.48 3.17,10.65 4.11,18.3 0.93,7.66 1.3,17 1.3,27.83z"/>
  <path id="_11" class="fil2" d="M13494.42 4307.93c0,16.81 -3.74,29.13 -11.21,37.17 -7.47,8.03 -17.74,12.14 -31.01,12.14l-297.34 0c0,20.73 2.42,39.41 7.47,56.4 4.85,16.81 12.7,31.19 23.34,42.96 10.84,11.77 24.66,20.73 41.66,26.9 16.99,6.16 37.16,9.34 60.88,9.34 24.1,0 45.2,-1.69 63.51,-5.23 18.12,-3.55 33.99,-7.29 47.25,-11.58 13.26,-4.3 24.28,-8.04 33.06,-11.58 8.78,-3.55 15.88,-5.23 21.3,-5.23 3.36,0 6.16,0.56 8.21,1.86 2.24,1.31 4.11,3.55 5.61,6.91 1.3,3.18 2.42,7.85 2.99,13.83 0.56,5.97 0.74,13.63 0.74,22.6 0,8.03 -0.18,14.94 -0.56,20.54 -0.37,5.6 -0.93,10.46 -1.68,14.38 -0.75,4.11 -1.68,7.47 -3.17,10.09 -1.5,2.8 -3.37,5.42 -5.79,8.03 -2.43,2.43 -8.78,5.98 -19.43,10.46 -10.65,4.48 -24.09,8.78 -40.53,13.07 -16.44,4.3 -35.11,8.04 -56.22,11.21 -21.11,3.18 -43.71,4.86 -67.8,4.86 -43.52,0 -81.43,-5.42 -114.12,-16.44 -32.5,-10.83 -59.77,-27.46 -81.81,-49.68 -21.85,-22.23 -38.1,-50.43 -48.93,-84.24 -10.65,-33.99 -16.07,-73.77 -16.07,-119.35 0,-43.33 5.61,-82.37 17,-117.29 11.21,-34.74 27.64,-64.26 49.31,-88.54 21.48,-24.28 47.63,-42.77 78.45,-55.47 31,-12.89 65.74,-19.24 104.4,-19.24 40.91,0 75.84,5.98 104.79,18.12 29.13,11.95 52.85,28.76 71.53,50.06 18.49,21.29 32.31,46.69 41.09,75.83 8.78,29.14 13.08,60.89 13.08,95.25l0 21.86zm-133.36 -39.23c1.12,-38.66 -6.73,-69.1 -23.35,-91.14 -16.62,-22.23 -42.21,-33.25 -76.95,-33.25 -17.56,0 -32.87,3.36 -45.76,9.9 -13.08,6.54 -23.91,15.32 -32.5,26.52 -8.59,11.21 -15.13,24.28 -19.61,39.41 -4.67,15.32 -7.29,31.38 -8.03,48.56l206.2 0z"/>
  <path id="_12" class="fil2" d="M13976.86 4488.35c0,9.53 -0.19,17.37 -0.75,23.91 -0.56,6.35 -1.31,11.77 -2.24,16.25 -0.93,4.3 -2.05,7.84 -3.36,10.65 -1.31,2.8 -4.11,6.16 -8.41,10.46 -4.48,4.11 -11.95,9.33 -22.41,15.31 -10.65,5.98 -22.6,11.4 -36.24,16.25 -13.44,4.67 -28.01,8.59 -43.89,11.39 -15.87,2.99 -32.31,4.49 -49.12,4.49 -37.54,0 -70.79,-5.79 -99.74,-17.56 -29.14,-11.58 -53.42,-28.95 -73.22,-51.74 -19.61,-22.78 -34.55,-50.8 -44.45,-83.67 -10.08,-32.88 -15.13,-70.42 -15.13,-112.82 0,-48.93 6.17,-91.33 18.31,-126.82 12.32,-35.67 29.32,-65.18 51.17,-88.53 21.86,-23.35 47.82,-40.72 77.7,-52.11 29.89,-11.39 62.76,-17 98.62,-17 14.57,0 28.76,1.31 42.96,3.93 14.01,2.42 27.08,5.97 39.41,10.27 12.14,4.48 23.16,9.34 32.69,14.75 9.71,5.61 16.62,10.28 20.54,14.39 4.11,3.92 6.91,7.28 8.59,10.08 1.5,2.8 2.8,6.35 3.74,10.65 0.93,4.48 1.68,9.9 2.24,16.25 0.56,6.53 0.75,14.19 0.75,23.34 0,21.3 -1.68,36.24 -5.42,44.83 -3.74,8.59 -8.4,12.89 -14.19,12.89 -6.17,0 -12.89,-2.62 -19.8,-7.66 -6.91,-5.04 -15.13,-10.83 -24.66,-17 -9.34,-6.16 -20.73,-11.95 -33.8,-16.99 -13.08,-5.05 -28.77,-7.66 -47.07,-7.66 -35.86,0 -63.13,13.82 -82.18,41.28 -18.87,27.64 -28.39,67.98 -28.39,121.21 0,26.15 2.42,49.31 7.09,69.49 4.86,19.98 11.77,36.79 21.11,50.24 9.34,13.45 20.92,23.72 34.93,30.44 14.19,6.73 30.44,10.09 49.12,10.09 18.86,0 35.3,-2.8 48.93,-8.59 13.64,-5.61 25.59,-11.96 35.87,-18.87 10.08,-6.91 18.67,-13.26 25.77,-18.86 6.91,-5.79 12.7,-8.59 17.37,-8.59 3.36,0 5.98,0.93 8.22,2.8 2.24,1.87 3.92,5.23 5.23,10.08 1.31,5.05 2.24,11.4 2.99,19.06 0.74,7.65 1.12,17.55 1.12,29.69z"/>
  <path id="_13" class="fil2" d="M14543.36 4566.24c0,3.55 -1.13,6.72 -3.37,9.52 -2.05,2.81 -5.79,5.05 -10.83,6.92 -5.23,1.68 -12.33,3.17 -21.29,4.1 -8.97,0.94 -19.99,1.31 -33.06,1.31 -13.64,0 -24.84,-0.37 -33.81,-1.31 -8.96,-0.93 -16.06,-2.42 -21.29,-4.1 -5.04,-1.87 -8.78,-4.11 -10.83,-6.92 -2.25,-2.8 -3.37,-5.97 -3.37,-9.52l0 -278.48c0,-23.73 -1.68,-42.4 -5.23,-55.85 -3.36,-13.64 -8.4,-25.22 -14.94,-34.74 -6.53,-9.71 -15.13,-17.19 -25.4,-22.6 -10.46,-5.23 -22.41,-7.85 -36.23,-7.85 -17.56,0 -35.12,6.35 -53.05,19.24 -17.74,12.7 -36.42,31.38 -55.66,55.66l0 324.62c0,3.55 -1.12,6.72 -3.36,9.52 -2.05,2.81 -5.79,5.05 -11.21,6.92 -5.23,1.68 -12.32,3.17 -20.92,4.1 -8.77,0.94 -19.98,1.31 -33.43,1.31 -13.45,0 -24.65,-0.37 -33.43,-1.31 -8.59,-0.93 -15.69,-2.42 -20.92,-4.1 -5.42,-1.87 -9.15,-4.11 -11.21,-6.92 -2.24,-2.8 -3.36,-5.97 -3.36,-9.52l0 -488.61c0,-3.55 0.93,-6.72 2.8,-9.52 1.68,-2.81 5.05,-5.05 9.71,-6.91 4.86,-1.69 10.84,-3.18 18.31,-4.11 7.47,-0.94 17,-1.31 28.2,-1.31 11.77,0 21.29,0.37 28.95,1.31 7.66,0.93 13.64,2.42 17.93,4.11 4.11,1.86 7.1,4.1 8.97,6.91 1.87,2.8 2.8,5.97 2.8,9.52l0 56.41c26.9,-29.14 54.35,-50.81 82.37,-65.37 27.83,-14.57 56.97,-21.86 87.22,-21.86 33.25,0 61.27,5.42 84.05,16.44 22.79,10.83 41.09,25.77 55.29,44.64 14.01,18.68 24.09,40.72 30.26,65.93 6.16,25.22 9.34,55.47 9.34,90.77l0 301.65z"/>
  <path id="_14" class="fil2" d="M15171.67 4317.08c0,41.46 -5.42,79.38 -16.44,113.75 -11.01,34.18 -27.45,63.69 -49.86,88.53 -22.23,24.84 -50.06,43.89 -83.68,57.53 -33.62,13.44 -72.84,20.17 -117.67,20.17 -43.52,0 -81.25,-5.98 -113.37,-18.12 -32.13,-11.95 -58.84,-29.51 -79.94,-52.48 -21.11,-22.98 -36.8,-51.18 -47.07,-84.8 -10.27,-33.43 -15.32,-71.72 -15.32,-114.87 0,-41.46 5.61,-79.57 16.63,-113.93 11.2,-34.56 27.83,-64.07 50.24,-88.72 22.23,-24.47 50.06,-43.52 83.49,-57.15 33.24,-13.45 72.47,-20.18 117.29,-20.18 43.9,0 81.81,5.98 113.94,17.75 32.12,11.95 58.65,29.32 79.56,52.29 21.11,22.98 36.61,51.18 46.89,84.8 10.27,33.43 15.31,71.91 15.31,115.43zm-141.2 5.42c0,-24.1 -1.87,-46.33 -5.79,-66.5 -3.92,-20.36 -10.27,-37.91 -19.61,-52.85 -9.16,-14.95 -21.3,-26.71 -36.42,-35.12 -15.32,-8.4 -34.37,-12.51 -57.53,-12.51 -20.55,0 -38.48,3.73 -53.98,11.2 -15.32,7.47 -28.02,18.49 -37.92,32.88 -9.9,14.38 -17.37,31.75 -22.22,51.92 -5.05,20.36 -7.47,43.33 -7.47,69.29 0,24.1 2.05,46.33 5.97,66.5 4.11,20.36 10.65,37.91 19.61,52.85 8.97,14.95 21.11,26.53 36.61,34.75 15.32,8.21 34.37,12.32 57.16,12.32 20.92,0 39.03,-3.73 54.54,-11.2 15.31,-7.48 28.01,-18.31 37.91,-32.5 9.9,-14.38 17.18,-31.57 22.04,-51.74 4.67,-20.36 7.1,-43.33 7.1,-69.29z"/>
  <path id="_15" class="fil2" d="M15418.96 4566.24c0,3.55 -1.12,6.72 -3.36,9.52 -2.05,2.81 -5.79,5.05 -11.21,6.92 -5.23,1.68 -12.32,3.17 -20.92,4.1 -8.77,0.94 -19.98,1.31 -33.43,1.31 -13.45,0 -24.65,-0.37 -33.43,-1.31 -8.59,-0.93 -15.69,-2.42 -20.92,-4.1 -5.42,-1.87 -9.15,-4.11 -11.21,-6.92 -2.24,-2.8 -3.36,-5.97 -3.36,-9.52l0 -720.02c0,-3.74 1.12,-6.92 3.36,-9.9 2.06,-2.81 5.79,-5.42 11.21,-7.29 5.23,-2.05 12.33,-3.55 20.92,-4.67 8.78,-1.12 19.98,-1.68 33.43,-1.68 13.45,0 24.66,0.56 33.43,1.68 8.6,1.12 15.69,2.62 20.92,4.67 5.42,1.87 9.16,4.48 11.21,7.29 2.24,2.98 3.36,6.16 3.36,9.9l0 720.02z"/>
  <path id="_16" class="fil2" d="M16049.52 4317.08c0,41.46 -5.42,79.38 -16.44,113.75 -11.01,34.18 -27.45,63.69 -49.86,88.53 -22.23,24.84 -50.06,43.89 -83.68,57.53 -33.62,13.44 -72.84,20.17 -117.67,20.17 -43.52,0 -81.25,-5.98 -113.37,-18.12 -32.13,-11.95 -58.84,-29.51 -79.94,-52.48 -21.11,-22.98 -36.8,-51.18 -47.07,-84.8 -10.27,-33.43 -15.32,-71.72 -15.32,-114.87 0,-41.46 5.61,-79.57 16.63,-113.93 11.2,-34.56 27.83,-64.07 50.24,-88.72 22.23,-24.47 50.06,-43.52 83.49,-57.15 33.24,-13.45 72.47,-20.18 117.29,-20.18 43.9,0 81.81,5.98 113.94,17.75 32.12,11.95 58.65,29.32 79.56,52.29 21.11,22.98 36.61,51.18 46.89,84.8 10.27,33.43 15.31,71.91 15.31,115.43zm-141.2 5.42c0,-24.1 -1.87,-46.33 -5.79,-66.5 -3.92,-20.36 -10.27,-37.91 -19.61,-52.85 -9.16,-14.95 -21.3,-26.71 -36.42,-35.12 -15.32,-8.4 -34.37,-12.51 -57.53,-12.51 -20.55,0 -38.48,3.73 -53.98,11.2 -15.32,7.47 -28.02,18.49 -37.92,32.88 -9.9,14.38 -17.37,31.75 -22.22,51.92 -5.05,20.36 -7.47,43.33 -7.47,69.29 0,24.1 2.05,46.33 5.97,66.5 4.11,20.36 10.65,37.91 19.61,52.85 8.97,14.95 21.11,26.53 36.61,34.75 15.32,8.21 34.37,12.32 57.16,12.32 20.92,0 39.03,-3.73 54.54,-11.2 15.31,-7.48 28.01,-18.31 37.91,-32.5 9.9,-14.38 17.18,-31.57 22.04,-51.74 4.67,-20.36 7.1,-43.33 7.1,-69.29z"/>
  <path id="_17" class="fil2" d="M16598.46 4111.81c0,17.56 -2.06,30.45 -6.17,38.85 -3.92,8.41 -8.78,12.7 -14.75,12.7l-57.34 0c8.03,8.78 13.63,18.68 17.18,29.7 3.55,11.21 5.23,22.79 5.23,34.74 0,28.39 -4.86,53.6 -14.19,75.64 -9.53,22.04 -23.17,40.72 -40.91,55.85 -17.56,15.13 -39.04,26.52 -63.88,34.37 -25.02,7.84 -52.85,11.76 -83.49,11.76 -15.68,0 -30.63,-1.86 -44.82,-5.79 -14.38,-3.73 -25.22,-8.21 -32.87,-13.26 -4.49,4.67 -8.41,10.28 -11.77,17 -3.55,6.54 -5.23,13.82 -5.23,21.85 0,10.65 4.67,19.43 14.01,26.15 9.15,6.73 22.22,10.46 39.03,11.21l118.79 4.29c27.65,1.12 52.49,5.05 74.15,11.77 21.67,6.72 39.97,16.25 54.73,28.58 14.75,12.14 26.15,26.89 33.99,43.89 7.85,17.18 11.77,36.8 11.77,58.65 0,24.09 -5.42,46.69 -15.88,67.98 -10.64,21.48 -26.52,39.97 -47.62,55.66 -21.3,15.69 -47.82,28.02 -79.76,37.17 -31.94,9.15 -69.11,13.64 -111.88,13.64 -41.46,0 -76.95,-3.36 -106.46,-9.9 -29.32,-6.54 -53.42,-15.69 -72.1,-27.27 -18.86,-11.77 -32.5,-25.59 -41.09,-41.84 -8.59,-16.25 -12.88,-33.99 -12.88,-53.42 0,-11.95 1.49,-23.53 4.66,-34.36 3.18,-11.02 7.66,-21.48 13.64,-31.57 5.98,-9.9 13.45,-19.61 22.23,-28.58 8.77,-9.15 18.67,-17.93 30.07,-26.33 -15.69,-8.41 -27.83,-19.8 -36.42,-34.18 -8.6,-14.38 -12.89,-30.26 -12.89,-47.44 0,-21.48 5.04,-41.09 14.75,-58.84 9.9,-17.74 22.79,-33.62 38.48,-48 -12.89,-12.7 -22.97,-28.02 -30.63,-45.76 -7.66,-17.93 -11.58,-40.16 -11.58,-66.68 0,-28.58 5.04,-53.98 15.13,-76.39 9.9,-22.41 23.9,-41.28 41.83,-56.78 17.75,-15.5 39.23,-27.27 63.88,-35.49 24.84,-8.22 52.3,-12.33 82.18,-12.33 15.32,0 30.07,0.94 44.08,2.62 14.01,1.87 27.09,4.3 39.04,7.47l154.84 0c6.16,0 11.2,4.11 15.13,12.14 3.73,8.03 5.79,21.48 5.79,40.53zm-176.88 115.62c0,-26.15 -7.29,-46.7 -21.85,-61.27 -14.57,-14.57 -35.12,-21.85 -61.83,-21.85 -13.44,0 -25.4,2.24 -35.48,6.91 -10.28,4.48 -18.68,10.65 -25.59,18.49 -6.73,7.85 -11.77,17 -14.95,27.46 -3.36,10.46 -4.85,21.29 -4.85,32.5 0,24.84 7.28,44.45 21.85,58.83 14.57,14.38 34.74,21.67 60.7,21.67 13.83,0 25.97,-2.24 36.05,-6.54 10.27,-4.48 18.68,-10.46 25.4,-18.12 6.91,-7.65 11.96,-16.43 15.51,-26.52 3.36,-10.08 5.04,-20.54 5.04,-31.56zm32.31 389.43c0,-16.25 -6.54,-28.95 -19.61,-37.55 -13.26,-8.78 -31.19,-13.63 -54.17,-14.19l-98.05 -2.8c-9.34,6.91 -17,13.63 -22.6,19.98 -5.79,6.35 -10.28,12.33 -13.82,18.31 -3.37,5.79 -5.61,11.39 -6.73,16.81 -1.12,5.41 -1.68,11.2 -1.68,16.99 0,18.12 9.15,31.94 27.64,41.47 18.49,9.52 44.46,14.19 77.89,14.19 20.92,0 38.48,-2.05 52.67,-6.35 14.2,-4.11 25.59,-9.71 34.37,-16.62 8.78,-6.91 14.94,-14.57 18.67,-23.16 3.55,-8.59 5.42,-17.56 5.42,-27.08z"/>
  <path id="_18" class="fil2" d="M16828.19 4566.24c0,3.55 -1.12,6.72 -3.36,9.52 -2.05,2.81 -5.79,5.05 -11.21,6.92 -5.23,1.68 -12.32,3.17 -20.92,4.1 -8.77,0.94 -19.98,1.31 -33.43,1.31 -13.45,0 -24.65,-0.37 -33.43,-1.31 -8.59,-0.93 -15.69,-2.42 -20.92,-4.1 -5.42,-1.87 -9.15,-4.11 -11.21,-6.92 -2.24,-2.8 -3.36,-5.97 -3.36,-9.52l0 -487.49c0,-3.55 1.12,-6.72 3.36,-9.52 2.06,-2.81 5.79,-5.23 11.21,-7.1 5.23,-2.06 12.33,-3.55 20.92,-4.67 8.78,-1.12 19.98,-1.68 33.43,-1.68 13.45,0 24.66,0.56 33.43,1.68 8.6,1.12 15.69,2.61 20.92,4.67 5.42,1.87 9.16,4.29 11.21,7.1 2.24,2.8 3.36,5.97 3.36,9.52l0 487.49zm11.21 -654.47c0,27.83 -5.6,46.88 -17,57.53 -11.39,10.65 -32.31,15.88 -63.13,15.88 -31,0 -52.11,-5.05 -62.76,-15.32 -10.83,-10.27 -16.25,-28.76 -16.25,-55.28 0,-27.83 5.61,-47.07 16.81,-57.91 11.02,-10.64 32.13,-16.06 63.32,-16.06 30.63,0 51.55,5.23 62.57,15.69 11.02,10.27 16.44,28.76 16.44,55.47z"/>
  <path id="_19" class="fil2" d="M17381.43 4567.92c0,5.04 -1.87,8.97 -5.42,11.95 -3.74,2.99 -9.53,5.05 -17.37,6.35 -7.85,1.31 -19.43,1.87 -34.93,1.87 -16.43,0 -28.39,-0.56 -35.86,-1.87 -7.47,-1.3 -12.89,-3.36 -15.88,-6.35 -3.17,-2.98 -4.66,-6.91 -4.66,-11.95l0 -38.85c-20.18,21.48 -42.96,38.1 -68.74,50.06 -25.59,11.95 -54.16,17.93 -85.54,17.93 -25.78,0 -49.68,-3.36 -71.35,-10.09 -21.67,-6.72 -40.34,-16.81 -56.22,-30.07 -15.88,-13.45 -28.2,-29.88 -36.98,-49.5 -8.78,-19.79 -13.08,-42.77 -13.08,-68.92 0,-28.57 5.61,-53.23 16.63,-74.15 11.2,-21.1 27.83,-38.29 49.87,-52.11 22.04,-13.63 49.3,-23.72 82.18,-30.25 32.68,-6.54 70.79,-9.9 114.12,-9.9l47.63 0 0 -29.51c0,-15.32 -1.5,-28.77 -4.67,-40.35 -2.99,-11.39 -8.22,-21.1 -15.32,-28.76 -7.1,-7.66 -16.44,-13.26 -28.39,-17 -11.77,-3.55 -26.52,-5.42 -43.89,-5.42 -22.98,0 -43.52,2.62 -61.45,7.66 -18.12,5.05 -33.99,10.84 -47.82,17 -13.82,6.16 -25.4,11.95 -34.74,17 -9.34,5.04 -16.81,7.65 -22.6,7.65 -4.11,0 -7.65,-1.3 -10.64,-3.73 -3.18,-2.62 -5.79,-6.35 -7.66,-11.02 -2.06,-4.67 -3.55,-10.65 -4.67,-17.56 -1.12,-6.91 -1.68,-14.57 -1.68,-22.79 0,-11.39 0.93,-20.35 2.8,-26.89 1.68,-6.54 5.23,-12.33 10.27,-17.75 5.23,-5.22 14.01,-11.01 26.9,-17.37 12.7,-6.35 27.64,-12.32 44.83,-17.74 17.18,-5.6 35.86,-10.09 56.03,-13.45 20.36,-3.55 41.28,-5.23 62.76,-5.23 38.28,0 70.97,3.74 98.24,11.21 27.08,7.47 49.5,19.05 66.87,34.55 17.55,15.51 30.44,35.49 38.47,59.96 8.03,24.28 11.96,53.42 11.96,86.85l0 328.54zm-135.6 -209.56l-52.49 0c-22.22,0 -41.09,1.68 -56.78,4.85 -15.69,3.36 -28.39,8.22 -38.29,14.95 -9.9,6.53 -16.99,14.38 -21.48,23.72 -4.67,9.33 -6.91,19.98 -6.91,31.93 0,20.55 6.54,36.61 19.43,48.19 12.88,11.77 30.82,17.56 53.79,17.56 19.24,0 36.98,-4.86 53.23,-14.76 16.25,-9.89 32.69,-24.28 49.5,-43.33l0 -83.11z"/>
  <path id="_20" class="fil2" d="M17862.93 4428.02c0,27.65 -5.23,52.12 -15.69,73.41 -10.27,21.1 -25.02,38.66 -44.08,53.04 -19.05,14.2 -41.46,24.84 -67.42,31.94 -25.96,7.1 -53.98,10.65 -84.24,10.65 -18.3,0 -35.86,-1.31 -52.48,-4.11 -16.63,-2.8 -31.38,-6.35 -44.64,-10.65 -13.08,-4.11 -24.1,-8.4 -32.87,-12.89 -8.78,-4.48 -15.13,-8.59 -19.06,-12.51 -4.1,-3.92 -7.28,-9.9 -9.33,-18.12 -2.25,-8.03 -3.37,-20.17 -3.37,-36.23 0,-10.46 0.38,-18.87 1.12,-25.22 0.75,-6.35 1.87,-11.58 3.18,-15.31 1.49,-3.74 3.36,-6.35 5.6,-7.66 2.06,-1.31 4.86,-1.87 8.22,-1.87 3.92,0 9.9,2.24 17.74,6.91 7.85,4.67 17.56,9.72 29.33,15.13 11.58,5.61 25.21,10.83 40.72,15.5 15.5,4.86 33.24,7.29 52.85,7.29 12.33,0 23.54,-1.31 33.06,-3.92 9.72,-2.43 18.12,-6.17 25.22,-11.02 7.1,-4.67 12.51,-10.65 16.25,-18.12 3.55,-7.29 5.41,-15.69 5.41,-25.22 0,-11.02 -3.36,-20.35 -10.08,-28.2 -6.91,-7.84 -15.88,-14.75 -26.9,-20.54 -11.2,-5.79 -23.9,-11.21 -37.91,-16.44 -14.01,-5.04 -28.58,-10.65 -43.34,-17 -14.75,-6.16 -29.32,-13.26 -43.33,-21.29 -14.01,-8.03 -26.71,-17.74 -37.91,-29.51 -11.02,-11.58 -19.99,-25.78 -26.9,-42.03 -6.72,-16.43 -10.08,-36.23 -10.08,-59.2 0,-23.35 4.66,-44.64 13.82,-64.25 9.15,-19.43 22.22,-36.24 39.41,-50.06 17.37,-13.82 38.29,-24.66 62.94,-32.31 24.84,-7.66 52.48,-11.4 83.3,-11.4 15.51,0 30.26,1.12 44.83,3.18 14.38,2.24 27.64,5.04 39.22,8.22 11.77,3.36 21.67,6.72 29.7,10.64 8.03,3.74 13.82,7.1 17.37,9.72 3.55,2.8 5.98,5.41 7.47,8.21 1.31,2.81 2.43,5.98 3.18,9.9 0.74,3.74 1.49,8.59 2.05,14.2 0.56,5.6 0.75,12.7 0.75,21.1 0,9.9 -0.19,17.93 -0.75,24.1 -0.56,6.16 -1.49,11.2 -2.8,14.75 -1.31,3.74 -2.99,6.17 -5.23,7.47 -2.24,1.31 -4.86,1.87 -7.66,1.87 -3.36,0 -8.59,-1.87 -15.5,-5.79 -6.91,-3.73 -15.69,-7.84 -26.15,-12.14 -10.46,-4.29 -22.6,-8.4 -36.23,-12.14 -13.83,-3.92 -29.52,-5.79 -47.07,-5.79 -12.52,0 -23.35,1.31 -32.5,3.74 -9.15,2.61 -16.62,6.35 -22.6,11.02 -5.79,4.67 -10.27,10.27 -13.08,16.62 -2.98,6.35 -4.48,13.26 -4.48,20.36 0,11.39 3.55,20.92 10.46,28.57 6.91,7.66 16.06,14.39 27.46,20.18 11.2,5.79 24.28,11.39 38.66,16.43 14.38,5.05 29.14,10.65 43.89,16.63 14.76,5.97 29.51,13.07 43.9,21.1 14.38,8.03 27.45,17.93 38.66,29.51 11.39,11.77 20.54,25.59 27.45,41.84 6.91,16.25 10.46,35.49 10.46,57.71z"/>
  <path id="_21" class="fil2" d="M6091.06 5845.67c0,9.15 -0.18,16.99 -0.74,23.34 -0.56,6.35 -1.5,11.96 -2.62,16.44 -0.93,4.67 -2.43,8.59 -4.29,11.95 -1.87,3.18 -4.67,6.91 -8.78,11.02 -3.92,4.11 -11.77,9.53 -23.16,16.07 -11.58,6.35 -25.59,12.7 -42.21,18.67 -16.63,5.79 -35.49,10.84 -56.78,14.76 -21.3,3.92 -44.46,5.98 -69.3,5.98 -48.37,0 -92.08,-7.47 -131.12,-22.42 -39.03,-14.94 -72.28,-37.35 -99.55,-67.05 -27.45,-29.7 -48.37,-66.68 -62.94,-111.32 -14.57,-44.45 -21.85,-96.19 -21.85,-155.21 0,-60.14 8.03,-113.56 24.09,-160.25 16.06,-46.7 38.48,-85.92 67.24,-117.67 28.76,-31.76 63.32,-55.66 103.66,-72.1 40.16,-16.44 84.61,-24.65 133.17,-24.65 19.61,0 38.48,1.68 56.78,5.04 18.31,3.17 35.12,7.47 50.62,12.89 15.5,5.23 29.32,11.39 41.84,18.3 12.32,7.1 21.1,13.08 25.96,17.93 4.86,5.04 8.22,9.15 10.08,12.33 1.87,3.36 3.37,7.47 4.3,12.51 1.12,5.23 2.06,11.21 2.62,18.12 0.56,6.91 0.74,15.32 0.74,25.59 0,10.83 -0.37,20.17 -1.12,27.83 -0.75,7.66 -2.05,13.82 -3.73,18.49 -1.87,4.67 -4.11,8.22 -6.54,10.27 -2.62,2.24 -5.6,3.36 -8.78,3.36 -5.42,0 -12.33,-3.17 -20.73,-9.52 -8.41,-6.35 -19.24,-13.45 -32.5,-21.29 -13.26,-7.85 -29.14,-14.95 -47.63,-21.3 -18.3,-6.35 -40.16,-9.52 -65.74,-9.52 -28.02,0 -53.05,5.79 -75.09,17.18 -22.04,11.58 -40.72,27.83 -56.22,49.12 -15.5,21.48 -27.27,47.26 -35.3,77.52 -8.03,30.07 -11.95,64.25 -11.95,102.16 0,41.47 4.29,77.51 12.89,107.96 8.59,30.26 20.73,55.47 36.6,75.08 15.69,19.62 34.93,34.37 57.34,43.9 22.42,9.71 47.63,14.56 75.65,14.56 25.4,0 47.44,-2.98 66.12,-8.96 18.49,-5.98 34.36,-12.7 47.63,-19.8 13.44,-7.28 24.28,-13.82 32.87,-19.61 8.59,-5.79 15.13,-8.78 19.98,-8.78 3.55,0 6.54,0.75 8.59,2.24 2.25,1.5 4.11,4.3 5.61,8.78 1.31,4.3 2.43,10.46 3.17,18.3 0.75,8.04 1.12,18.5 1.12,31.76z"/>
  <path id="_22" class="fil2" d="M6679.78 5685.04c0,41.46 -5.42,79.38 -16.44,113.75 -11.01,34.18 -27.45,63.69 -49.86,88.53 -22.23,24.84 -50.06,43.89 -83.68,57.53 -33.62,13.44 -72.84,20.17 -117.67,20.17 -43.52,0 -81.25,-5.98 -113.37,-18.12 -32.13,-11.95 -58.84,-29.51 -79.94,-52.48 -21.11,-22.98 -36.8,-51.18 -47.07,-84.8 -10.27,-33.43 -15.32,-71.72 -15.32,-114.87 0,-41.46 5.61,-79.57 16.63,-113.93 11.2,-34.56 27.83,-64.07 50.24,-88.72 22.23,-24.47 50.06,-43.52 83.49,-57.15 33.24,-13.45 72.47,-20.18 117.29,-20.18 43.9,0 81.81,5.98 113.94,17.75 32.12,11.95 58.65,29.32 79.56,52.29 21.11,22.98 36.61,51.18 46.89,84.8 10.27,33.43 15.31,71.91 15.31,115.43zm-141.2 5.42c0,-24.1 -1.87,-46.33 -5.79,-66.5 -3.92,-20.36 -10.27,-37.91 -19.61,-52.85 -9.16,-14.95 -21.3,-26.71 -36.42,-35.12 -15.32,-8.4 -34.37,-12.51 -57.53,-12.51 -20.55,0 -38.48,3.73 -53.98,11.2 -15.32,7.47 -28.02,18.49 -37.92,32.88 -9.9,14.38 -17.37,31.75 -22.22,51.92 -5.05,20.36 -7.47,43.33 -7.47,69.29 0,24.1 2.05,46.33 5.97,66.5 4.11,20.36 10.65,37.91 19.61,52.85 8.97,14.95 21.11,26.53 36.61,34.75 15.32,8.21 34.37,12.32 57.16,12.32 20.92,0 39.03,-3.73 54.54,-11.2 15.31,-7.48 28.01,-18.31 37.91,-32.5 9.9,-14.38 17.18,-31.57 22.04,-51.74 4.67,-20.36 7.1,-43.33 7.1,-69.29z"/>
  <path id="_23" class="fil2" d="M7103.02 5491.16c0,13.08 -0.38,23.91 -1.12,32.32 -0.75,8.4 -1.87,14.94 -3.18,19.61 -1.49,4.67 -3.55,8.03 -5.79,9.9 -2.43,1.87 -5.42,2.61 -9.15,2.61 -2.8,0 -6.17,-0.56 -9.9,-1.86 -3.55,-1.31 -7.66,-2.62 -12.33,-4.11 -4.48,-1.5 -9.52,-2.81 -14.94,-4.11 -5.6,-1.31 -11.58,-1.87 -18.12,-1.87 -7.66,0 -15.31,1.49 -22.97,4.67 -7.66,3.17 -15.69,7.84 -23.91,14.57 -8.22,6.53 -16.81,15.31 -25.77,26.15 -8.97,11.02 -18.5,24.46 -28.77,40.53l0 304.63c0,3.55 -1.12,6.72 -3.36,9.52 -2.05,2.81 -5.79,5.05 -11.21,6.92 -5.23,1.68 -12.32,3.17 -20.92,4.1 -8.77,0.94 -19.98,1.31 -33.43,1.31 -13.45,0 -24.65,-0.37 -33.43,-1.31 -8.59,-0.93 -15.69,-2.42 -20.92,-4.1 -5.42,-1.87 -9.15,-4.11 -11.21,-6.92 -2.24,-2.8 -3.36,-5.97 -3.36,-9.52l0 -488.61c0,-3.55 0.93,-6.72 2.8,-9.52 1.68,-2.81 5.05,-5.05 9.71,-6.91 4.86,-1.69 10.84,-3.18 18.31,-4.11 7.47,-0.94 17,-1.31 28.2,-1.31 11.77,0 21.29,0.37 28.95,1.31 7.66,0.93 13.64,2.42 17.93,4.11 4.11,1.86 7.1,4.1 8.97,6.91 1.87,2.8 2.8,5.97 2.8,9.52l0 60.89c12.7,-18.3 24.84,-33.25 36.05,-45.01 11.39,-11.77 22.22,-21.3 32.31,-28.21 10.27,-6.91 20.55,-11.76 30.82,-14.38 10.08,-2.8 20.36,-4.11 30.63,-4.11 4.67,0 9.9,0.19 15.32,0.75 5.41,0.56 11.2,1.49 16.99,2.8 5.79,1.31 11.02,2.8 15.32,4.3 4.48,1.68 7.66,3.36 9.71,5.23 1.87,1.87 3.36,3.92 4.3,5.97 0.93,2.25 1.68,5.23 2.42,9.16 0.75,3.73 1.31,9.52 1.69,17.18 0.37,7.66 0.56,17.93 0.56,31z"/>
  <path id="_24" class="fil2" d="M7678.47 5682.8c0,43.33 -4.67,82.55 -14.01,117.29 -9.15,34.74 -22.79,64.44 -40.72,88.91 -17.74,24.47 -39.97,43.14 -66.49,56.41 -26.71,13.07 -57.15,19.61 -91.33,19.61 -14.2,0 -27.27,-1.31 -39.04,-4.11 -11.95,-2.8 -23.35,-6.91 -34.55,-12.52 -11.02,-5.79 -22.04,-12.7 -33.06,-21.1 -10.83,-8.41 -22.23,-18.31 -33.81,-29.51l0 229.73c0,3.74 -1.12,6.91 -3.36,9.9 -2.05,2.8 -5.79,5.42 -11.21,7.29 -5.23,2.05 -12.32,3.55 -20.92,4.67 -8.77,1.12 -19.98,1.68 -33.43,1.68 -13.45,0 -24.65,-0.56 -33.43,-1.68 -8.59,-1.12 -15.69,-2.62 -20.92,-4.67 -5.42,-1.87 -9.15,-4.49 -11.21,-7.29 -2.24,-2.99 -3.36,-6.16 -3.36,-9.9l0 -681.92c0,-3.55 0.93,-6.72 2.8,-9.52 1.68,-2.81 4.86,-5.05 9.53,-6.91 4.48,-1.69 10.46,-3.18 18.12,-4.11 7.47,-0.94 16.81,-1.31 28.01,-1.31 11.02,0 20.17,0.37 27.64,1.31 7.48,0.93 13.64,2.42 18.12,4.11 4.48,1.86 7.66,4.1 9.53,6.91 1.87,2.8 2.8,5.97 2.8,9.71l0 57.53c14.19,-14.57 28.02,-27.46 41.84,-38.48 13.63,-11.21 27.45,-20.36 41.65,-27.83 14.38,-7.47 28.95,-13.07 44.08,-16.81 15.13,-3.55 31.19,-5.42 48.37,-5.42 35.68,0 66.12,7.1 91.34,21.11 25.03,14.01 45.57,33.25 61.45,57.71 15.87,24.28 27.45,52.86 34.74,85.36 7.28,32.31 10.83,67.05 10.83,103.85zm-143.44 9.52c0,-20.73 -1.5,-40.71 -4.67,-59.77 -2.99,-19.05 -8.41,-36.04 -15.88,-50.99 -7.47,-14.94 -17.18,-26.89 -29.32,-35.67 -12.33,-8.96 -27.46,-13.45 -45.58,-13.45 -9.15,0 -18.11,1.31 -27.08,4.11 -8.97,2.8 -17.93,7.1 -27.27,13.45 -9.34,6.16 -18.86,14.19 -28.58,23.91 -9.9,9.9 -20.35,22.04 -31.19,36.61l0 160.81c19.24,24.28 37.73,42.96 55.1,56.22 17.56,13.26 35.68,19.8 54.54,19.8 17.93,0 33.06,-4.48 45.57,-13.64 12.52,-9.15 22.98,-21.1 30.82,-35.67 8.03,-14.76 14.01,-31.38 17.75,-50.06 3.92,-18.49 5.79,-37.17 5.79,-55.66z"/>
  <path id="_25" class="fil2" d="M8282.13 5685.04c0,41.46 -5.42,79.38 -16.44,113.75 -11.01,34.18 -27.45,63.69 -49.86,88.53 -22.23,24.84 -50.06,43.89 -83.68,57.53 -33.62,13.44 -72.84,20.17 -117.67,20.17 -43.52,0 -81.25,-5.98 -113.37,-18.12 -32.13,-11.95 -58.84,-29.51 -79.94,-52.48 -21.11,-22.98 -36.8,-51.18 -47.07,-84.8 -10.27,-33.43 -15.32,-71.72 -15.32,-114.87 0,-41.46 5.61,-79.57 16.63,-113.93 11.2,-34.56 27.83,-64.07 50.24,-88.72 22.23,-24.47 50.06,-43.52 83.49,-57.15 33.24,-13.45 72.47,-20.18 117.29,-20.18 43.9,0 81.81,5.98 113.94,17.75 32.12,11.95 58.65,29.32 79.56,52.29 21.11,22.98 36.61,51.18 46.89,84.8 10.27,33.43 15.31,71.91 15.31,115.43zm-141.2 5.42c0,-24.1 -1.87,-46.33 -5.79,-66.5 -3.92,-20.36 -10.27,-37.91 -19.61,-52.85 -9.16,-14.95 -21.3,-26.71 -36.42,-35.12 -15.32,-8.4 -34.37,-12.51 -57.53,-12.51 -20.55,0 -38.48,3.73 -53.98,11.2 -15.32,7.47 -28.02,18.49 -37.92,32.88 -9.9,14.38 -17.37,31.75 -22.22,51.92 -5.05,20.36 -7.47,43.33 -7.47,69.29 0,24.1 2.05,46.33 5.97,66.5 4.11,20.36 10.65,37.91 19.61,52.85 8.97,14.95 21.11,26.53 36.61,34.75 15.32,8.21 34.37,12.32 57.16,12.32 20.92,0 39.03,-3.73 54.54,-11.2 15.31,-7.48 28.01,-18.31 37.91,-32.5 9.9,-14.38 17.18,-31.57 22.04,-51.74 4.67,-20.36 7.1,-43.33 7.1,-69.29z"/>
  <path id="_26" class="fil2" d="M8705.37 5491.16c0,13.08 -0.38,23.91 -1.12,32.32 -0.75,8.4 -1.87,14.94 -3.18,19.61 -1.49,4.67 -3.55,8.03 -5.79,9.9 -2.43,1.87 -5.42,2.61 -9.15,2.61 -2.8,0 -6.17,-0.56 -9.9,-1.86 -3.55,-1.31 -7.66,-2.62 -12.33,-4.11 -4.48,-1.5 -9.52,-2.81 -14.94,-4.11 -5.6,-1.31 -11.58,-1.87 -18.12,-1.87 -7.66,0 -15.31,1.49 -22.97,4.67 -7.66,3.17 -15.69,7.84 -23.91,14.57 -8.22,6.53 -16.81,15.31 -25.77,26.15 -8.97,11.02 -18.5,24.46 -28.77,40.53l0 304.63c0,3.55 -1.12,6.72 -3.36,9.52 -2.05,2.81 -5.79,5.05 -11.21,6.92 -5.23,1.68 -12.32,3.17 -20.92,4.1 -8.77,0.94 -19.98,1.31 -33.43,1.31 -13.45,0 -24.65,-0.37 -33.43,-1.31 -8.59,-0.93 -15.69,-2.42 -20.92,-4.1 -5.42,-1.87 -9.15,-4.11 -11.21,-6.92 -2.24,-2.8 -3.36,-5.97 -3.36,-9.52l0 -488.61c0,-3.55 0.93,-6.72 2.8,-9.52 1.68,-2.81 5.05,-5.05 9.71,-6.91 4.86,-1.69 10.84,-3.18 18.31,-4.11 7.47,-0.94 17,-1.31 28.2,-1.31 11.77,0 21.29,0.37 28.95,1.31 7.66,0.93 13.64,2.42 17.93,4.11 4.11,1.86 7.1,4.1 8.97,6.91 1.87,2.8 2.8,5.97 2.8,9.52l0 60.89c12.7,-18.3 24.84,-33.25 36.05,-45.01 11.39,-11.77 22.22,-21.3 32.31,-28.21 10.27,-6.91 20.55,-11.76 30.82,-14.38 10.08,-2.8 20.36,-4.11 30.63,-4.11 4.67,0 9.9,0.19 15.32,0.75 5.41,0.56 11.2,1.49 16.99,2.8 5.79,1.31 11.02,2.8 15.32,4.3 4.48,1.68 7.66,3.36 9.71,5.23 1.87,1.87 3.36,3.92 4.3,5.97 0.93,2.25 1.68,5.23 2.42,9.16 0.75,3.73 1.31,9.52 1.69,17.18 0.37,7.66 0.56,17.93 0.56,31z"/>
  <path id="_27" class="fil2" d="M9181.09 5935.88c0,5.04 -1.87,8.97 -5.42,11.95 -3.74,2.99 -9.53,5.05 -17.37,6.35 -7.85,1.31 -19.43,1.87 -34.93,1.87 -16.43,0 -28.39,-0.56 -35.86,-1.87 -7.47,-1.3 -12.89,-3.36 -15.88,-6.35 -3.17,-2.98 -4.66,-6.91 -4.66,-11.95l0 -38.85c-20.18,21.48 -42.96,38.1 -68.74,50.06 -25.59,11.95 -54.16,17.93 -85.54,17.93 -25.78,0 -49.68,-3.36 -71.35,-10.09 -21.67,-6.72 -40.34,-16.81 -56.22,-30.07 -15.88,-13.45 -28.2,-29.88 -36.98,-49.5 -8.78,-19.79 -13.08,-42.77 -13.08,-68.92 0,-28.57 5.61,-53.23 16.63,-74.15 11.2,-21.1 27.83,-38.29 49.87,-52.11 22.04,-13.63 49.3,-23.72 82.18,-30.25 32.68,-6.54 70.79,-9.9 114.12,-9.9l47.63 0 0 -29.51c0,-15.32 -1.5,-28.77 -4.67,-40.35 -2.99,-11.39 -8.22,-21.1 -15.32,-28.76 -7.1,-7.66 -16.44,-13.26 -28.39,-17 -11.77,-3.55 -26.52,-5.42 -43.89,-5.42 -22.98,0 -43.52,2.62 -61.45,7.66 -18.12,5.05 -33.99,10.84 -47.82,17 -13.82,6.16 -25.4,11.95 -34.74,17 -9.34,5.04 -16.81,7.65 -22.6,7.65 -4.11,0 -7.65,-1.3 -10.64,-3.73 -3.18,-2.62 -5.79,-6.35 -7.66,-11.02 -2.06,-4.67 -3.55,-10.65 -4.67,-17.56 -1.12,-6.91 -1.68,-14.57 -1.68,-22.79 0,-11.39 0.93,-20.35 2.8,-26.89 1.68,-6.54 5.23,-12.33 10.27,-17.75 5.23,-5.22 14.01,-11.01 26.9,-17.37 12.7,-6.35 27.64,-12.32 44.83,-17.74 17.18,-5.6 35.86,-10.09 56.03,-13.45 20.36,-3.55 41.28,-5.23 62.76,-5.23 38.28,0 70.97,3.74 98.24,11.21 27.08,7.47 49.5,19.05 66.87,34.55 17.55,15.51 30.44,35.49 38.47,59.96 8.03,24.28 11.96,53.42 11.96,86.85l0 328.54zm-135.6 -209.56l-52.49 0c-22.22,0 -41.09,1.68 -56.78,4.85 -15.69,3.36 -28.39,8.22 -38.29,14.95 -9.9,6.53 -16.99,14.38 -21.48,23.72 -4.67,9.33 -6.91,19.98 -6.91,31.93 0,20.55 6.54,36.61 19.43,48.19 12.88,11.77 30.82,17.56 53.79,17.56 19.24,0 36.98,-4.86 53.23,-14.76 16.25,-9.89 32.69,-24.28 49.5,-43.33l0 -83.11z"/>
  <path id="_28" class="fil2" d="M9784.93 5427.1c15.13,0 25.96,3.36 31.94,9.9 5.98,6.54 8.97,16.06 8.97,28.39l0 468.81c0,3.55 -1.12,6.72 -3.37,9.52 -2.05,2.81 -5.79,5.05 -10.83,6.92 -5.23,1.68 -12.33,3.17 -21.29,4.1 -8.97,0.94 -19.99,1.31 -33.06,1.31 -13.64,0 -24.84,-0.37 -33.81,-1.31 -8.96,-0.93 -16.06,-2.42 -21.29,-4.1 -5.04,-1.87 -8.78,-4.11 -10.83,-6.92 -2.24,-2.8 -3.37,-5.97 -3.37,-9.52l0 -395.03 -218.52 0 0 229.36c0,26.71 4.11,46.69 12.51,59.95 8.4,13.26 23.35,19.99 44.83,19.99 7.28,0 13.82,-0.56 19.61,-1.87 5.79,-1.31 11.02,-2.8 15.5,-4.48 4.67,-1.5 8.41,-2.99 11.58,-4.3 2.99,-1.31 5.98,-1.87 8.41,-1.87 2.24,0 4.29,0.56 6.35,1.87 1.86,1.31 3.54,3.74 4.67,7.66 0.93,3.74 2.05,8.97 2.98,15.5 0.94,6.73 1.31,14.94 1.31,25.22 0,16.06 -0.93,28.2 -2.8,36.42 -1.68,8.22 -4.3,14.19 -7.66,17.93 -3.17,3.92 -8.22,7.28 -14.75,9.9 -6.54,2.8 -14.2,5.23 -22.79,7.1 -8.41,2.05 -17.74,3.54 -27.83,4.67 -10.09,1.12 -20.17,1.68 -30.44,1.68 -27.27,0 -50.99,-3.55 -71.17,-10.46 -19.98,-6.91 -36.6,-17.56 -49.87,-31.94 -13.07,-14.38 -22.78,-32.5 -28.95,-54.54 -6.16,-21.85 -9.34,-47.82 -9.34,-77.7l0 -250.09 -59.2 0c-6.91,0 -12.33,-4.3 -15.88,-12.89 -3.73,-8.59 -5.6,-22.97 -5.6,-43.15 0,-10.64 0.37,-19.61 1.3,-26.89 0.94,-7.29 2.43,-13.08 4.3,-17.37 1.68,-4.11 4.11,-7.1 6.91,-8.97 2.62,-1.87 5.98,-2.8 9.53,-2.8l58.64 0 0 -109.26c0,-3.55 0.94,-6.91 2.99,-9.9 2.06,-2.8 5.79,-5.23 11.02,-7.29 5.23,-2.05 12.52,-3.55 21.48,-4.48 8.97,-0.93 19.99,-1.31 33.25,-1.31 13.45,0 24.65,0.38 33.62,1.31 8.96,0.93 16.06,2.43 21.29,4.48 5.04,2.06 8.78,4.49 10.83,7.29 2.25,2.99 3.37,6.35 3.37,9.9l0 109.26 315.46 0zm50.99 -146.25c0,27.83 -5.6,46.89 -16.99,57.53 -11.4,10.65 -32.32,15.88 -63.14,15.88 -31,0 -52.11,-5.05 -62.75,-15.32 -10.84,-10.27 -16.25,-28.76 -16.25,-55.28 0,-27.83 5.6,-47.07 16.81,-57.9 11.02,-10.65 32.12,-16.07 63.32,-16.07 30.63,0 51.55,5.23 62.57,15.69 11.02,10.27 16.43,28.77 16.43,55.47z"/>
  <path id="_29" class="fil2" d="M10413.07 5445.03c0,1.87 0,4.11 -0.19,6.72 -0.19,2.43 -0.56,5.23 -1.12,8.41 -0.56,3.18 -1.31,6.72 -2.24,10.65 -0.94,4.11 -2.06,8.59 -3.55,13.63l-146.62 442.1c-1.68,6.16 -4.3,11.21 -7.29,14.94 -3.17,3.93 -8.21,6.91 -15.31,9.16 -7.1,2.05 -16.81,3.54 -28.95,4.29 -12.14,0.75 -28.21,1.12 -47.82,1.12 -19.24,0 -35.11,-0.37 -47.25,-1.31 -12.14,-0.93 -21.85,-2.61 -28.77,-4.66 -6.91,-2.25 -11.95,-5.23 -14.94,-9.16 -3.17,-3.73 -5.6,-8.59 -7.47,-14.38l-146.24 -442.1c-2.25,-7.28 -3.93,-13.82 -5.23,-19.61 -1.31,-5.79 -2.06,-10.09 -2.25,-12.7 -0.18,-2.43 -0.18,-4.86 -0.18,-7.1 0,-3.55 0.93,-6.72 2.99,-9.52 2.05,-2.81 5.6,-5.05 10.64,-6.92 5.05,-1.68 12.14,-2.98 20.92,-3.73 8.97,-0.75 20.17,-1.12 33.62,-1.12 14.94,0 26.9,0.37 36.05,1.31 8.96,0.93 16.25,2.24 21.48,3.92 5.23,1.68 8.96,3.92 11.2,7.1 2.06,3.17 3.93,6.91 5.42,11.2l110.95 358.8 3.36 13.64 3.17 -13.64 108.89 -358.8c1.13,-4.29 2.81,-8.03 5.23,-11.2 2.43,-3.18 6.17,-5.42 11.21,-7.1 5.23,-1.68 11.95,-2.99 20.55,-3.92 8.78,-0.94 19.98,-1.31 33.8,-1.31 13.64,0 24.66,0.37 33.25,1.12 8.59,0.75 15.32,2.05 19.98,3.73 4.86,1.87 8.04,4.11 9.9,6.92 1.87,2.8 2.81,5.97 2.81,9.52z"/>
  <path id="_30" class="fil2" d="M10893.83 5935.88c0,5.04 -1.87,8.97 -5.42,11.95 -3.74,2.99 -9.53,5.05 -17.37,6.35 -7.85,1.31 -19.43,1.87 -34.93,1.87 -16.43,0 -28.39,-0.56 -35.86,-1.87 -7.47,-1.3 -12.89,-3.36 -15.88,-6.35 -3.17,-2.98 -4.66,-6.91 -4.66,-11.95l0 -38.85c-20.18,21.48 -42.96,38.1 -68.74,50.06 -25.59,11.95 -54.16,17.93 -85.54,17.93 -25.78,0 -49.68,-3.36 -71.35,-10.09 -21.67,-6.72 -40.34,-16.81 -56.22,-30.07 -15.88,-13.45 -28.2,-29.88 -36.98,-49.5 -8.78,-19.79 -13.08,-42.77 -13.08,-68.92 0,-28.57 5.61,-53.23 16.63,-74.15 11.2,-21.1 27.83,-38.29 49.87,-52.11 22.04,-13.63 49.3,-23.72 82.18,-30.25 32.68,-6.54 70.79,-9.9 114.12,-9.9l47.63 0 0 -29.51c0,-15.32 -1.5,-28.77 -4.67,-40.35 -2.99,-11.39 -8.22,-21.1 -15.32,-28.76 -7.1,-7.66 -16.44,-13.26 -28.39,-17 -11.77,-3.55 -26.52,-5.42 -43.89,-5.42 -22.98,0 -43.52,2.62 -61.45,7.66 -18.12,5.05 -33.99,10.84 -47.82,17 -13.82,6.16 -25.4,11.95 -34.74,17 -9.34,5.04 -16.81,7.65 -22.6,7.65 -4.11,0 -7.65,-1.3 -10.64,-3.73 -3.18,-2.62 -5.79,-6.35 -7.66,-11.02 -2.06,-4.67 -3.55,-10.65 -4.67,-17.56 -1.12,-6.91 -1.68,-14.57 -1.68,-22.79 0,-11.39 0.93,-20.35 2.8,-26.89 1.68,-6.54 5.23,-12.33 10.27,-17.75 5.23,-5.22 14.01,-11.01 26.9,-17.37 12.7,-6.35 27.64,-12.32 44.83,-17.74 17.18,-5.6 35.86,-10.09 56.03,-13.45 20.36,-3.55 41.28,-5.23 62.76,-5.23 38.28,0 70.97,3.74 98.24,11.21 27.08,7.47 49.5,19.05 66.87,34.55 17.55,15.51 30.44,35.49 38.47,59.96 8.03,24.28 11.96,53.42 11.96,86.85l0 328.54zm-135.6 -209.56l-52.49 0c-22.22,0 -41.09,1.68 -56.78,4.85 -15.69,3.36 -28.39,8.22 -38.29,14.95 -9.9,6.53 -16.99,14.38 -21.48,23.72 -4.67,9.33 -6.91,19.98 -6.91,31.93 0,20.55 6.54,36.61 19.43,48.19 12.88,11.77 30.82,17.56 53.79,17.56 19.24,0 36.98,-4.86 53.23,-14.76 16.25,-9.89 32.69,-24.28 49.5,-43.33l0 -83.11z"/>
  <path id="_31" class="fil2" d="M11375.33 5795.98c0,27.65 -5.23,52.12 -15.69,73.41 -10.27,21.1 -25.02,38.66 -44.08,53.04 -19.05,14.2 -41.46,24.84 -67.42,31.94 -25.96,7.1 -53.98,10.65 -84.24,10.65 -18.3,0 -35.86,-1.31 -52.48,-4.11 -16.63,-2.8 -31.38,-6.35 -44.64,-10.65 -13.08,-4.11 -24.1,-8.4 -32.87,-12.89 -8.78,-4.48 -15.13,-8.59 -19.06,-12.51 -4.1,-3.92 -7.28,-9.9 -9.33,-18.12 -2.25,-8.03 -3.37,-20.17 -3.37,-36.23 0,-10.46 0.38,-18.87 1.12,-25.22 0.75,-6.35 1.87,-11.58 3.18,-15.31 1.49,-3.74 3.36,-6.35 5.6,-7.66 2.06,-1.31 4.86,-1.87 8.22,-1.87 3.92,0 9.9,2.24 17.74,6.91 7.85,4.67 17.56,9.72 29.33,15.13 11.58,5.61 25.21,10.83 40.72,15.5 15.5,4.86 33.24,7.29 52.85,7.29 12.33,0 23.54,-1.31 33.06,-3.92 9.72,-2.43 18.12,-6.17 25.22,-11.02 7.1,-4.67 12.51,-10.65 16.25,-18.12 3.55,-7.29 5.41,-15.69 5.41,-25.22 0,-11.02 -3.36,-20.35 -10.08,-28.2 -6.91,-7.84 -15.88,-14.75 -26.9,-20.54 -11.2,-5.79 -23.9,-11.21 -37.91,-16.44 -14.01,-5.04 -28.58,-10.65 -43.34,-17 -14.75,-6.16 -29.32,-13.26 -43.33,-21.29 -14.01,-8.03 -26.71,-17.74 -37.91,-29.51 -11.02,-11.58 -19.99,-25.78 -26.9,-42.03 -6.72,-16.43 -10.08,-36.23 -10.08,-59.2 0,-23.35 4.66,-44.64 13.82,-64.25 9.15,-19.43 22.22,-36.24 39.41,-50.06 17.37,-13.82 38.29,-24.66 62.94,-32.31 24.84,-7.66 52.48,-11.4 83.3,-11.4 15.51,0 30.26,1.12 44.83,3.18 14.38,2.24 27.64,5.04 39.22,8.22 11.77,3.36 21.67,6.72 29.7,10.64 8.03,3.74 13.82,7.1 17.37,9.72 3.55,2.8 5.98,5.41 7.47,8.21 1.31,2.81 2.43,5.98 3.18,9.9 0.74,3.74 1.49,8.59 2.05,14.2 0.56,5.6 0.75,12.7 0.75,21.1 0,9.9 -0.19,17.93 -0.75,24.1 -0.56,6.16 -1.49,11.2 -2.8,14.75 -1.31,3.74 -2.99,6.17 -5.23,7.47 -2.24,1.31 -4.86,1.87 -7.66,1.87 -3.36,0 -8.59,-1.87 -15.5,-5.79 -6.91,-3.73 -15.69,-7.84 -26.15,-12.14 -10.46,-4.29 -22.6,-8.4 -36.23,-12.14 -13.83,-3.92 -29.52,-5.79 -47.07,-5.79 -12.52,0 -23.35,1.31 -32.5,3.74 -9.15,2.61 -16.62,6.35 -22.6,11.02 -5.79,4.67 -10.27,10.27 -13.08,16.62 -2.98,6.35 -4.48,13.26 -4.48,20.36 0,11.39 3.55,20.92 10.46,28.57 6.91,7.66 16.06,14.39 27.46,20.18 11.2,5.79 24.28,11.39 38.66,16.43 14.38,5.05 29.14,10.65 43.89,16.63 14.76,5.97 29.51,13.07 43.9,21.1 14.38,8.03 27.45,17.93 38.66,29.51 11.39,11.77 20.54,25.59 27.45,41.84 6.91,16.25 10.46,35.49 10.46,57.71z"/>
  <path id="_32" class="fil2" d="M12182.21 5675.89c0,16.81 -3.74,29.13 -11.21,37.17 -7.47,8.03 -17.74,12.14 -31.01,12.14l-297.34 0c0,20.73 2.42,39.41 7.47,56.4 4.85,16.81 12.7,31.19 23.34,42.96 10.84,11.77 24.66,20.73 41.66,26.9 16.99,6.16 37.16,9.34 60.88,9.34 24.1,0 45.2,-1.69 63.51,-5.23 18.12,-3.55 33.99,-7.29 47.25,-11.58 13.26,-4.3 24.28,-8.04 33.06,-11.58 8.78,-3.55 15.88,-5.23 21.3,-5.23 3.36,0 6.16,0.56 8.21,1.86 2.24,1.31 4.11,3.55 5.61,6.91 1.3,3.18 2.42,7.85 2.99,13.83 0.56,5.97 0.74,13.63 0.74,22.6 0,8.03 -0.18,14.94 -0.56,20.54 -0.37,5.6 -0.93,10.46 -1.68,14.38 -0.75,4.11 -1.68,7.47 -3.17,10.09 -1.5,2.8 -3.37,5.42 -5.79,8.03 -2.43,2.43 -8.78,5.98 -19.43,10.46 -10.65,4.48 -24.09,8.78 -40.53,13.07 -16.44,4.3 -35.11,8.04 -56.22,11.21 -21.11,3.18 -43.71,4.86 -67.8,4.86 -43.52,0 -81.43,-5.42 -114.12,-16.44 -32.5,-10.83 -59.77,-27.46 -81.81,-49.68 -21.85,-22.23 -38.1,-50.43 -48.93,-84.24 -10.65,-33.99 -16.07,-73.77 -16.07,-119.35 0,-43.33 5.61,-82.37 17,-117.29 11.21,-34.74 27.64,-64.26 49.31,-88.54 21.48,-24.28 47.63,-42.77 78.45,-55.47 31,-12.89 65.74,-19.24 104.4,-19.24 40.91,0 75.84,5.98 104.79,18.12 29.13,11.95 52.85,28.76 71.53,50.06 18.49,21.29 32.31,46.69 41.09,75.83 8.78,29.14 13.08,60.89 13.08,95.25l0 21.86zm-133.36 -39.23c1.12,-38.66 -6.73,-69.1 -23.35,-91.14 -16.62,-22.23 -42.21,-33.25 -76.95,-33.25 -17.56,0 -32.87,3.36 -45.76,9.9 -13.08,6.54 -23.91,15.32 -32.5,26.52 -8.59,11.21 -15.13,24.28 -19.61,39.41 -4.67,15.32 -7.29,31.38 -8.03,48.56l206.2 0z"/>
  <path id="_33" class="fil2" d="M13046.79 5845.67c0,9.15 -0.18,16.99 -0.74,23.34 -0.56,6.35 -1.5,11.96 -2.62,16.44 -0.93,4.67 -2.43,8.59 -4.29,11.95 -1.87,3.18 -4.67,6.91 -8.78,11.02 -3.92,4.11 -11.77,9.53 -23.16,16.07 -11.58,6.35 -25.59,12.7 -42.21,18.67 -16.63,5.79 -35.49,10.84 -56.78,14.76 -21.3,3.92 -44.46,5.98 -69.3,5.98 -48.37,0 -92.08,-7.47 -131.12,-22.42 -39.03,-14.94 -72.28,-37.35 -99.55,-67.05 -27.45,-29.7 -48.37,-66.68 -62.94,-111.32 -14.57,-44.45 -21.85,-96.19 -21.85,-155.21 0,-60.14 8.03,-113.56 24.09,-160.25 16.06,-46.7 38.48,-85.92 67.24,-117.67 28.76,-31.76 63.32,-55.66 103.66,-72.1 40.16,-16.44 84.61,-24.65 133.17,-24.65 19.61,0 38.48,1.68 56.78,5.04 18.31,3.17 35.12,7.47 50.62,12.89 15.5,5.23 29.32,11.39 41.84,18.3 12.32,7.1 21.1,13.08 25.96,17.93 4.86,5.04 8.22,9.15 10.08,12.33 1.87,3.36 3.37,7.47 4.3,12.51 1.12,5.23 2.06,11.21 2.62,18.12 0.56,6.91 0.74,15.32 0.74,25.59 0,10.83 -0.37,20.17 -1.12,27.83 -0.75,7.66 -2.05,13.82 -3.73,18.49 -1.87,4.67 -4.11,8.22 -6.54,10.27 -2.62,2.24 -5.6,3.36 -8.78,3.36 -5.42,0 -12.33,-3.17 -20.73,-9.52 -8.41,-6.35 -19.24,-13.45 -32.5,-21.29 -13.26,-7.85 -29.14,-14.95 -47.63,-21.3 -18.3,-6.35 -40.16,-9.52 -65.74,-9.52 -28.02,0 -53.05,5.79 -75.09,17.18 -22.04,11.58 -40.72,27.83 -56.22,49.12 -15.5,21.48 -27.27,47.26 -35.3,77.52 -8.03,30.07 -11.95,64.25 -11.95,102.16 0,41.47 4.29,77.51 12.89,107.96 8.59,30.26 20.73,55.47 36.6,75.08 15.69,19.62 34.93,34.37 57.34,43.9 22.42,9.71 47.63,14.56 75.65,14.56 25.4,0 47.44,-2.98 66.12,-8.96 18.49,-5.98 34.36,-12.7 47.63,-19.8 13.44,-7.28 24.28,-13.82 32.87,-19.61 8.59,-5.79 15.13,-8.78 19.98,-8.78 3.55,0 6.54,0.75 8.59,2.24 2.25,1.5 4.11,4.3 5.61,8.78 1.31,4.3 2.43,10.46 3.17,18.3 0.75,8.04 1.12,18.5 1.12,31.76z"/>
  <path id="_34" class="fil2" d="M13635.51 5685.04c0,41.46 -5.42,79.38 -16.44,113.75 -11.01,34.18 -27.45,63.69 -49.86,88.53 -22.23,24.84 -50.06,43.89 -83.68,57.53 -33.62,13.44 -72.84,20.17 -117.67,20.17 -43.52,0 -81.25,-5.98 -113.37,-18.12 -32.13,-11.95 -58.84,-29.51 -79.94,-52.48 -21.11,-22.98 -36.8,-51.18 -47.07,-84.8 -10.27,-33.43 -15.32,-71.72 -15.32,-114.87 0,-41.46 5.61,-79.57 16.63,-113.93 11.2,-34.56 27.83,-64.07 50.24,-88.72 22.23,-24.47 50.06,-43.52 83.49,-57.15 33.24,-13.45 72.47,-20.18 117.29,-20.18 43.9,0 81.81,5.98 113.94,17.75 32.12,11.95 58.65,29.32 79.56,52.29 21.11,22.98 36.61,51.18 46.89,84.8 10.27,33.43 15.31,71.91 15.31,115.43zm-141.2 5.42c0,-24.1 -1.87,-46.33 -5.79,-66.5 -3.92,-20.36 -10.27,-37.91 -19.61,-52.85 -9.16,-14.95 -21.3,-26.71 -36.42,-35.12 -15.32,-8.4 -34.37,-12.51 -57.53,-12.51 -20.55,0 -38.48,3.73 -53.98,11.2 -15.32,7.47 -28.02,18.49 -37.92,32.88 -9.9,14.38 -17.37,31.75 -22.22,51.92 -5.05,20.36 -7.47,43.33 -7.47,69.29 0,24.1 2.05,46.33 5.97,66.5 4.11,20.36 10.65,37.91 19.61,52.85 8.97,14.95 21.11,26.53 36.61,34.75 15.32,8.21 34.37,12.32 57.16,12.32 20.92,0 39.03,-3.73 54.54,-11.2 15.31,-7.48 28.01,-18.31 37.91,-32.5 9.9,-14.38 17.18,-31.57 22.04,-51.74 4.67,-20.36 7.1,-43.33 7.1,-69.29z"/>
  <path id="_35" class="fil2" d="M14211.16 5934.2c0,3.55 -1.13,6.72 -3.37,9.52 -2.05,2.81 -5.79,5.05 -10.83,6.92 -5.23,1.68 -12.33,3.17 -21.29,4.1 -8.97,0.94 -19.99,1.31 -33.06,1.31 -13.64,0 -24.84,-0.37 -33.81,-1.31 -8.96,-0.93 -16.06,-2.42 -21.29,-4.1 -5.04,-1.87 -8.78,-4.11 -10.83,-6.92 -2.25,-2.8 -3.37,-5.97 -3.37,-9.52l0 -278.48c0,-23.73 -1.68,-42.4 -5.23,-55.85 -3.36,-13.64 -8.4,-25.22 -14.94,-34.74 -6.53,-9.71 -15.13,-17.19 -25.4,-22.6 -10.46,-5.23 -22.41,-7.85 -36.23,-7.85 -17.56,0 -35.12,6.35 -53.05,19.24 -17.74,12.7 -36.42,31.38 -55.66,55.66l0 324.62c0,3.55 -1.12,6.72 -3.36,9.52 -2.05,2.81 -5.79,5.05 -11.21,6.92 -5.23,1.68 -12.32,3.17 -20.92,4.1 -8.77,0.94 -19.98,1.31 -33.43,1.31 -13.45,0 -24.65,-0.37 -33.43,-1.31 -8.59,-0.93 -15.69,-2.42 -20.92,-4.1 -5.42,-1.87 -9.15,-4.11 -11.21,-6.92 -2.24,-2.8 -3.36,-5.97 -3.36,-9.52l0 -488.61c0,-3.55 0.93,-6.72 2.8,-9.52 1.68,-2.81 5.05,-5.05 9.71,-6.91 4.86,-1.69 10.84,-3.18 18.31,-4.11 7.47,-0.94 17,-1.31 28.2,-1.31 11.77,0 21.29,0.37 28.95,1.31 7.66,0.93 13.64,2.42 17.93,4.11 4.11,1.86 7.1,4.1 8.97,6.91 1.87,2.8 2.8,5.97 2.8,9.52l0 56.41c26.9,-29.14 54.35,-50.81 82.37,-65.37 27.83,-14.57 56.97,-21.86 87.22,-21.86 33.25,0 61.27,5.42 84.05,16.44 22.79,10.83 41.09,25.77 55.29,44.64 14.01,18.68 24.09,40.72 30.26,65.93 6.16,25.22 9.34,55.47 9.34,90.77l0 301.65z"/>
  <path id="_36" class="fil2" d="M14809.21 5934.2c0,3.92 -0.93,7.28 -2.8,10.09 -1.68,2.8 -4.85,5.04 -9.15,6.91 -4.48,1.68 -10.46,2.98 -17.93,3.73 -7.47,0.75 -16.62,1.12 -27.46,1.12 -11.76,0 -21.29,-0.37 -28.57,-1.12 -7.29,-0.75 -13.08,-2.05 -17.75,-3.73 -4.48,-1.87 -7.84,-4.3 -9.71,-6.91 -2.05,-2.81 -3.18,-6.17 -3.18,-10.28l0 -54.35c-25.02,27.08 -51.55,48 -79,62.94 -27.64,14.95 -58.09,22.42 -91.71,22.42 -37.17,0 -68.73,-7.29 -94.32,-21.67 -25.78,-14.38 -46.7,-33.81 -62.94,-58.27 -16.25,-24.28 -28.02,-52.86 -35.31,-85.55 -7.28,-32.68 -11.02,-67.05 -11.02,-103.1 0,-43.33 4.67,-82.37 14.01,-117.11 9.34,-34.55 22.79,-64.06 40.72,-88.53 17.93,-24.47 40.16,-43.14 66.87,-56.41 26.52,-13.07 57.15,-19.61 91.89,-19.61 27.27,0 52.11,5.61 74.34,16.63 22.41,11.2 44.45,27.45 66.3,48.93l0 -263.91c0,-3.74 0.94,-6.91 2.99,-9.9 2.06,-2.8 5.6,-5.42 11.02,-7.29 5.23,-2.05 12.33,-3.55 20.92,-4.67 8.78,-1.12 19.99,-1.68 33.43,-1.68 13.45,0 24.66,0.56 33.44,1.68 8.59,1.12 15.69,2.62 20.73,4.67 5.04,1.87 8.78,4.49 10.83,7.29 2.24,2.99 3.36,6.16 3.36,9.9l0 717.78zm-136.72 -326.3c-19.61,-24.84 -38.66,-43.71 -56.59,-56.97 -18.12,-13.07 -36.98,-19.61 -56.78,-19.61 -17.74,0 -33.25,4.48 -46.13,13.45 -13.08,8.97 -23.35,20.73 -31.2,35.67 -7.84,15.13 -13.82,31.76 -17.55,50.06 -3.93,18.49 -5.79,37.36 -5.79,56.59 0,20.55 1.68,40.35 4.85,59.59 3.37,19.42 8.78,36.6 16.25,51.73 7.47,15.13 17.37,27.27 29.89,36.42 12.32,9.16 28.01,13.64 47.06,13.64 9.34,0 18.68,-1.31 27.65,-4.11 8.96,-2.8 17.93,-7.1 27.27,-13.45 9.34,-6.16 18.86,-14.19 28.76,-24.28 9.9,-10.09 20.73,-22.23 32.31,-36.79l0 -161.94z"/>
  <path id="_37" class="fil2" d="M15440.89 5685.04c0,41.46 -5.42,79.38 -16.44,113.75 -11.01,34.18 -27.45,63.69 -49.86,88.53 -22.23,24.84 -50.06,43.89 -83.68,57.53 -33.62,13.44 -72.84,20.17 -117.67,20.17 -43.52,0 -81.25,-5.98 -113.37,-18.12 -32.13,-11.95 -58.84,-29.51 -79.94,-52.48 -21.11,-22.98 -36.8,-51.18 -47.07,-84.8 -10.27,-33.43 -15.32,-71.72 -15.32,-114.87 0,-41.46 5.61,-79.57 16.63,-113.93 11.2,-34.56 27.83,-64.07 50.24,-88.72 22.23,-24.47 50.06,-43.52 83.49,-57.15 33.24,-13.45 72.47,-20.18 117.29,-20.18 43.9,0 81.81,5.98 113.94,17.75 32.12,11.95 58.65,29.32 79.56,52.29 21.11,22.98 36.61,51.18 46.89,84.8 10.27,33.43 15.31,71.91 15.31,115.43zm-141.2 5.42c0,-24.1 -1.87,-46.33 -5.79,-66.5 -3.92,-20.36 -10.27,-37.91 -19.61,-52.85 -9.16,-14.95 -21.3,-26.71 -36.42,-35.12 -15.32,-8.4 -34.37,-12.51 -57.53,-12.51 -20.55,0 -38.48,3.73 -53.98,11.2 -15.32,7.47 -28.02,18.49 -37.92,32.88 -9.9,14.38 -17.37,31.75 -22.22,51.92 -5.05,20.36 -7.47,43.33 -7.47,69.29 0,24.1 2.05,46.33 5.97,66.5 4.11,20.36 10.65,37.91 19.61,52.85 8.97,14.95 21.11,26.53 36.61,34.75 15.32,8.21 34.37,12.32 57.16,12.32 20.92,0 39.03,-3.73 54.54,-11.2 15.31,-7.48 28.01,-18.31 37.91,-32.5 9.9,-14.38 17.18,-31.57 22.04,-51.74 4.67,-20.36 7.1,-43.33 7.1,-69.29z"/>
  <path id="_38" class="fil2" d="M16326.96 5934.2c0,3.55 -1.12,6.72 -3.36,9.52 -2.06,2.81 -5.79,5.05 -10.84,6.92 -5.23,1.68 -12.14,3.17 -20.92,4.1 -8.77,0.94 -19.98,1.31 -33.43,1.31 -14.01,0 -25.4,-0.37 -34.18,-1.31 -8.78,-0.93 -15.87,-2.42 -21.1,-4.1 -5.23,-1.87 -8.97,-4.11 -11.02,-6.92 -2.06,-2.8 -2.99,-5.97 -2.99,-9.52l0 -289.5c0,-16.44 -1.5,-31.38 -4.67,-44.83 -2.99,-13.64 -7.85,-25.22 -14.2,-34.74 -6.35,-9.71 -14.38,-17.19 -23.9,-22.6 -9.72,-5.23 -21.11,-7.85 -34.56,-7.85 -16.43,0 -33.06,6.35 -49.68,19.24 -16.81,12.7 -34.93,31.38 -54.54,55.66l0 324.62c0,3.55 -1.12,6.72 -3.36,9.52 -2.06,2.81 -5.79,5.05 -11.21,6.92 -5.23,1.68 -12.33,3.17 -21.1,4.1 -8.78,0.94 -19.8,1.31 -32.88,1.31 -13.63,0 -24.84,-0.37 -33.62,-1.31 -8.78,-0.93 -15.87,-2.42 -21.1,-4.1 -5.42,-1.87 -9.15,-4.11 -11.21,-6.92 -2.24,-2.8 -3.36,-5.97 -3.36,-9.52l0 -289.5c0,-16.44 -1.5,-31.38 -4.67,-44.83 -2.99,-13.64 -7.66,-25.22 -14.01,-34.74 -6.16,-9.71 -14.19,-17.19 -23.91,-22.6 -9.9,-5.23 -21.48,-7.85 -34.55,-7.85 -16.81,0 -33.43,6.35 -50.24,19.24 -16.81,12.7 -34.93,31.38 -54.17,55.66l0 324.62c0,3.55 -1.12,6.72 -3.36,9.52 -2.05,2.81 -5.79,5.05 -11.21,6.92 -5.23,1.68 -12.32,3.17 -20.92,4.1 -8.77,0.94 -19.98,1.31 -33.43,1.31 -13.45,0 -24.65,-0.37 -33.43,-1.31 -8.59,-0.93 -15.69,-2.42 -20.92,-4.1 -5.42,-1.87 -9.15,-4.11 -11.21,-6.92 -2.24,-2.8 -3.36,-5.97 -3.36,-9.52l0 -488.61c0,-3.55 0.93,-6.72 2.8,-9.52 1.68,-2.81 5.05,-5.05 9.71,-6.91 4.86,-1.69 10.84,-3.18 18.31,-4.11 7.47,-0.94 17,-1.31 28.2,-1.31 11.77,0 21.29,0.37 28.95,1.31 7.66,0.93 13.64,2.42 17.93,4.11 4.11,1.86 7.1,4.1 8.97,6.91 1.87,2.8 2.8,5.97 2.8,9.52l0 56.41c26.9,-29.14 53.79,-50.81 80.69,-65.37 26.89,-14.57 54.91,-21.86 84.05,-21.86 20.17,0 38.29,2.06 54.35,6.35 16.06,4.11 30.26,10.09 42.96,17.93 12.51,7.85 23.34,17.19 32.5,28.02 9.15,11.02 16.81,23.16 22.97,36.61 14.57,-15.69 28.95,-29.14 42.96,-40.34 14.01,-11.21 28.02,-20.55 41.65,-27.65 13.64,-7.1 27.27,-12.33 41.09,-15.69 13.64,-3.55 27.46,-5.23 41.84,-5.23 32.31,0 59.77,5.42 81.99,16.44 22.23,10.83 40.16,25.77 53.8,44.64 13.82,18.68 23.53,40.72 29.32,65.93 5.79,25.22 8.78,51.74 8.78,79.94l0 312.48z"/>
  <path id="_39" class="fil2" d="M16599.84 5934.2c0,3.55 -1.12,6.72 -3.36,9.52 -2.05,2.81 -5.79,5.05 -11.21,6.92 -5.23,1.68 -12.32,3.17 -20.92,4.1 -8.77,0.94 -19.98,1.31 -33.43,1.31 -13.45,0 -24.65,-0.37 -33.43,-1.31 -8.59,-0.93 -15.69,-2.42 -20.92,-4.1 -5.42,-1.87 -9.15,-4.11 -11.21,-6.92 -2.24,-2.8 -3.36,-5.97 -3.36,-9.52l0 -487.49c0,-3.55 1.12,-6.72 3.36,-9.52 2.06,-2.81 5.79,-5.23 11.21,-7.1 5.23,-2.06 12.33,-3.55 20.92,-4.67 8.78,-1.12 19.98,-1.68 33.43,-1.68 13.45,0 24.66,0.56 33.43,1.68 8.6,1.12 15.69,2.61 20.92,4.67 5.42,1.87 9.16,4.29 11.21,7.1 2.24,2.8 3.36,5.97 3.36,9.52l0 487.49zm11.21 -654.47c0,27.83 -5.6,46.88 -17,57.53 -11.39,10.65 -32.31,15.88 -63.13,15.88 -31,0 -52.11,-5.05 -62.76,-15.32 -10.83,-10.27 -16.25,-28.76 -16.25,-55.28 0,-27.83 5.61,-47.07 16.81,-57.91 11.02,-10.64 32.13,-16.06 63.32,-16.06 30.63,0 51.55,5.23 62.57,15.69 11.02,10.27 16.44,28.76 16.44,55.47z"/>
  <path id="_40" class="fil2" d="M17203.51 5934.2c0,3.55 -1.13,6.72 -3.37,9.52 -2.05,2.81 -5.79,5.05 -10.83,6.92 -5.23,1.68 -12.33,3.17 -21.29,4.1 -8.97,0.94 -19.99,1.31 -33.06,1.31 -13.64,0 -24.84,-0.37 -33.81,-1.31 -8.96,-0.93 -16.06,-2.42 -21.29,-4.1 -5.04,-1.87 -8.78,-4.11 -10.83,-6.92 -2.25,-2.8 -3.37,-5.97 -3.37,-9.52l0 -278.48c0,-23.73 -1.68,-42.4 -5.23,-55.85 -3.36,-13.64 -8.4,-25.22 -14.94,-34.74 -6.53,-9.71 -15.13,-17.19 -25.4,-22.6 -10.46,-5.23 -22.41,-7.85 -36.23,-7.85 -17.56,0 -35.12,6.35 -53.05,19.24 -17.74,12.7 -36.42,31.38 -55.66,55.66l0 324.62c0,3.55 -1.12,6.72 -3.36,9.52 -2.05,2.81 -5.79,5.05 -11.21,6.92 -5.23,1.68 -12.32,3.17 -20.92,4.1 -8.77,0.94 -19.98,1.31 -33.43,1.31 -13.45,0 -24.65,-0.37 -33.43,-1.31 -8.59,-0.93 -15.69,-2.42 -20.92,-4.1 -5.42,-1.87 -9.15,-4.11 -11.21,-6.92 -2.24,-2.8 -3.36,-5.97 -3.36,-9.52l0 -488.61c0,-3.55 0.93,-6.72 2.8,-9.52 1.68,-2.81 5.05,-5.05 9.71,-6.91 4.86,-1.69 10.84,-3.18 18.31,-4.11 7.47,-0.94 17,-1.31 28.2,-1.31 11.77,0 21.29,0.37 28.95,1.31 7.66,0.93 13.64,2.42 17.93,4.11 4.11,1.86 7.1,4.1 8.97,6.91 1.87,2.8 2.8,5.97 2.8,9.52l0 56.41c26.9,-29.14 54.35,-50.81 82.37,-65.37 27.83,-14.57 56.97,-21.86 87.22,-21.86 33.25,0 61.27,5.42 84.05,16.44 22.79,10.83 41.09,25.77 55.29,44.64 14.01,18.68 24.09,40.72 30.26,65.93 6.16,25.22 9.34,55.47 9.34,90.77l0 301.65z"/>
  <path id="_41" class="fil2" d="M17476.57 5934.2c0,3.55 -1.12,6.72 -3.36,9.52 -2.05,2.81 -5.79,5.05 -11.21,6.92 -5.23,1.68 -12.32,3.17 -20.92,4.1 -8.77,0.94 -19.98,1.31 -33.43,1.31 -13.45,0 -24.65,-0.37 -33.43,-1.31 -8.59,-0.93 -15.69,-2.42 -20.92,-4.1 -5.42,-1.87 -9.15,-4.11 -11.21,-6.92 -2.24,-2.8 -3.36,-5.97 -3.36,-9.52l0 -487.49c0,-3.55 1.12,-6.72 3.36,-9.52 2.06,-2.81 5.79,-5.23 11.21,-7.1 5.23,-2.06 12.33,-3.55 20.92,-4.67 8.78,-1.12 19.98,-1.68 33.43,-1.68 13.45,0 24.66,0.56 33.43,1.68 8.6,1.12 15.69,2.61 20.92,4.67 5.42,1.87 9.16,4.29 11.21,7.1 2.24,2.8 3.36,5.97 3.36,9.52l0 487.49zm11.21 -654.47c0,27.83 -5.6,46.88 -17,57.53 -11.39,10.65 -32.31,15.88 -63.13,15.88 -31,0 -52.11,-5.05 -62.76,-15.32 -10.83,-10.27 -16.25,-28.76 -16.25,-55.28 0,-27.83 5.61,-47.07 16.81,-57.91 11.02,-10.64 32.13,-16.06 63.32,-16.06 30.63,0 51.55,5.23 62.57,15.69 11.02,10.27 16.44,28.76 16.44,55.47z"/>
  <path id="_42" class="fil2" d="M18029.81 5935.88c0,5.04 -1.87,8.97 -5.42,11.95 -3.74,2.99 -9.53,5.05 -17.37,6.35 -7.85,1.31 -19.43,1.87 -34.93,1.87 -16.43,0 -28.39,-0.56 -35.86,-1.87 -7.47,-1.3 -12.89,-3.36 -15.88,-6.35 -3.17,-2.98 -4.66,-6.91 -4.66,-11.95l0 -38.85c-20.18,21.48 -42.96,38.1 -68.74,50.06 -25.59,11.95 -54.16,17.93 -85.54,17.93 -25.78,0 -49.68,-3.36 -71.35,-10.09 -21.67,-6.72 -40.34,-16.81 -56.22,-30.07 -15.88,-13.45 -28.2,-29.88 -36.98,-49.5 -8.78,-19.79 -13.08,-42.77 -13.08,-68.92 0,-28.57 5.61,-53.23 16.63,-74.15 11.2,-21.1 27.83,-38.29 49.87,-52.11 22.04,-13.63 49.3,-23.72 82.18,-30.25 32.68,-6.54 70.79,-9.9 114.12,-9.9l47.63 0 0 -29.51c0,-15.32 -1.5,-28.77 -4.67,-40.35 -2.99,-11.39 -8.22,-21.1 -15.32,-28.76 -7.1,-7.66 -16.44,-13.26 -28.39,-17 -11.77,-3.55 -26.52,-5.42 -43.89,-5.42 -22.98,0 -43.52,2.62 -61.45,7.66 -18.12,5.05 -33.99,10.84 -47.82,17 -13.82,6.16 -25.4,11.95 -34.74,17 -9.34,5.04 -16.81,7.65 -22.6,7.65 -4.11,0 -7.65,-1.3 -10.64,-3.73 -3.18,-2.62 -5.79,-6.35 -7.66,-11.02 -2.06,-4.67 -3.55,-10.65 -4.67,-17.56 -1.12,-6.91 -1.68,-14.57 -1.68,-22.79 0,-11.39 0.93,-20.35 2.8,-26.89 1.68,-6.54 5.23,-12.33 10.27,-17.75 5.23,-5.22 14.01,-11.01 26.9,-17.37 12.7,-6.35 27.64,-12.32 44.83,-17.74 17.18,-5.6 35.86,-10.09 56.03,-13.45 20.36,-3.55 41.28,-5.23 62.76,-5.23 38.28,0 70.97,3.74 98.24,11.21 27.08,7.47 49.5,19.05 66.87,34.55 17.55,15.51 30.44,35.49 38.47,59.96 8.03,24.28 11.96,53.42 11.96,86.85l0 328.54zm-135.6 -209.56l-52.49 0c-22.22,0 -41.09,1.68 -56.78,4.85 -15.69,3.36 -28.39,8.22 -38.29,14.95 -9.9,6.53 -16.99,14.38 -21.48,23.72 -4.67,9.33 -6.91,19.98 -6.91,31.93 0,20.55 6.54,36.61 19.43,48.19 12.88,11.77 30.82,17.56 53.79,17.56 19.24,0 36.98,-4.86 53.23,-14.76 16.25,-9.89 32.69,-24.28 49.5,-43.33l0 -83.11z"/>
  <path id="_43" class="fil2" d="M18305.11 5934.2c0,3.55 -1.12,6.72 -3.36,9.52 -2.05,2.81 -5.79,5.05 -11.21,6.92 -5.23,1.68 -12.32,3.17 -20.92,4.1 -8.77,0.94 -19.98,1.31 -33.43,1.31 -13.45,0 -24.65,-0.37 -33.43,-1.31 -8.59,-0.93 -15.69,-2.42 -20.92,-4.1 -5.42,-1.87 -9.15,-4.11 -11.21,-6.92 -2.24,-2.8 -3.36,-5.97 -3.36,-9.52l0 -487.49c0,-3.55 1.12,-6.72 3.36,-9.52 2.06,-2.81 5.79,-5.23 11.21,-7.1 5.23,-2.06 12.33,-3.55 20.92,-4.67 8.78,-1.12 19.98,-1.68 33.43,-1.68 13.45,0 24.66,0.56 33.43,1.68 8.6,1.12 15.69,2.61 20.92,4.67 5.42,1.87 9.16,4.29 11.21,7.1 2.24,2.8 3.36,5.97 3.36,9.52l0 487.49zm11.21 -654.47c0,27.83 -5.6,46.88 -17,57.53 -11.39,10.65 -32.31,15.88 -63.13,15.88 -31,0 -52.11,-5.05 -62.76,-15.32 -10.83,-10.27 -16.25,-28.76 -16.25,-55.28 0,-27.83 5.61,-47.07 16.81,-57.91 11.02,-10.64 32.13,-16.06 63.32,-16.06 30.63,0 51.55,5.23 62.57,15.69 11.02,10.27 16.44,28.76 16.44,55.47z"/>
  <path id="_44" class="fil2" d="M18786.62 5795.98c0,27.65 -5.23,52.12 -15.69,73.41 -10.27,21.1 -25.02,38.66 -44.08,53.04 -19.05,14.2 -41.46,24.84 -67.42,31.94 -25.96,7.1 -53.98,10.65 -84.24,10.65 -18.3,0 -35.86,-1.31 -52.48,-4.11 -16.63,-2.8 -31.38,-6.35 -44.64,-10.65 -13.08,-4.11 -24.1,-8.4 -32.87,-12.89 -8.78,-4.48 -15.13,-8.59 -19.06,-12.51 -4.1,-3.92 -7.28,-9.9 -9.33,-18.12 -2.25,-8.03 -3.37,-20.17 -3.37,-36.23 0,-10.46 0.38,-18.87 1.12,-25.22 0.75,-6.35 1.87,-11.58 3.18,-15.31 1.49,-3.74 3.36,-6.35 5.6,-7.66 2.06,-1.31 4.86,-1.87 8.22,-1.87 3.92,0 9.9,2.24 17.74,6.91 7.85,4.67 17.56,9.72 29.33,15.13 11.58,5.61 25.21,10.83 40.72,15.5 15.5,4.86 33.24,7.29 52.85,7.29 12.33,0 23.54,-1.31 33.06,-3.92 9.72,-2.43 18.12,-6.17 25.22,-11.02 7.1,-4.67 12.51,-10.65 16.25,-18.12 3.55,-7.29 5.41,-15.69 5.41,-25.22 0,-11.02 -3.36,-20.35 -10.08,-28.2 -6.91,-7.84 -15.88,-14.75 -26.9,-20.54 -11.2,-5.79 -23.9,-11.21 -37.91,-16.44 -14.01,-5.04 -28.58,-10.65 -43.34,-17 -14.75,-6.16 -29.32,-13.26 -43.33,-21.29 -14.01,-8.03 -26.71,-17.74 -37.91,-29.51 -11.02,-11.58 -19.99,-25.78 -26.9,-42.03 -6.72,-16.43 -10.08,-36.23 -10.08,-59.2 0,-23.35 4.66,-44.64 13.82,-64.25 9.15,-19.43 22.22,-36.24 39.41,-50.06 17.37,-13.82 38.29,-24.66 62.94,-32.31 24.84,-7.66 52.48,-11.4 83.3,-11.4 15.51,0 30.26,1.12 44.83,3.18 14.38,2.24 27.64,5.04 39.22,8.22 11.77,3.36 21.67,6.72 29.7,10.64 8.03,3.74 13.82,7.1 17.37,9.72 3.55,2.8 5.98,5.41 7.47,8.21 1.31,2.81 2.43,5.98 3.18,9.9 0.74,3.74 1.49,8.59 2.05,14.2 0.56,5.6 0.75,12.7 0.75,21.1 0,9.9 -0.19,17.93 -0.75,24.1 -0.56,6.16 -1.49,11.2 -2.8,14.75 -1.31,3.74 -2.99,6.17 -5.23,7.47 -2.24,1.31 -4.86,1.87 -7.66,1.87 -3.36,0 -8.59,-1.87 -15.5,-5.79 -6.91,-3.73 -15.69,-7.84 -26.15,-12.14 -10.46,-4.29 -22.6,-8.4 -36.23,-12.14 -13.83,-3.92 -29.52,-5.79 -47.07,-5.79 -12.52,0 -23.35,1.31 -32.5,3.74 -9.15,2.61 -16.62,6.35 -22.6,11.02 -5.79,4.67 -10.27,10.27 -13.08,16.62 -2.98,6.35 -4.48,13.26 -4.48,20.36 0,11.39 3.55,20.92 10.46,28.57 6.91,7.66 16.06,14.39 27.46,20.18 11.2,5.79 24.28,11.39 38.66,16.43 14.38,5.05 29.14,10.65 43.89,16.63 14.76,5.97 29.51,13.07 43.9,21.1 14.38,8.03 27.45,17.93 38.66,29.51 11.39,11.77 20.54,25.59 27.45,41.84 6.91,16.25 10.46,35.49 10.46,57.71z"/>
 </g>
</svg>
