<?xml version="1.0" encoding="UTF-8"?>
<!DOCTYPE svg PUBLIC "-//W3C//DTD SVG 1.1//EN" "http://www.w3.org/Graphics/SVG/1.1/DTD/svg11.dtd">
<!-- Creator: CorelDRAW (Versão OEM) -->
<svg xmlns="http://www.w3.org/2000/svg" xml:space="preserve" width="259mm" height="58.21mm" version="1.1" style="shape-rendering:geometricPrecision; text-rendering:geometricPrecision; image-rendering:optimizeQuality; fill-rule:evenodd; clip-rule:evenodd"
viewBox="0 0 25900 5821"
 xmlns:xlink="http://www.w3.org/1999/xlink"
 xmlns:xodm="http://www.corel.com/coreldraw/odm/2003">
 <defs>
  <style type="text/css">
   <![CDATA[
    .fil1 {fill:#0E2A57;fill-rule:nonzero}
    .fil0 {fill:url(#id0)}
   ]]>
  </style>
  <linearGradient id="id0" gradientUnits="userSpaceOnUse" x1="3702.25" y1="3562.13" x2="74.96" y2="2250.69">
   <stop offset="0" style="stop-opacity:1; stop-color:#0F1F50"/>
   <stop offset="1" style="stop-opacity:1; stop-color:#00B8AC"/>
  </linearGradient>
 </defs>
 <g id="Camada_x0020_1">
  <metadata id="CorelCorpID_0Corel-Layer"/>
  <g id="_3158232203280">
   <path class="fil0" d="M534.26 2888.35l1474.46 -839.45c44.95,-25.6 123.26,-21.48 174.02,9.15l1252 755.49c50.76,30.63 55.51,76.63 10.56,102.22l-1474.47 839.46c-44.94,25.59 -123.26,21.48 -174.02,-9.15l-1252 -755.49c-50.76,-30.63 -55.51,-76.63 -10.55,-102.23zm3075.91 157.26c-38.32,62.76 -88.66,107.75 -147.96,139.44l-2973.67 1747.5c-208.62,109.04 -133.24,167.85 -33.18,231.39l897.59 496.83c195.78,118.53 290.37,42.2 465.91,-46.83l1530.59 -938.53c213.82,-154.12 287.87,-248.51 296.55,-611.14l22.3 -881.91 3.44 -95.13c-0.38,-168.8 -51.87,-55.89 -61.57,-41.62zm-3492.22 -433.93l-21.31 -859.42c-10.64,-235.2 64.31,-335.49 377.19,-553.28l1660.75 -1008.8c204.52,-104.19 283.72,-139.12 475.05,13.95l846.6 516.4c35.9,28.02 84.06,130.33 -2.66,179.28l-3117.52 1858.36c-212.03,137.67 -211.9,-52.16 -218.1,-146.49z"/>
   <g>
    <path class="fil1" d="M4340.65 3819.04l614.4 -130.78c73.73,347.57 356.36,521.36 848.77,521.36 223.81,0 396.72,-43.89 517.84,-133.42 121.13,-88.64 180.81,-199.24 180.81,-331.78 0,-95.66 -27.21,-184.31 -81.62,-265.95 -55.3,-81.62 -172.91,-145.69 -352.85,-191.33l-670.58 -175.54c-229.95,-59.69 -399.35,-128.15 -509.07,-203.63 -109.71,-76.37 -198.37,-184.33 -264.2,-323.01 -65.82,-138.69 -99.18,-287.02 -99.18,-445.01 0,-313.34 116.73,-565.25 350.21,-754.84 233.47,-189.58 531.02,-284.38 894.41,-284.38 301.93,0 571.39,66.71 809.25,198.37 236.98,131.66 388.83,318.62 453.78,560.87l-602.11 149.2c-92.17,-265.94 -308.09,-398.47 -647.76,-398.47 -197.49,0 -347.58,40.37 -451.15,122.87 -103.58,82.51 -155.36,186.95 -155.36,314.23 0,200.11 162.38,340.55 488.02,421.31l596.85 149.2c361.62,90.41 603.87,224.7 727.63,402 123.76,178.18 185.19,373.9 185.19,588.08 0,344.05 -129.9,616.16 -389.71,813.64 -259.8,198.37 -595.96,296.68 -1009.38,297.54 -347.57,-0.86 -652.14,-73.73 -913.69,-219.42 -261.57,-145.7 -435.36,-372.15 -520.5,-681.11z"/>
    <path id="_1" class="fil1" d="M9334 3837.47l530.14 71.97c-68.46,234.36 -202.75,428.33 -401.12,581.05 -199.23,152.73 -448.52,228.22 -748.69,229.08 -359.86,-0.86 -649.52,-121.12 -868.95,-363.37 -219.43,-241.38 -329.14,-568.77 -329.14,-982.17 0,-392.33 110.6,-717.1 331.78,-974.27 221.18,-257.17 521.36,-386.19 899.66,-386.19 370.4,0 656.53,127.26 859.3,380.92 201.86,253.66 303.68,579.3 303.68,976.9l-2.63 67.6 -1782.65 0c0,176.42 16.68,317.73 50.03,423.94 33.36,106.19 100.05,198.36 199.24,277.35 100.06,79 223.82,118.5 373.03,118.5 289.64,0 485.38,-140.44 586.32,-421.31zm-35.98 -776.79c-1.77,-186.95 -57.93,-339.68 -168.53,-458.17 -110.59,-117.6 -246.64,-177.29 -409.9,-177.29 -161.49,0 -295.78,55.3 -403.74,165.88 -107.96,110.6 -171.17,266.84 -190.47,469.58l1172.64 0z"/>
    <path id="_2" class="fil1" d="M11030.64 4665.16l-586.32 0 0 -2597.17 530.15 0 0 619.66c75.49,-241.38 179.05,-418.67 310.71,-529.27 132.54,-111.46 267.71,-167.63 406.38,-167.63 19.32,0 44.77,0.87 77.25,2.62l0 630.21c-298.43,0 -495.92,94.8 -592.47,285.25 -96.54,190.47 -145.7,374.8 -145.7,552.98l0 1203.35z"/>
    <path id="_3" class="fil1" d="M12776.42 4665.16l-586.32 0 0 -2597.17 530.16 0 0 619.66c75.48,-241.38 179.04,-418.67 310.71,-529.27 132.53,-111.46 267.7,-167.63 406.37,-167.63 19.32,0 44.78,0.87 77.26,2.62l0 630.21c-298.44,0 -495.93,94.8 -592.48,285.25 -96.54,190.47 -145.7,374.8 -145.7,552.98l0 1203.35z"/>
    <path id="_4" class="fil1" d="M16158.28 4665.16l-558.23 0c-50.03,-157.99 -79.87,-332.66 -90.4,-524.88 -155.37,386.2 -448.51,578.43 -879.48,579.29 -258.93,-0.86 -466.06,-76.35 -623.19,-228.2 -157.1,-151.85 -235.22,-342.32 -235.22,-572.27 0,-595.98 524,-894.4 1571.11,-894.4 41.25,0 96.55,0.87 166.78,2.64l0 -195.74c0,-269.46 -183.45,-403.74 -550.34,-403.74 -356.35,0 -558.23,134.28 -606.5,403.74l-498.55 -74.6c27.21,-215.93 138.68,-394.1 333.53,-533.66 195.74,-139.56 478.36,-209.77 848.76,-209.77 200.99,0 364.25,17.55 491.53,50.9 126.38,33.36 233.48,89.53 321.24,169.4 87.78,79.87 148.33,165.89 181.69,259.81 33.35,93.03 50.03,251.02 50.03,473.97l0 1172.63c0,170.28 25.46,344.95 77.24,524.88zm-648.63 -1321.84c-757.47,0 -1136.66,180.81 -1136.66,542.43 0,107.95 38.62,200.11 114.99,276.48 76.36,76.35 191.33,114.98 345.82,114.98 222.93,0 391.47,-71.09 505.57,-212.42 113.23,-141.31 170.28,-301.93 170.28,-481.86l0 -239.61z"/>
    <path id="_5" class="fil1" d="M17985.68 4206.99l0 458.17c-174.65,37.75 -309.82,56.17 -405.49,56.17 -157.99,0 -293.16,-30.72 -406.39,-93.92 -113.22,-62.31 -195.73,-147.45 -248.39,-256.3 -52.67,-109.71 -78.12,-276.47 -78.12,-502.93l0 -1344.66 -324.76 0 0 -455.53 358.11 0 53.54 -675.85 481 -43.89 0 719.74 522.24 0 0 455.53 -522.24 0 0 1267.43c0,162.38 29.84,273.84 88.64,332.66 59.69,59.69 171.15,88.65 335.28,88.65 46.53,0 95.69,-1.76 146.58,-5.27z"/>
    <path id="_6" class="fil1" d="M20056.24 3837.47l530.14 71.97c-68.47,234.36 -202.75,428.33 -401.13,581.05 -199.23,152.73 -448.51,228.22 -748.68,229.08 -359.87,-0.86 -649.53,-121.12 -868.95,-363.37 -219.43,-241.38 -329.15,-568.77 -329.15,-982.17 0,-392.33 110.6,-717.1 331.78,-974.27 221.18,-257.17 521.37,-386.19 899.67,-386.19 370.39,0 656.53,127.26 859.29,380.92 201.87,253.66 303.69,579.3 303.69,976.9l-2.64 67.6 -1782.65 0c0,176.42 16.69,317.73 50.03,423.94 33.36,106.19 100.06,198.36 199.25,277.35 100.05,79 223.81,118.5 373.03,118.5 289.64,0 485.38,-140.44 586.32,-421.31zm-35.98 -776.79c-1.77,-186.95 -57.94,-339.68 -168.54,-458.17 -110.58,-117.6 -246.63,-177.29 -409.89,-177.29 -161.5,0 -295.78,55.3 -403.75,165.88 -107.96,110.6 -171.16,266.84 -190.47,469.58l1172.65 0z"/>
    <path id="_7" class="fil1" d="M22665.7 3711.08l504.7 51.78c-65.84,325.64 -191.35,566.13 -378.3,722.37 -186.95,156.22 -412.53,233.48 -676.72,234.34 -358.12,-0.86 -633.71,-130.78 -825.93,-392.33 -193.11,-261.56 -289.66,-581.93 -289.66,-960.23 0,-391.47 105.33,-714.47 315.98,-969.88 211.54,-255.41 492.41,-383.56 843.48,-383.56 566.14,0 903.19,298.42 1011.15,895.26l-504.7 69.35c-43.88,-322.12 -202.74,-483.63 -475.72,-483.63 -198.36,0 -343.19,86.89 -432.72,261.56 -90.39,173.79 -135.17,384.45 -135.17,631.08 0,262.45 46.53,464.33 140.44,606.51 93.04,142.19 223.82,213.29 391.47,213.29 257.16,0 428.33,-165.02 511.7,-495.91z"/>
    <path id="_8" class="fil1" d="M25795.67 4665.16l-586.33 0 0 -1700.14c0,-183.45 -39.5,-311.6 -117.62,-386.2 -78.11,-74.61 -169.4,-112.35 -273.84,-112.35 -165.9,0 -305.45,65.83 -418.67,198.36 -113.23,131.65 -170.28,349.33 -170.28,653.03l0 1347.3 -586.33 0 0 -3510 586.33 0 0 1368.36c145.71,-373.91 401.12,-560.86 767.13,-560.86 532.77,0 799.61,305.44 799.61,918.1l0 1784.4z"/>
   </g>
  </g>
 </g>
</svg>
