<?xml version="1.0" encoding="UTF-8"?>
<!DOCTYPE svg PUBLIC "-//W3C//DTD SVG 1.1//EN" "http://www.w3.org/Graphics/SVG/1.1/DTD/svg11.dtd">
<!-- Creator: CorelDRAW (Versão OEM) -->
<svg xmlns="http://www.w3.org/2000/svg" xml:space="preserve" width="172.429mm" height="223.163mm" version="1.1" style="shape-rendering:geometricPrecision; text-rendering:geometricPrecision; image-rendering:optimizeQuality; fill-rule:evenodd; clip-rule:evenodd"
viewBox="0 0 17242.9 22316.3"
 xmlns:xlink="http://www.w3.org/1999/xlink"
 xmlns:xodm="http://www.corel.com/coreldraw/odm/2003"
 zoomAndPan="magnify">
 <defs>
  <style type="text/css">
   <![CDATA[
    .str3 {stroke:#122D50;stroke-width:600;stroke-miterlimit:22.9256}
    .str0 {stroke:#122D50;stroke-width:250;stroke-miterlimit:22.9256}
    .str1 {stroke:#122D50;stroke-width:20;stroke-miterlimit:22.9256}
    .str2 {stroke:#21C09E;stroke-width:20;stroke-miterlimit:22.9256}
    .str4 {stroke:#783A34;stroke-width:20;stroke-miterlimit:22.9256}
    .fil0 {fill:none}
    .fil1 {fill:#122D50}
    .fil2 {fill:#21C09E}
    .fil3 {fill:#783A34}
   ]]>
  </style>
 </defs>
 <g id="Camada_x0020_1">
  <metadata id="CorelCorpID_0Corel-Layer"/>
  <g id="_1781338241216">
   <line class="fil0 str0" x1="2513.76" y1="16282.33" x2="8391.13" y2= "18350.02" />
   <line class="fil0 str0" x1="9713.94" y1="12418.69" x2="12041.4" y2= "11307.09" />
   <line class="fil0 str0" x1="9661.65" y1="8672.85" x2="15078.78" y2= "14669.29" />
   <circle class="fil1 str1" cx="8599.73" cy="7780.37" r="1236.45"/>
   <circle class="fil2 str2" cx="4165.46" cy="8635.5" r="820.08"/>
   <line class="fil0 str0" x1="7231.28" y1="8053.56" x2="5122.79" y2= "8513.92" />
   <line class="fil0 str0" x1="2538.13" y1="15302.31" x2="7339.65" y2= "13621.53" />
   <line class="fil0 str0" x1="7518.77" y1="8672.85" x2="2101.64" y2= "14669.29" />
   <path class="fil0 str3" d="M1941.71 16922.63c1248.74,1861.97 2910.68,3248.14 5305.03,3790.92"/>
   <path class="fil0 str3" d="M15266.75 16922.63c-1248.74,1861.97 -2910.68,3248.14 -5305.03,3790.92"/>
   <path class="fil1 str1" d="M8599.73 0.55c1194.19,0 2162.25,968.06 2162.25,2162.25 0,1194.19 -968.06,2162.25 -2162.25,2162.25 -1194.19,0 -2162.25,-968.06 -2162.25,-2162.25 0,-1194.19 968.06,-2162.25 2162.25,-2162.25zm-0.01 658.42c830.56,0 1503.84,673.28 1503.84,1503.82 0,830.56 -673.28,1503.84 -1503.84,1503.84 -830.54,0 -1503.82,-673.28 -1503.82,-1503.84 0,-830.54 673.28,-1503.82 1503.82,-1503.82z"/>
   <circle class="fil3 str4" cx="13014.17" cy="8635.5" r="820.08"/>
   <circle class="fil1 str1" cx="8599.73" cy="13120.37" r="1236.45"/>
   <circle class="fil1 str1" cx="1229.32" cy="15748.44" r="1236.45"/>
   <circle class="fil2 str2" cx="15999.32" cy="15748.44" r="1236.45"/>
   <circle class="fil1 str1" cx="8599.73" cy="21080.37" r="1236.45"/>
   <line class="fil0 str3" x1="8596.98" y1="3969.77" x2="8596.98" y2= "6440.06" />
   <line class="fil0 str3" x1="8596.98" y1="9149.77" x2="8596.98" y2= "11808.94" />
   <line class="fil0 str3" x1="8596.98" y1="14499.77" x2="8596.98" y2= "19667.97" />
   <line class="fil0 str0" x1="14711.14" y1="16282.33" x2="8833.77" y2= "18350.02" />
   <line class="fil0 str0" x1="4556.64" y1="9548.28" x2="7961.67" y2= "19831.67" />
   <line class="fil0 str0" x1="12641.68" y1="9548.28" x2="9236.65" y2= "19831.67" />
   <line class="fil0 str0" x1="14679.65" y1="15302.31" x2="9878.13" y2= "13621.53" />
   <line class="fil0 str0" x1="9962.8" y1="8053.56" x2="12071.29" y2= "8513.92" />
   <line class="fil0 str0" x1="7466.48" y1="12418.69" x2="5139.02" y2= "11307.09" />
  </g>
 </g>
</svg>
