<?xml version="1.0" encoding="UTF-8"?>
<svg id="Camada_1" xmlns="http://www.w3.org/2000/svg" version="1.1" viewBox="0 0 2160 3099.43">
  <!-- Generator: Adobe Illustrator 30.5.1, SVG Export Plug-In . SVG Version: 2.1.4 Build 3)  -->
  <path d="M30.91,2156.63v-5.36c1.82-3.16,6.97-12.33,11.6-12.41l41.76-.73-.26-226.58-20.96-.59c-8.97-.25-15.8-6.82-15.78-15.93l.11-73.26c0-5.87,5.21-14.6,11.68-14.66l40.47-.37.65-105.02h0l-25.66-.2c-5.64-.17-9.51-9.01-9.58-13.57-.06-4.2,2.53-11.41,6.66-14.49l123.13-91.65,75.11-56.12c8.37-5.06,17.83-14.59,28.52-14.62l161.57-.47-.43-325.08-61.17-.59c-8.73-.08-14.49-5.31-14.48-14.14l.1-76.76c.01-8.2,6.53-13.97,14.27-13.99l61.69-.18-.92-43.07c-20.31-17.3-41.19,12.81-53.78-12.47-12.19-24.47-37.26-42.9-65.68-40.89-33.33,2.36-57.03,29.44-62.3,61.11-.48,2.87-3.84,8.15-6.26,8.11-7.8-.1-27.81-22.49-60.58-14.74-25.3,5.99-42.47,30.83-40.07,56.19,2.31,24.45,22.81,48.16,49.49,48.33l128.68.85c9.17.06,14.33,11.62,13.24,18.59-1.2,7.67-7.54,15.72-16.69,15.72l-125.16.07c-28.89.02-54.37-17.02-68.5-37.65-17.41-25.43-20.88-54.25-10.26-81.23,18.02-45.82,65.35-67.76,111.77-51.59,14.14-28.28,36.62-48.23,66-55.45,44.25-10.89,87.92,9.46,111.71,47.14l28.89.55-.3-48.86-17.89-1.84c-6.38-.65-10.55-9.23-10.17-14.61.39-5.53,3.73-11.51,8.66-14.65l31.18-19.84,156.58-99.3c5.34-3.38,12.67-4.49,17.88-1.29l23.42,14.42,3.13,1.93c.63.39.37-2.89.19-3.74-11.32-53.24-12.56-106.85,1.81-160.01,18.77-69.48,57.44-132.5,113.2-178.13,143.02-117.05,363.74-106.08,484.17,38.26,24.84,29.77,41.14,63.89,52.74,100.67l5.32,29.72c.16.88,3.19,3.29,4.1,3.29l34.53-.11c11.13-.04,18.57,7.97,18.57,18.47l.09,124.85,22.82.03c10.09.01,14.87,8.05,14.97,17.06l.67,60.05c.08,6.87.02,18.38-10.18,18.82l-28.55,1.23.05,231.81,44.28.17-.05-214.53c0-6.09,2.65-12.26,6.24-15.17,4.11-3.34,11.76-4.99,16.84-3.11l94.54,34.98,194.05,73.18c6,2.26,10.83,10.76,10.86,16.85l.3,55.84c17.75-6.03,34.79-5.5,52.95.24,21.91-26.65,54.69-38.76,89.31-32.03,30.13,5.85,54.05,29.5,65.59,59.27,19.46,1.91,36.85,12.07,45.87,26.07,11.26,17.48,11.89,36.13,4.42,55.06-9.27,15.91-26.07,32.95-46.74,33.01l-211.98.69.36,274.55,147.79,79.24c8.36,4.48,12.3,11.01,12.35,20.4l.19,34.79,156,105.58c6.71,4.54,12.78,11.2,16.43,18.41l-.27,396.52,38.13,1.05c8.39.23,12.41,10.49,11.6,17.11-.71,5.85-4.79,14.47-13.6,14.47l-357.11.12.02,89.37c0,1.13.17,4.58,1.04,4.43l4.59-.76c30.96-7.4,55.81-26.17,72.68-52.76,2.33-3.67,8.84-7.03,12.41-6.81,13.5.84,19.4,27.2,54.58,47.27,46.56,26.56,99.82,7.83,128.27-37.82,5.03-8.07,14.2-11.86,21.93-7.86,6.85,3.54,11.54,14.18,7.51,22.46-25.82,53.04-84.88,79.09-142.52,65.94-27.31-6.23-49.94-20.9-70.56-40.92-23.51,25.65-53.57,41.29-87.79,44.53-16.66,1.58-35.45-4.96-35.45-19.06l.02-108.13h-86.29c-8.75,0-14.49-7.38-15.4-14.57-.78-6.14,3.47-17.18,12.01-17.23l89.45-.48-.53-39.39-123.3.15-.08,162.13c0,8.89-10.99,12.87-17.24,12.61-6.64-.28-16.28-4.68-16.28-14.09l.12-319.39c.01-38.79,30.2-71.93,66.76-71.99l57.79-.1c35.5,2.16,65.69,29.29,65.8,66.56l.6,203.73,59.79-.35.1-102.86-.24-214.55-229.64-.59c-9.72-.02-16.92-6.8-17.43-17.07l-.12-431.19-293.01-.12c-9.54,0-15.22-6.9-16.79-15.71l.1-76.68c0-6.02,3.06-13.64,7.15-16.12,5.26-3.18,11.29-3.31,18.73-3.24l.56-56.78c.09-8.69,8.4-14.17,16.13-14.19l65.79-.11c7.11-.01,14.27,6.99,14.39,13.73l1.02,57.43,47.74.14-.08-55.74c-.01-8.3,7.7-15.8,16.05-15.81l71.75-.11c6.87-.01,12.68,8.43,12.68,14.74l.07,56.88,37.85-.15.71-109.03-191.06.36-139.13-.45-.05,210.33c0,10.97-7.34,17.38-17.29,17.55-7.74.13-16.26-6.67-16.27-17.35l-.16-222.27c0-5.74.41-11.49,3.23-15.41,2.44-3.4,9.22-5.94,14.3-5.93l122.12.29-.14-232.21-120.48-.3c-8.48-.02-15.94-5.34-15.88-14.45l.43-67.11c.07-10.29,8.33-15.31,19-14.49l.21-52.66c.04-10.73,6.7-18.26,17.42-18.24l57.4.11c9.08.02,15.83,7.11,15.86,16.1l.18,54.6,25.87-.17-.17-111.12-288.55.29-.27,605.93,24.91,16.58.25-88.81c.02-8.77,8.2-14.81,16.47-14.82l60.03-.14c8.23-.02,15.27,6.09,15.28,15.02l.07,151.47c0,5.24-6.61,11.93-10.95,13.56-10.52,3.97-21.45,1.99-30.92-4.08l-99.05-63.6-92.18-61.27-86.79-59.33-133.92,91.74-141.68,97.6c-2.7,1.86-7,6.76-7,10.09l.17,323.11c-.93,7.46-6.16,12.08-13.77,12.07l-226.29-.27-.04,414.51,60.07.45.61-205.7c.1-35.01,30.8-61.15,64.18-64.16l59.44-.16c36.1-.1,65.49,33.01,65.51,71.66l.21,321.03c0,10.35-13.17,14.03-20.33,12.58-8.12-1.65-13.62-8.22-13.61-17.83l.19-156.76h-122.38s-.33,39.52-.33,39.52l91.56.28c9.26.03,13.19,12.28,11.62,18.87-1.87,7.84-7.9,13.03-16.98,13.04l-86.18.06.56,104.31c.05,8.63-11.39,15.14-18.66,17.33-49.58,14.9-100.9-1.14-137.1-38.21l-18.39,13.46c-42.91,38.61-112.48,39.29-157.78,5.81-16.96-12.53-32.23-27.52-40.29-47.27-3.55-8.71,1.43-18.51,8.39-21.66,8.87-4.02,16.36.09,21.75,8.31,17.21,26.28,43.91,46.94,76.23,50.43,39.27,4.24,76.52-17.72,95.72-51.01,3.13-5.42,8.1-8.67,13.49-8.48,4.35.15,10.47,3.88,13.24,8.37,23.19,37.61,65.39,58.85,109.35,50.01l.1-91.45H48.02c-9.63-.01-14.17-6.67-17.11-13.82ZM887.1,835.11c5.53-10.28,11.83-16.99,20.85-22.29l123.36-72.53-.07-87.94c0-7.18,3.17-13.53,8.11-18.52l64.96-49.12,62.11-46.55c3.66-2.74,10.29-4.49,14.33-1.2l67.06,54.59,41.18,35.41c-9.4-35.58-24.64-67.05-47.79-94.39-103.13-121.79-291.54-133.88-418.44-40.47-44.09,32.46-76.37,76.18-98.72,125.84-22.42,49.81-29.96,102.87-22.43,156.86,2.8,20.06,6.68,38.7,13.43,57.66,3.13,8.81,9.09,15.6,17.15,20.65l106.77,66.9c5.42,3.4,7.9,10.28,7.67,15.7-.19,4.41-4.77,12.69-9.74,13.23l-17.52,1.91-.45,226.18,34.95-21.55c6.04-3.73,15.12-1.25,20.41,2.14l13.85,8.89-1.02-331.39ZM1256.82,645.38c-27.24-26.63-54.05-50.44-83.6-72.36-32.57,24.12-62,45.29-94.35,71.95l177.94.41ZM1299.65,746.33l-34.5.05.06,42.93,34.5-.05-.06-42.93ZM942.34,1068.8l.27-54.86c.04-8.94,7.09-16.77,16.25-16.82l74.3-.38.14-44.5-78.33-.1c-7.76,0-12.78-10.68-12.74-16.86l.38-57.92c.44-9.91,8.03-16.97,18-17.15h72.06s-.47-82.97-.47-82.97l-105.19,64.09c-4.33,3.39-7.06,7.56-7.05,13.61l.81,332.49,21.91,15.57-.1-52.61c-.02-11.64,8.62-18.83,19.85-18.82l71.19.11.11-43.43-71.19.63c-11.88.11-20.26-7.74-20.2-20.06ZM1245.76,815.49v41.15h22.01v-41.15h-22.01ZM1311.45,815.52l-19.92.05.1,41.16,19.92-.05-.1-41.16ZM1357.44,815.42l-20.55.02.05,41.4,20.55-.02-.05-41.4ZM1400.68,856.53l-1.13-41.04-17.2.22-.26,40.89,18.58-.07ZM767.42,916.5l-129.3-82.05-129.52,82.1,258.82-.05ZM1033.17,889.49h-62.19v34.82h62.19v-34.82ZM1611.44,1144.08l.09,45.24,65.74.26c8.4.03,15.78,7.16,15.79,15.97l.1,69.26c.01,9.45-7.46,16.76-16.73,16.77l-65.31.07.04,45.82,60.32.26c10.93.05,19.76,8.38,19.59,20.21l-1.31,89.54,29.4,15.77-.21-441.95-104.83-40.04-70.72-26.58-78.11-28.3-.42,190.69,23.99.26-.16-60.34c-.03-10.16,8.74-16.8,18.04-16.76l54.1.24c9.26.04,15.55,9.21,15.58,17.87l.19,58.04,27.88.4.07-58.33c.01-10.51,7.41-18.49,18.36-18.48l54.1.05c8.86,0,16.43,8.03,16.44,16.64l.08,69.15c.01,8.81-6.9,17.27-16.42,17.39l-65.68.86ZM625.57,1185.34l-132.37-.13-.11,157.89.28,347.56,53.31.22.13-285.2c-7.59,4.72-12.87,7.78-19.05,7.84-5.31.05-12.2-5.41-13.53-11.22-2.19-9.49,3.62-16.33,10.1-22.71l120.5-83.2,141.08-96.99-.19-250.34-292.97.04.04,130.47,26.76.24.13-55.01c.02-8.33,6.11-15.88,15.21-15.9l60.61-.14c9.17-.02,16.49,6.71,16.61,16.23l.68,54.59c8.15.08,13.26.52,17.47,3.47,3.53,2.48,5.29,9.49,5.29,14.55v77.11c0,4.9-4.86,10.63-9.99,10.63ZM1033.14,1024.67l-62.6.33.19,35.54,62.6-.33-.19-35.54ZM547.99,1036.73v43.17h36.25v-43.17h-36.25ZM1753.6,1174.64l204.01.03c6.24-.98,13.6-2.82,17.85-6.66,8.65-7.8,8.32-21.17,3.2-30.17-11.06-19.44-35.58-6.25-43.36-14.45-2.19-2.31-3.76-7.74-4.56-12.25-4.24-24.03-24.8-43.61-49.54-45.26-23.14-1.55-42.46,11.58-53.61,30.9-2.13,3.69-6.67,7.73-9.88,8.42-11.18,2.38-25.51-18.31-53.33-8.03-3.86,1.43-11.08,7.54-11.06,11.44l.28,66.02ZM1548.34,1068.42l-31.49.05.08,48.39,31.49-.05-.08-48.39ZM1632.57,1068.47l-.02,46.91h32.98s.02-46.9.02-46.9h-32.98ZM428.87,1107.29h-18.66v48.18h18.66v-48.18ZM454.06,1106.99l-.03,48.75h19.19s.03-48.74.03-48.74h-19.19ZM497.25,1106.99l-.07,48.78,19.49.03.07-48.78-19.49-.03ZM560.62,1106.71h-19.55v49h19.55v-49ZM584.37,1106.95l-.15,48.69,22.41.07.15-48.69-22.41-.07ZM1033,1159.36l-61.9.08.05,35.97,61.9-.08-.05-35.97ZM1321.11,1216.91v43.42h42.3v-43.42h-42.3ZM1466.55,1217.1l-.03,43.27,45.21.03.03-43.27-45.21-.03ZM1611.72,1217.37l-.04,45.44,53.65.04.04-45.44-53.65-.04ZM1032.3,1223.24l-59.46.41,59.29,38.56.17-38.97ZM1152.05,1339.81l.12-114.6-33.6.25.14,95.3c10.39,7.87,20.56,14.77,33.34,19.04ZM1297.26,1286.38v55.96h20.98v-55.96h-20.98ZM1366.73,1286.33h-23.17v56.31h23.17v-56.31ZM1391.67,1286.42l-.04,55.52,48.97.04.04-55.52-48.97-.04ZM1466.16,1286.41l-.06,55.61,21.62.02.06-55.61-21.62-.02ZM1535.49,1286.28l-22.21.02.05,55.64,22.21-.02-.05-55.64ZM1578.56,1286.42h-17.85v55.49h17.85v-55.49ZM1653.32,1368.88h0l-42.34-.23v418.88s44.26.12,44.26.12l-1.92-418.77ZM1825.78,1787.01l1.3-68.09.63-116.31c.05-8.34,9.46-12.95,14.75-12.74,8.09.31,12.12,6.6,12.13,15.08l.1,124.04,27.31-.16-.2-139.41-114.28-61.77-80.38-44.14-.21,232.97,38.97.41c8.78.09,16.22,5.87,16.37,15.41l.85,55.23,28.86-.12-.14-55.31c-.02-8.44,4.8-14.47,12.88-14.95,6.66-.4,13.56,4.95,13.6,13.22l.25,56.91,27.2-.23ZM306.34,1669.81l-.17-128.19-33.68,23.22.14,104.43,33.72.55ZM364.03,1542.94h-30.77v147.1h30.77v-147.1ZM445.33,1601.02l-.11,89,14.45.15.03-147.24-70.18-.05.43,146.85,29.86.14-.07-85.05c0-6.77,5.47-12.89,10.54-13.74,5.57-.93,15.04,2.01,15.03,9.94ZM208.44,1669.97l37.26-.2-.13-84.73-37.92,28.51.79,56.42ZM181.75,1669.69l-.76-38.09-20.21,15.25-27.1,22.97,48.07-.14ZM1945.05,1729.44l.29-50.21-33.37-21.95-.15,72.23,33.23-.07ZM2019.95,1729.64l-47.8-33.24-.56,33.26,48.36-.02ZM117.06,1911.08l.23,226.79,32.77.03v-87.82c0-8.49,7.01-16.08,16.01-16.08l99.77.04c7.23,0,14.81,6.14,14.82,12.98l.08,90.96,26.19-.38-.47-181.03.06-254.57-173.08-.15-.08,104.83,31.77.27.03-61.78c0-9.99,7.12-17.3,17.22-17.3h65.66c7.52,0,13.97,6.73,14.06,14.34l.75,65.59c9.81-2.31,25.43,4.98,25.53,14.12l.45,76.53c-1.11,6.46-6.38,12.62-13.73,12.62l-158.03.03ZM1715.54,1745.04l-29.22.11.16,42.88,29.22-.11-.16-42.88ZM234.35,1755.21l-40.95.02.03,51.94,40.95-.02-.03-51.94ZM1999.83,1971.31c10.48,0,16.23,8.24,16.24,17.18l.02,149.42,36.68-.13.08-376.23-196.63-.07.21,376.69,39.87.11.25-149.26c.02-10.36,8.4-17.65,18.02-17.66l85.26-.05ZM92.36,1833.45l-19.72.03.08,50.45,19.72-.03-.08-50.45ZM134.04,1833.03h-18.96v50.99h18.96v-50.99ZM175.11,1833.45h-17.44v50.48h17.44v-50.48ZM219.58,1833.52l-19.66.02.05,50.26,19.66-.02-.05-50.26ZM243.65,1833.75l-.05,49.84,19.47.02.05-49.84-19.47-.02ZM555.51,2065.2l-.23-130.35c-3.54-20.43-15.9-33.56-36.26-34.13l-48.5-.37c-21.25,1.44-35.43,16.5-37.51,37.9l-.13,127.13,122.62-.18ZM1731.71,2065.19l-.22-126.77c-2.51-17.59-10.68-31.96-27.72-36.92l-61.76-.6c-19.61,1.77-31.41,15.82-34.45,35.59l-.1,128.87,124.25-.17ZM1986.38,1998.95l-60.73.04.09,139.33,60.73-.04-.09-139.33ZM252.78,2061.26h-74.58v76.88h74.58v-76.88Z"/>
  <path d="M1013.02,40.56c8.97,5.42,13.97,12.87,13.96,24.54l-.15,252.35c0,11.55-11.85,17.66-19.97,16.74-8.92-1.02-16.21-8.08-16.21-19l-.07-259.2c0-6.84,9.56-12.33,13.36-15.42h9.08Z"/>
  <path d="M1183.61,2571.65c-2.77,26.5,6.06,54.57,24.3,75.02,21.33,23.93,51.7,35.17,83.83,31.55,60.1-6.77,116.71-25.14,171.61-49.98l51.97-26.9c23.36-12.09,43.43-27.4,63.05-45.62l-67.75-20.7c-5.55-1.7-10.53-9.88-10.71-14.4-.2-4.96,2.98-13.52,9.06-16,86.91-35.52,169.54-79.25,244.09-136.78l48.83-37.69c4.19-3.23,13.83-3.28,17.69-1.03s9.66,9.25,9.62,15.13c-.39,50.76-2.46,99.93-9.23,150.57-9.69,72.43-27.19,141.78-50.62,210.61-2.57,7.56-11.84,10.24-18.26,9.81s-13.38-4.71-17.02-10.84l-34.1-57.47-25.7,27.54c-74.67,80.03-146.44,133.46-246.78,179.58l-121.62,44.92-61.88,26.21c-27.18,11.52-51.78,26.72-76.22,43.22-32.92,22.22-61.63,47.26-86.93,77.6-6.53,7.83-18.26,11.36-25.5,4.01l-35.28-35.76c-23.58-23.91-51-42.63-79.63-60.52-41.32-25.84-84.98-44.2-131.03-59.88-36.8-12.53-71.73-24.41-106.92-41.12-57.38-27.25-110.66-59.9-160.67-99.12-40.22-31.53-74.31-66.52-109.29-105.9l-33.75,56.66c-4.18,7.01-11.46,10.98-18.92,10.61-7.69-.39-14.46-5.58-17.53-14.34-23.35-66.69-40.64-134.55-50.32-205.08-7.1-51.75-8.94-101.53-8.2-153.43.08-5.88,4.36-12.03,8.25-13.81,5.32-2.44,13.42-1.63,18.43,2.5,41.21,33.98,83.45,63.57,129.47,91.2,49.72,29.84,99.41,56.1,152.56,79.17,14.2,6.16,22.74,16.36,18.4,25.95-1.24,2.74-5.54,6.16-9.46,7.38l-65.06,20.3c-1.06.33-3.6,1.28-3.46,1.29s1.64,2.22,2.05,2.8l46.01,32.76c43.26,26.6,88.14,48,136.96,62.94,36.63,11.21,71.89,21.39,110.6,24.29,39.73,2.98,77-23.25,91.56-59.36,6.36-15.78,6.98-31.92,6.83-47.58-29.05-3.08-52.57-14.36-73.81-32.45-35.75,36.81-98.69,41.8-142.41,21.14-28.47-13.46-50.19-37.58-62.79-65.79-4.57-10.24.9-21.01,10.01-24.32,9.55-3.47,18.58,2,23.03,11.6,16.2,34.87,49.3,54.3,87.55,54.43,58.2.21,66.29-41.21,85.09-41.26,5.36-.01,11.65,3.62,15.43,7.99,19.53,22.58,45.56,33.78,75.46,33.11,35.35-.78,67.16-19.82,82.04-52.2,3.38-7.36,8.6-12.73,16.21-13.59s15.91,4.15,19.48,11.62c16.4,34.27,47.89,55.23,86.05,54.3,57.56-1.4,68.37-41.66,85.36-42.06,4.93-.12,13.01,3.29,16.44,7.64,18.01,22.78,42.92,34.7,72.19,34.16,36.44-.68,67.6-19.61,83.85-52.25,2.85-5.72,8.55-11.25,13.22-12.33,6.29-1.46,15.08-.07,19.11,4.88,3.83,4.7,3.9,13,1.19,18.41-25.73,51.33-64.64,78.52-123.01,77.54-31.34-.53-58.72-11.75-83.22-32.92-18.73,18.04-40.93,28.36-69.82,32.02ZM945.67,2674.38c-36.15,35.43-73.99,43.15-122.81,35.47-114.51-18.02-232.09-69.01-316.43-148.76-4.74-4.48-6.39-13.24-4.76-18.1,1.71-5.1,6.87-9.33,12.44-11.03l49.17-15.05-46.48-23.05c-52.27-25.92-99.39-58.03-150.11-90.73,18.29,39.91,43.57,72.73,69.01,106.83,69.78,93.54,159.67,169.13,265.68,218.55,39.69,18.5,79.76,32.71,121.55,44.83l30.91,8.96c71.45,20.29,141.94,49.05,196.1,105.37l.13-349.23c-20.52,18.05-43.41,28.03-68.78,33.37,1.03,38.78-9.98,73.65-35.6,102.56ZM1081.4,2539.82l.06,344.28,57.9-43.19c22.51-14.22,45.53-27.39,70.91-35.56l92.12-29.65c140.28-37.08,259.89-109.62,355.68-218.71,41.25-46.98,77.48-96.5,106.15-154.22l-123.12,77.25-74.38,36.42,47.63,13.95c6.98,2.04,13.28,5.66,15.32,12.11s-.68,14.46-5.98,19.64c-29.73,29.01-62.89,51.99-99.37,72.64-66.5,37.64-137.53,63.49-213.19,74.72-21.89,3.25-42.81,4.66-64.16-.8-61.09-15.6-101.61-72.85-97.07-137.28-24.67-5.93-46.1-14.31-68.49-31.59ZM340.86,2455.76c5.48,63.53,19.3,123.51,38.34,183.08l6.66,20.85,31.49-52.73c2.53-4.23,10.39-7.63,14.56-7.17,5.79.63,9.34,4.14,13.48,9.2,43.41,53.04,92.37,101.07,148.82,140.66,37.44,26.27,75.5,48.79,116.6,68.51l111.95,43.6c41.64,16.22,81.85,31.2,120.65,53.32,45.59,26,86.5,56.14,122.37,96.01,70.37-75.82,162.88-124.15,260.76-155.22,143.48-45.37,268.89-131.54,362.19-249.28,3.72-4.69,10.47-7.13,15.46-6.93,3.71.15,10.31,3.79,12.55,7.64l29.89,51.35c17.3-46.87,27.7-92.45,35.4-140.55,5.43-33.91,11.21-65.79,10.24-99.98l-23.79,39.9c-23.6,39.58-50.39,75.14-80.46,110.32-58.26,68.15-126.1,125.86-204.91,168.9l-81.74,38.24c-32.14,15.04-65.09,22.92-99.37,31.97l-89.71,29.98c-24.05,9.9-46.25,22.56-68.26,36.23-25.65,15.92-45.47,37.62-65.54,59.63-6.43,7.05-15.86,10.06-23.45,2.7l-30.28-29.36c-56.63-54.9-115.13-78.37-191.37-98.44-35.23-9.28-67.76-19.69-101.94-33.01-173.82-67.74-301.15-193.32-391.41-355.18l.84,35.76Z"/>
  <path d="M1644.94,2324.35c4.98-8.32,13.89-8.56,20.55-5.21,7.48,3.77,11.39,12.01,7.27,20.61l-16.33,34.06c-12.2,20.05-30.15,34.09-50.79,44.59-56.1,28.54-122.35,13.09-160.86-37.6-47.12,61.01-132.53,70.04-190.64,18.6-55.62,51.36-147.5,42.17-189.76-17.74-50.61,62.23-129.65,66.93-190.99,17.19-58.39,51.98-140.39,41.93-188.87-16.25-24.47,27.87-55.94,46.27-92.35,49.25-44.13,3.61-84.79-15.55-112.84-48.12-5.44-6.31-9.85-13.44-13.25-21.06l-10.82-24.23c-4.09-9.16,1.16-20.67,11.73-22.59,8.82-1.6,19.03,4.56,22.07,13.3,13.45,38.61,46.42,64.13,85.96,66.74,40.38,2.67,77.33-19.55,94.56-56.69,2.71-5.84,11.35-9.01,16.86-8.87,6.85.17,12.57,5.07,15.77,12.11,13.39,29.4,42.49,48.82,72.4,52.69,34.11,4.41,64.99-8.95,86.24-34.5,8.19-9.85,21.69-6.78,28.98,1.68,31.31,36.31,84.18,45.12,123.98,18.11,14.64-9.94,25.41-23.76,34.17-38.8,3.81-6.55,9.43-10.39,16.61-10.61s13.79,4.4,17.19,11.44c20.56,42.51,67.04,64.07,112.03,49.87,42.11-13.29,44.68-37.39,61.4-37.52,16-.12,17.99,21.45,47.79,34.05,48.05,20.32,101.45-.86,124.73-47.23,3.26-6.49,10.6-11.3,16.67-11.71,7.46-.5,14.92,4.4,18.14,11.55,9.31,20.66,24.44,35.69,44.79,45.31,49.03,23.16,107.08,1.74,129.03-48.09l8.57-14.31Z"/>
  <path d="M1865.94,739.11c-25.88,3.44-48.82,5.55-72.44,12.82l29.31,31.79c19.62,25.89,25.01,58.73,21.95,90.67-.73,7.57-5.35,12.26-12,13.19-5.82.82-14.12-3.02-13.5-10.73l1.79-22.26c-.76-33.38-18.08-62.04-44.88-81.39l-13.03,8.35c11.87,8.82,16.12,20.16,17.45,33.59,1.89,19.13-6.41,35.63-22.71,45.49-26.15,15.83-57.73,16.21-84.59,1.59-14.61-7.95-23.19-21.26-25.58-36.12-2.67-16.6,4.8-32.71,17.38-44.4l-13-8.26c-21.42,14.49-36.27,36.68-42.63,62.11-3.41,13.65-1.4,26.32,1.68,39.85,1.55,6.81-6.44,11.87-11.85,12.04-6.8.2-13.32-4.07-14.37-11.94-3.99-30.08.08-61.14,17.23-86.59,8.76-13,20.48-22.63,31.5-34.56-.11-1.32-4.52-5.03-6.57-5.35l-68.45-10.51c-12.82,16.44-31.21,19.67-48.63,12.91s-25.37-23.57-25.35-42.89c.03-20.56,7.7-39.14,28.31-46.51l-.18-14c-28.07,1.83-53.4,1.75-80.49-2.95l-7.91-4.94c-1.78-1.11-1.23-6.35-.18-8.77,28.78-9.62,57.94-8.29,87.88-4.57,1.77-8.29,7.06-14.14,14.32-13.51,6.41.56,10.44,7.29,11.87,14.39,28-6.66,91.61-5.71,91.19,8.91-.41,14.2-64.48,14.05-91.6,10.54l.02,15.09c12.68,3.17,20.08,11.14,25.17,21.49l71.64-10.42c15.73-2.29,26.91-28.35,85.51-26.1,54.37,2.09,59.35,25.37,76.95,27.35l69.29,7.82c4.83-10.84,11.43-17.82,23.54-19.95,1.03-4.04,1.18-10.47.65-15.17-27.73,3.84-52.73,2.06-79.52-1.94-3.87-.58-7.41-2.66-9.58-5.93-.64-.97-1.08-1.92-1.16-2.74-1.31-13.58,63.12-16.11,90.9-8.73.46-7.91,5-14.1,11.25-14.2,7.03-.12,12.03,6.36,12.21,14.83,28.9-7.47,57.9-6.66,86.06.94,1.47.4,2.89,1.05,4.06,2.03,1.56,1.32,2.63,3.07,2.8,5.19.17,2.24-2.16,4.25-4.34,5.53-1.19.7-2.48,1.2-3.81,1.53-27.85,6.82-53.93,6.63-83.88,4.05l-.43,14.69c28.14,7.44,34.87,47.11,23.83,70.13-5.56,11.6-16.9,18.75-27.12,21.27-25.2,6.19-36.9-15.97-45.96-14.77ZM1876.29,713.51c14.66-2.26,13.64,18.36,28.12,17.73,13.83-.6,18.81-24.71,10.64-41.39-3.33-6.81-13.46-8.79-18.54-6.14-13.15,6.86-2.33,29.53-14.94,27.75l-84.94-11.96c-9.9-1.39-19.01-4.59-26.31-11.12-11.23-10.03-24.99-16.96-40.06-16.31l-44.55,1.91c-19.47.84-29.3,22.2-48.2,24.72l-52.91,7.07-31.14,7.12,77.08,12.07c31.47,4.93,29.25,37.71,57.84,37.8l52.43.16c28.1.09,25.5-32.43,56.5-37.22l78.98-12.2ZM1545.49,713.28c-10.77-8.86-.54-26.08-15.83-30.41-5.26-1.49-14.34,1.02-16.73,7.53-3.51,9.58-4.11,21.76-.66,31.25,2.12,5.82,9.39,9.51,14.22,9.72,12.06.52,10.28-14.47,19-18.08ZM1732.69,805.33c12.71,8.61,16.66,21.39,15.19,36.6,7.46-6.13,11.6-13.72,11.44-22.06-.15-8.11-3.85-16.42-10.54-21.98-17.72-14.72-53.77-14.11-69.52.76-6.24,5.89-10.65,14.53-9.72,22.9.84,7.58,5.93,15.3,13.11,20.43-3.24-15.02,1.47-27.66,11.48-35.58,11.22-8.88,26.36-9.34,38.57-1.06ZM1725.77,833.71c1.31-7.99-5.5-14.81-13.49-13.49-4.84.79-8.74,4.7-9.53,9.54-1.31,7.99,5.5,14.81,13.49,13.49,4.84-.79,8.74-4.7,9.53-9.54Z"/>
  <path d="M1156.16,1827.59c-10.05.27-17.61-3.03-21.51-11.48l-32.57-70.44-106.83-237.68-.59,306.07c-.02,9.04-7.87,13.38-15.33,13.36-8.72-.03-18.07-5.37-18.07-15.89l-.2-371c0-10.73,6.11-16.66,16.53-17.68,7.99-.56,15.88.89,21.36,7.49l138.81,304.54.31-294.52c0-8.87,7.21-13.4,14.37-16.46,4.94-.3,10-.06,14.12,2.03,3.48,1.77,6.59,7.93,6.6,13.39l.31,372.85c0,10.02-7.39,15.14-17.3,15.41Z"/>
  <path d="M827.9,2273.71c-12.92,1.27-21.78-6.41-26.85-17.68l-111.67-248.57-23.79-51.15.29,303.34c0,9.39-9.94,13.75-16.66,13.89-6.91.14-17.35-4.51-17.36-14.37l-.26-360.16c0-8.62-2.44-16.46.6-24.38,2.46-6.43,28.91-13.98,36.27,2.32l104.59,231.61,34.5,75.54-.06-292.69c0-5.58-2.03-11.32.36-15.34,2.71-4.54,8.35-7.4,14.2-8.22,10.23-1.43,19.28,4.75,19.28,16.2l.08,375.45c0,7.71-6.38,13.51-13.53,14.22Z"/>
  <path d="M1540.85,2251.32c2.15,4.5,1.09,12.7-.95,15.95-2.46,3.92-8.78,7.39-14.14,7.41-9.4.04-16.34-5.48-20.25-13.77l-76.79-162.77-56.49.15-.23,162.98c-2.72,8.58-9.38,12.67-17.76,12.19-5.8-.33-15.92-4.83-15.91-14.05l.34-377.08c0-8.01,9.89-13.92,16.58-13.9l106.76.32c15.8.05,31.93,4.58,44.82,13.2,17.79,11.9,28.92,32.92,28.99,54.65l.31,90.75c.13,38.6-28.98,64.66-69.38,68.24l43.99,92.92,30.09,62.82ZM1502,2025.55l-.09-86.11c-.02-18-13.68-37.09-32.03-37.35l-62.14-.87-35.2,1.31-.03,162.62,89.2-.48c21.97-.12,40.32-16.18,40.3-39.13Z"/>
  <path d="M1416.98,1757.97c-.12,41.6-39.04,68.42-82.22,68.25l-108.52-.42c-5.92-.02-11.74-11.05-11.74-17.23l-.02-369.95c0-7.65,6.49-14.07,13.63-14.07l101.06-.07c48.89-.03,88.65,28.89,88.51,79.56l-.71,253.93ZM1383.89,1751.73l.02-249.44c-2.4-25.29-19.4-44.02-44.96-44.16l-90.99-.49.42,336.36,84.54.17c27.07.05,50.97-14.94,50.97-42.44Z"/>
  <path d="M1295.55,2232.95c-10.36,23.71-33.13,37.69-58.19,39.93-23.65,2.12-46.74,1.9-70.14-1-41.39-5.12-60.18-34.12-60.17-75.87v-259.58c0-36.81,27.57-64.51,63.05-67.95l63.93-.11c14.53-.02,29.68,6.11,41.06,15.22,16.69,13.36,26.16,34.18,26.16,56.39l.07,257.82c0,11.92-.88,23.97-5.76,35.14ZM1267.19,2204.2l-.1-265.47c0-22.73-18.47-38.24-38.51-38.18l-51.39.15c-18.17.05-36.89,14.71-36.89,35.94l-.06,262.96c0,22.17,14.45,40.95,36.06,40.91l57.16-.1c17.47-.03,33.74-15.96,33.73-36.21Z"/>
  <path d="M777.43,1826.64c-31.53,4.62-62.1,4.84-91.74-2.84-29.75-7.71-50.58-33.25-50.77-63.47l-.28-43.17c-.06-9.75,8.51-14.97,17.29-14.92s15.77,5.03,15.86,14.16l.39,38.15c.22,21.41,16.27,37.46,36.91,40.44,20.96,3.02,41.31,2.77,62.61.37,17.97-2.02,33.83-16.39,33.87-35.31l.13-67.31c.02-12.74-10.6-23.69-21.6-28.92l-58.31-27.74c-21.98-10.46-43.61-19.75-63.93-33.4-13.2-8.87-21.16-24.86-22.35-40.86-1.84-24.57-2.17-48.49-.23-72.76,3.53-44.3,41.53-67.02,85.95-66.26l43,.73c19.6.33,38.31,9.17,51.63,22.98,11.52,11.95,17.31,27.84,19.12,44.46l.19,44.22c.03,7.98-8.08,11.76-14.59,12.24-10.49.78-18.04-5.01-18.46-15.85l-1.47-38.39c-.61-16.03-13.41-34.03-30.31-36.27-21.79-2.88-43.86-2.78-65.31-.85-22.87,2.06-37.64,22.01-36.44,43.94,1.11,20.4-2.48,41.41,1.63,61.09,6.49,16.44,26.2,25.66,41.33,32.65l84.58,39.08c22.37,10.34,39.54,30.9,39.3,56.28l-.74,75.97c-2.95,32.11-24.92,56.83-57.24,61.57Z"/>
  <path d="M1713.68,441.66c1.03,49.07-36.53,91.39-86.3,91.52l-200.92.49c-33.88-1.47-60.2-26.01-63.06-58.11-2.97-33.39,17.83-63.11,52.41-70.29,9.31-37.12,37.27-63.88,75.02-72.29,36.38-8.1,74.17,4.29,97.66,34.99,29.15-13.27,61.39-10.01,87.79,8.27,22.04,15.26,35.43,36.91,37.4,65.41ZM1613.1,396.68c-21.16,5.02-30.91,21.62-37.25,17.75-7.14-4.37-11.06-29.57-34.44-41.86-19.24-10.12-43.44-10.25-63.06,2.29-15.24,9.74-29.43,27.43-30.27,48.6-.22,5.65-3.45,15.82-10.63,14.77-18.36-2.69-35.21,6.78-38.39,25.25-2.72,15.75,9.28,35.03,27.29,35.01l199.93-.16c31.34-.03,53.77-29.36,50.04-57.86-3.96-30.26-32.03-51.17-63.23-43.77Z"/>
  <path d="M2059.48,1465.66l-77.47.33c-38.31.16-49.89,22.46-70.91,11.4-12.56-6.61-26.6-10.86-41.3-10.98l-81.87-.67c-7.97-.07-14.17-3.91-14.17-12.51l-.02-162.66c0-6.97,3.47-13.42,10.73-13.92l13.52-.93c-.2-6.94-.74-16.43,1.77-21.09,4.73-8.8,15.18-6.93,23.18-6.52,36.5,1.9,70.18,12.03,100.11,32.01,36.62-24.02,72.99-31.87,115.09-32.58,5.74-.1,10.98,5.87,10.88,10.88l-.34,17.42,14.12-.02c5.13,0,10.9,4.96,10.91,11.12l.39,164.41c.02,7.87-6.42,14.27-14.63,14.31ZM1914.92,1447.55l-.1-150.7c-25.68-23.99-64.79-29.76-98.87-32.65l.02,154.39,44.5,6.56c19.82,2.92,37.23,11.67,54.45,22.4ZM1932.11,1447.46c31.16-19.39,62.75-25.87,98.56-26.88l.25-156.53c-37.31,4.68-71.1,6.99-98.84,33.03l.03,150.38ZM1983.83,1449.67l72.74-1.49-.27-150.16c0-2.58-2.13-5.76-3.76-5.2-1.3.45-3.09,3.35-3.65,5.11l-.03,126.84c-.15,8.03-5,11.35-12.59,11.73-27.48,1.39-54.72,3.79-78.96,16.16l26.51-2.99ZM1812.78,1436.67c-8.51-.47-14.87-4.96-14.88-13.42l-.07-129.34c-3.24-.34-6.86,1.72-6.86,4.01l.18,150.69,34.06.04,63.95,3.88c-24.31-11.93-49.47-14.39-76.38-15.87Z"/>
  <path d="M913.01,2202.99c.04,21.15,16.53,37.28,34.82,37.36l58.99.25c17.85.08,31.4-14.48,31.82-31.77l1.02-42.55c.25-10.36,3.07-18.12,12.42-20.34,8.62-2.05,21.31,1.84,21.27,12.76l-.18,48.81c-.13,35.59-30.36,66.16-65.48,65.86l-63.99-.55c-34.99-2.77-64.3-29.32-64.38-66.36l-.59-266.52c-.05-24.65,10.74-47.16,30.93-60.45,10.65-7.01,24.25-11.5,37.09-11.47l59,.14c37.15.09,66.61,32.7,66.89,67.81l.29,37.4c.06,8.29-6.87,13.79-15.19,13.94-4.22.08-10.98-1.55-13.81-4.28-2.45-2.36-4.11-8.87-4.29-13.14l-1.57-38.02c-3.38-18.77-17.66-31.32-36.14-31.37l-52.8-.13c-21.62-.05-36.61,19.73-36.58,39.83l.45,262.76Z"/>
  <path d="M1169.18,952.97l-64.34.32c-9.83.05-15.21-7.01-15.19-16.56l.33-207.42c.02-10.06,6.61-16.88,16.59-16.87l59.82.06c7.93,0,14.74,6.81,14.75,14.99l.03,212.76c0,4.54-7.52,12.68-11.97,12.71ZM1152.14,740.28h-33.69s.02,185.06.02,185.06h33.69s-.02-185.06-.02-185.06Z"/>
  <path d="M896.19,1827.59c-9.92-.24-17.35-5.75-17.35-15.71l-.07-375.57c4.76-9.06,12.57-14.25,20.58-12.6,10.37,2.15,13.95,9.77,13.94,20.51l-.2,368.77c0,9.6-8.04,14.82-16.89,14.6Z"/>
  <path d="M1472.91,1827.25c-9.74-.91-14.5-5.22-15.71-14.2l-.21-374.07c0-10.17,9.48-15.77,17.02-15.43,9.55.42,17.13,6.77,17.13,17.68l.06,370.23c0,10.77-8.93,16.67-18.3,15.79Z"/>
  <path d="M407.65,1476.98l-108.94-.13c-10.2-.01-23.62-9.66-23.68-20.36l-.49-89.2c-.08-14.13,8.54-24.16,22.35-27.75l1.51-30.15c4.49-29.48,30.36-49.35,58.83-46.81,28.95,2.58,50.03,27.84,48.75,58.01-.27,6.43.5,13.18,1.72,19.91,10.39,2.71,21.94,9.39,21.98,21.05l.32,91.91c.04,11.62-9.24,23.54-22.36,23.52ZM387.58,1339.45c.44-10.57.78-19.21-1.08-28.47-3.45-17.2-18.75-32.1-36.92-30.54-16.94,1.46-32.8,16.85-33.13,33.39l-.51,25.84,71.63-.21ZM405.8,1459.07c2.49-1.95,4.83-5.03,5.7-7.3l-.13-84.8c-.13-4.08-4.13-8.6-8.4-8.6l-102.5-.07c-4.17.51-8.02,4.51-8.01,8.7l.07,84.63c0,3.16,4.47,7.37,7.6,7.38l105.68.06Z"/>
  <path d="M219.37,1442.77c-.92,8.18-6.62,13.68-11.39,19.62,13.74,10.97,12.67,30.02.17,41l-26.83,23.56-24.95-23.29c-1.94-1.81-3.71-8.1-4.38-10.99l.09-113.36c-9.57-7.54-19.02-13.64-26.06-23.15-16.05-21.68-19.05-51.28-8.14-75.85,10.04-22.6,31.04-36.7,52.98-40.2,25.48-4.06,49.84,3.81,66.56,23.6,21.38,25.3,23.54,62.91,5,90.46-5.85,8.69-15.05,13.33-23.6,20.27-1.58,7.43-1.77,17.95-1.38,26.47.61,13.52-7.11,13.07-10.94,19.91-2.3,4.1,14.04,11.47,12.86,21.95ZM198.05,1443.06l-4.51-4.85c-4.19-4.52-9.02-10.28-9.09-15.8-.17-13.71,14.94-19.43,15.02-25.53l.42-31.81c9.37-6.61,18.53-10.61,25.26-18.91,19.9-24.55,14.37-62.67-12.01-80.58-20.69-14.05-48.81-10.8-66.51,5.88-14.33,13.49-18.5,32.16-15.52,51.9,2.39,15.79,13.78,30.26,29.7,39.5,5.28,3.06,9.26,9.1,9.26,15.47l-.11,108.49c0,5,5.68,12.88,10.43,14.2,9.99-5.39,19.12-16.75,16.95-20.31-3.76-6.18-12.41-9.66-11.84-18.9.54-8.68,14.73-16.38,12.55-18.73Z"/>
  <path d="M1170.3,1155.18l-65.06-.22c-11.83-.04-15.64-9.91-15.62-19.73l.3-123.41c.03-10.37,6.7-15.7,16.59-15.7l62.06-.03c6.26,0,13.09,6.79,13.09,13.96l.07,128.89c0,7.09-4.88,13.13-11.44,16.25ZM1118.58,1025l-.07,101.43,33.7.02.07-101.43-33.7-.02Z"/>
  <path d="M645.65,366.88c22.83,22.6,45.46,43.83,66.98,67.5,6.65,7.31,4.29,18.86-1.21,24.15-7.51,7.23-18.48,7.35-26.34-.51l-183.89-183.91c-6.19-6.19-3.3-17.49,1.26-22.71s16.18-7.56,23.2-1.85c22,17.86,40.47,38.61,60.71,58.64l59.28,58.69Z"/>
  <path d="M1317.05,1069.71l-66.58-.09c-7.07,0-13.51-7.46-13.51-14.89l.06-114.11c0-8.43,7.2-15.32,15.35-15.32l60.05-.02c8.26,0,15.34,6.81,15.35,15.33l.07,114.15c0,6.87-3.87,12.77-10.8,14.93ZM1299.62,952.88h-34.44v89.82h34.44v-89.82Z"/>
  <path d="M568.63,737.78c11.14,0,17.18,10.61,16.93,18.27-.3,8.95-7.69,16.99-17.93,16.99l-255.94-.03c-10.07,0-16.47-6.98-17.99-15.83-1.12-6.53,4.02-19.28,14.22-19.28l260.72-.12Z"/>
  <path d="M936.21,2215.74c-3.73-3.86-5.97-10.39-5.98-16.01l-.24-267.25c2.58-8.47,7.26-12.74,14.98-13.1,5.98-.28,15.03,4.89,15.03,14.05l.17,271.74c0,6.26-3.5,11.81-7.83,13.71-4.82,2.11-11.49,1.67-16.14-3.14Z"/>
  <path d="M493.3,1795.38l-37.54,40.04c-4.57,4.88-10.83,10.72-16.95,12.27-8.5,2.16-15.28-1.69-18.84-7.82-3.84-6.62-.86-13.21,4.57-19.05l54.96-59.14c3.13-3.37,8.79-6.88,12.54-6.93,4.03-.05,10.25,2.87,13.28,6.12l59.68,63.79c4.23,4.52,4.55,12.07,2.13,16.24-3.18,5.5-9.28,8.13-16.3,7.12-7.48-1.08-14.35-6.56-19.07-12.29l-38.46-40.34Z"/>
  <path d="M1214.15,326.7c-4.8,11.1-14.44,15.19-24.71,11.68-9.51-3.25-14.1-15.09-9.21-26.1l53.79-121.14c4.41-9.92,16.43-12.67,24.19-9.39,8.82,3.74,12.4,14.87,8.21,24.49l-25.47,58.44-26.8,62.02Z"/>
  <path d="M844.22,289.71c4.21,10.81-1.87,22.34-10.5,25.21-12.4,4.12-21.18-2.57-25.41-13.31l-43.41-110.04c-2.95-7.47-3.56-15.07,1.04-20.97s12.35-10.69,20.31-8.05c8.84,2.93,12.89,11.28,16.12,19.58l41.86,107.59Z"/>
  <path d="M563.63,543.34c9.97,4.4,13.2,15.09,10.45,23.18-3.23,9.52-14.48,14.6-24.38,10.33l-62.75-27.1-54.41-24.04c-9.02-3.98-11.52-14.2-8.6-21.89,3.43-9.01,13.33-15.47,23.14-11.3l38.17,16.22,78.38,34.59Z"/>
  <path d="M845.88,1362.38c.02,10.42-4.58,16.22-13.46,16.46-8.58.23-13.72-5.86-13.73-15.42l-.1-102.85c0-7.55,5.93-13.06,12.13-13.79,5.72-.67,14.89,3.21,14.91,10.83l.25,104.76Z"/>
  <path d="M905.67,1369.16c-.02,6.76-9.32,9.62-13.27,9.38-4.32-.26-13.75-3.37-13.77-9.61l-.35-106.52c-.03-8.38,4.51-14.55,12.33-15.62,7.34-1,15.37,5.11,15.35,13.97l-.29,108.4Z"/>
  <path d="M703.17,1570.72c-9.59.42-16.61-9.07-16.61-17.73v-60.53c0-10.58,8.43-19.9,19.35-19.56,5.36.17,10.84,7.13,10.82,12.86l-.24,69.05c-.02,7.18-5.17,15.56-13.32,15.91Z"/>
  <path d="M784.95,1763.16c0,8.69-9.93,13.78-16.02,13.69-8.29-.12-13.48-8.27-13.5-16.82l-.15-65.26c-.02-8.67,8.13-14.33,15.5-14.04s14.18,7.09,14.18,15.9l-.02,66.54Z"/>
  <path d="M964.86,1364.48c.08,9.18-5.65,14.95-12.8,15.37s-14.97-4.7-15.01-13.34l-.32-68.58c-.04-7.65,5.02-13.88,12.03-15.05,4.98-.83,15.45,4.64,15.51,11.88l.59,69.73Z"/>
  <path d="M787.31,1362.59c.07,10.59-5.71,16.39-14.62,16.32-7.91-.06-13.77-6.29-13.73-15.41l.28-68.77c.02-5.74,7.63-11.08,11.88-12.09,5.07-1.2,15.71,2.78,15.75,9.78l.45,70.17Z"/>
  <path d="M831.46,602.51c-22.72,32.39-30.97,69.16-35.09,106.56-1.07,9.7-11.97,13.39-19.41,12.08-8.4-1.48-16.48-8.45-15.8-18.82,7.31-110.93,81.51-195.55,191.61-211.2,9.5-1.35,19.21-2.94,28.07-1.24,9.45,1.81,12.39,13.05,10.89,20.49-1.73,8.55-8.44,13.9-18.41,14.56-55.98,3.72-108.88,30.56-141.85,77.58Z"/>
  <path d="M743.81,1169.39l-58.44.03c-8.14,0-16.88-5.73-16.89-15.99l-.12-164.11c0-8.89,6.68-15.33,15.41-15.33h61.89c8.02.02,15.15,6.7,15.16,15.38l.12,164.51c0,9.61-8.49,15.5-17.13,15.5ZM732.51,1002.69l-36.56.04.04,36.05,36.56-.04-.04-36.05ZM695.8,1065.97l-.08,74.64,36.37.04.08-74.64-36.37-.04Z"/>
  <path d="M597.83,1307.2l-61.78-.21c-8.21-.03-16.22-6.16-16.21-15l.07-64.43c0-7.47,7.02-13.52,14.2-13.51l67.33.11c5.15,0,10.57,8.33,10.56,13.25l-.03,66.44c0,8.23-6.49,13.37-14.15,13.34ZM547.58,1242.05l-.02,37.58,36.47.02.02-37.58-36.47-.02Z"/>
  <path d="M1999.69,1907.67l-83.14.23c-9.59.03-15.41-7.38-15.4-16.68l.09-71.19c0-6.97,5.86-17.16,13.31-17.18l84.54-.17c7-.01,12.64,9,12.77,15.55l1.37,72.95c.13,6.82-4.59,16.47-13.54,16.49ZM1984.03,1880.43l-.27-50.19-54.22.16.31,50.6,54.18-.56Z"/>
  <path d="M280.78,1996.57c-3.45,12-22.44,12.4-26.06.12-1.16-3.91-.56-6.98-.68-11.23.04-9.15.11-24.05.14-30.23-.25-4.57,1.14-9.25,4.64-12.5,7.38-7.28,19.15-2.82,21.58,6.5,1.42,9.4.3,19.22.74,32.08-.14,4.75.47,10.98-.31,15.13l-.04.13Z"/>
  <path d="M228.56,1992.68c-.52,3.74-2.26,7.97-5.54,10.4-5.65,4.49-14.99,3.14-18.72-3.23-3.27-5.22-2.45-10.48-2.4-16.51.48-11.92-.03-25.77.99-35.12,1.03-3.72,4.7-6.63,8.38-7.72,6.93-2.49,14.27,2.72,16.49,9.24.57,1.7.61,3.31.64,5.09.06,4.61.16,14.57.26,22.81-.03,4.71.34,11.06-.07,14.88l-.02.15Z"/>
  <path d="M175.71,1996.15c-2.96,12.37-20.25,12.47-24.78.9-2.15-5.29-1.08-9.86-1.27-15.7.06-8.24.14-19.5.18-24.81.01-2.77.06-5.24,1.13-7.89,2.87-8.45,14.3-12.31,20.72-5.63,3.69,3.92,4.47,8.98,4.38,13.94,0,5.28,0,17.97.01,26.66-.1,3.99.29,9.17-.34,12.4l-.03.14Z"/>
  <path d="M1798.36,1680.61c.01,7.05-7.45,10.76-11.95,11.24s-14.17-2.49-14.21-8.45l-.46-71.14c-.05-7.72,5.54-13.8,13-14.25,4.99-.3,13.46,5.85,13.47,12.84l.14,69.76Z"/>
  <path d="M1742.61,1675.2c.04,7.75-4.08,12.94-9.48,14.98-4.79,1.81-16.69.8-16.78-7.1l-.75-70.86c-.07-6.91,5.54-12,11.3-13.4,5.06-1.23,15.29,2.93,15.33,10.02l.38,66.36Z"/>
  <path d="M1751.63,717.05l-75.46.17c-4.43.01-9.28-6.08-9.41-9.56-.21-5.78,4.42-9.34,10.69-9.36l72.6-.23c5.31-.02,9.92,3.19,10.65,7.79.53,3.37-4.11,11.18-9.07,11.19Z"/>
  <path d="M1417.43,2036.23c-.01,9.38-11.55,12.12-16.91,11.15-7.39-1.33-13.19-7.65-13.14-16.11l.63-101.82c.05-8.32,9.1-12.22,14.94-11.87,6.67.4,14.6,4.46,14.59,12.85l-.12,105.8Z"/>
  <path d="M1284.16,1777.71c-8.53,1.94-18.98-6.43-18.98-16.01l-.03-274.43c0-9.16,7.63-14.94,14.44-15.26,8.29-.39,15.68,5.47,15.68,15.36l-.14,274.29c0,6.83-3.95,14.45-10.97,16.05Z"/>
  <path d="M1185.97,2206.23c0,10.22-7.25,14.42-14.95,14.42-5.68,0-14.27-6.62-14.28-15.69l-.16-268.53c0-8.89,6.07-15.98,13.15-16.29s16.14,4.69,16.14,14.3l.09,271.8Z"/>
  <path d="M2008.78,1364.57c-19.62,2.89-35.2,7.59-52.79,14.51-2.82,1.11-8.46-.46-10.07-2.84-7.74-11.38,37.19-23.02,60.71-26.68,3.13-.49,8.36,2.96,8.93,5.57.89,4.06-1.77,8.71-6.78,9.44Z"/>
  <path d="M2009.71,1394.92c-36.07,4.38-56.93,22.04-63.9,11.56-1.32-1.98.78-7.4,3.19-8.57,20.25-9.9,61.31-24.35,66.39-12.39,1.28,3.02-1.74,8.93-5.68,9.4Z"/>
  <path d="M1957.7,1317.61c-3.53,1.5-9.95.11-11.34-2.2-7.49-12.44,37.28-23.7,61.39-26.18,2.7-.28,7.81,3.54,8.37,6.03s-3.11,8.18-5.89,8.52c-18.22,2.27-34.66,6.23-52.53,13.82Z"/>
  <path d="M2009.79,1333.86c-19.89,2.99-36.92,8.35-53.53,15.12-2.7,1.1-8.96-1.26-10.05-3.44-5.89-11.74,37.43-23.77,62.13-25.64,2.24-.17,6.55,3.54,7.23,5.56.79,2.36-2.52,7.9-5.78,8.39Z"/>
  <path d="M1891.69,1410.34c-18.95-7.48-34.54-11.93-53.68-15.24-3.4-.59-7.19-5-7.2-8.3-.06-13.22,45.22-.79,66.62,10.34,2.12,1.1,4.11,6.59,4.18,8.8.08,2.59-6.3,5.82-9.92,4.4Z"/>
  <path d="M1891.38,1349.11c-18.99-7.34-35.22-11.69-54.11-15.05-2.49-.44-6.44-4.93-6.47-7.34-.18-13.56,42.99-1.96,65.89,9.29,2.46,1.21,4.6,5.85,4.65,8.03.06,2.54-6.42,6.44-9.96,5.07Z"/>
  <path d="M1891.84,1379.84c-18.7-7.13-37.05-12.09-54.5-15.19-2.73-.49-6.27-5.62-6.31-7.97-.26-13.02,43.66-.32,65.65,9.83,2.42,1.12,4.97,6.47,4.66,8.9s-6.2,5.7-9.49,4.44Z"/>
  <path d="M1891.4,1318.84c-18.85-7.11-35.34-11.62-54.08-14.77-2.39-.4-6.15-4.93-6.28-7.3-.73-13.6,42.77-1.87,65.18,8.5,2.33,1.08,4.87,6.18,4.89,8.61s-6.5,6.16-9.71,4.95Z"/>
  <path d="M363.63,1434.59c-2.23,6.07-17.63,6.09-22.31,1.89-.65-8.04.97-19.27-1.71-25.95-2.54-6.32-6.07-11.07-4.81-17.04,1.02-4.83,6.07-10.08,11.36-11.96,7.52-2.68,15.53-.35,19.79,5.07,5.06,6.44,4.03,14.45-.47,21.95-4.07,6.79-2.34,15.55-1.85,26.05Z"/>
  <path d="M207.28,1292.14c0,13.52-10.96,24.48-24.47,24.48s-24.47-10.96-24.47-24.48,10.96-24.48,24.47-24.48,24.47,10.96,24.47,24.48ZM191.25,1292.64c0-4.72-3.82-8.54-8.54-8.54s-8.54,3.82-8.54,8.54,3.82,8.54,8.54,8.54,8.54-3.82,8.54-8.54Z"/>
</svg>